<svg xmlns="http://www.w3.org/2000/svg" xmlns:xlink="http://www.w3.org/1999/xlink" width="500" zoomAndPan="magnify" viewBox="0 0 375 374.999991" height="500" preserveAspectRatio="xMidYMid meet" version="1.0"><path fill="#ffffff" d="M 151.609375 149.613281 L 144.886719 149.613281 L 144.886719 142.890625 C 144.886719 142.199219 144.820312 141.511719 144.683594 140.832031 C 144.546875 140.152344 144.347656 139.492188 144.082031 138.851562 C 143.816406 138.210938 143.492188 137.605469 143.105469 137.027344 C 142.71875 136.453125 142.28125 135.917969 141.792969 135.429688 C 141.304688 134.9375 140.769531 134.5 140.195312 134.113281 C 139.617188 133.730469 139.007812 133.40625 138.367188 133.140625 C 137.730469 132.871094 137.070312 132.671875 136.390625 132.535156 C 135.710938 132.402344 135.023438 132.332031 134.328125 132.332031 L 122.808594 132.332031 C 122.113281 132.332031 121.429688 132.402344 120.75 132.535156 C 120.070312 132.671875 119.410156 132.871094 118.769531 133.140625 C 118.128906 133.40625 117.519531 133.730469 116.945312 134.113281 C 116.367188 134.5 115.835938 134.9375 115.34375 135.429688 C 114.855469 135.917969 114.417969 136.453125 114.03125 137.027344 C 113.648438 137.605469 113.320312 138.210938 113.054688 138.851562 C 112.789062 139.492188 112.589844 140.152344 112.453125 140.832031 C 112.316406 141.511719 112.25 142.199219 112.25 142.890625 L 112.25 149.613281 L 105.527344 149.613281 C 104.835938 149.613281 104.148438 149.683594 103.46875 149.820312 C 102.789062 149.953125 102.128906 150.15625 101.488281 150.421875 C 100.847656 150.6875 100.242188 151.011719 99.664062 151.398438 C 99.089844 151.78125 98.554688 152.21875 98.066406 152.710938 C 97.574219 153.199219 97.136719 153.734375 96.75 154.308594 C 96.367188 154.886719 96.042969 155.492188 95.777344 156.132812 C 95.511719 156.773438 95.308594 157.433594 95.171875 158.113281 C 95.039062 158.792969 94.96875 159.480469 94.96875 160.171875 L 94.96875 171.695312 C 94.96875 172.386719 95.039062 173.074219 95.171875 173.753906 C 95.308594 174.433594 95.511719 175.09375 95.777344 175.734375 C 96.042969 176.375 96.367188 176.980469 96.75 177.558594 C 97.136719 178.132812 97.574219 178.667969 98.066406 179.15625 C 98.554688 179.648438 99.089844 180.085938 99.664062 180.46875 C 100.242188 180.855469 100.847656 181.179688 101.488281 181.445312 C 102.128906 181.710938 102.789062 181.914062 103.46875 182.046875 C 104.148438 182.183594 104.835938 182.253906 105.527344 182.253906 L 112.25 182.253906 L 112.25 188.976562 C 112.25 189.667969 112.316406 190.355469 112.453125 191.035156 C 112.589844 191.714844 112.789062 192.375 113.054688 193.015625 C 113.320312 193.652344 113.648438 194.261719 114.03125 194.839844 C 114.417969 195.414062 114.855469 195.949219 115.34375 196.4375 C 115.835938 196.925781 116.367188 197.367188 116.945312 197.75 C 117.519531 198.136719 118.128906 198.460938 118.769531 198.726562 C 119.410156 198.992188 120.070312 199.191406 120.75 199.328125 C 121.429688 199.464844 122.113281 199.53125 122.808594 199.535156 L 134.328125 199.535156 C 135.023438 199.53125 135.710938 199.464844 136.390625 199.328125 C 137.066406 199.191406 137.726562 198.992188 138.367188 198.726562 C 139.007812 198.460938 139.617188 198.136719 140.191406 197.75 C 140.769531 197.363281 141.300781 196.925781 141.792969 196.4375 C 142.28125 195.949219 142.71875 195.414062 143.105469 194.839844 C 143.492188 194.261719 143.816406 193.652344 144.082031 193.015625 C 144.347656 192.375 144.546875 191.714844 144.683594 191.035156 C 144.820312 190.355469 144.886719 189.667969 144.886719 188.976562 L 144.886719 182.253906 L 151.609375 182.253906 C 152.304688 182.253906 152.988281 182.183594 153.667969 182.046875 C 154.347656 181.914062 155.007812 181.710938 155.648438 181.445312 C 156.289062 181.179688 156.898438 180.855469 157.472656 180.46875 C 158.050781 180.085938 158.582031 179.648438 159.074219 179.15625 C 159.5625 178.667969 160 178.132812 160.386719 177.558594 C 160.769531 176.980469 161.097656 176.375 161.363281 175.734375 C 161.628906 175.09375 161.828125 174.433594 161.964844 173.753906 C 162.101562 173.074219 162.167969 172.386719 162.167969 171.695312 L 162.167969 160.171875 C 162.167969 159.480469 162.101562 158.792969 161.964844 158.113281 C 161.828125 157.433594 161.628906 156.773438 161.363281 156.132812 C 161.097656 155.492188 160.769531 154.886719 160.386719 154.308594 C 160 153.734375 159.5625 153.199219 159.074219 152.710938 C 158.582031 152.21875 158.050781 151.78125 157.472656 151.398438 C 156.898438 151.011719 156.289062 150.6875 155.648438 150.421875 C 155.007812 150.15625 154.347656 149.953125 153.667969 149.820312 C 152.988281 149.683594 152.304688 149.613281 151.609375 149.613281 Z M 152.570312 171.695312 C 152.570312 171.960938 152.476562 172.183594 152.289062 172.371094 C 152.101562 172.558594 151.875 172.652344 151.609375 172.652344 L 140.089844 172.652344 C 139.773438 172.652344 139.460938 172.683594 139.152344 172.746094 C 138.84375 172.808594 138.542969 172.898438 138.25 173.019531 C 137.960938 173.140625 137.683594 173.289062 137.421875 173.460938 C 137.160156 173.636719 136.917969 173.835938 136.695312 174.058594 C 136.472656 174.28125 136.273438 174.523438 136.097656 174.785156 C 135.921875 175.046875 135.773438 175.324219 135.652344 175.617188 C 135.53125 175.90625 135.441406 176.207031 135.378906 176.515625 C 135.320312 176.824219 135.289062 177.136719 135.289062 177.453125 L 135.289062 188.976562 C 135.289062 189.238281 135.195312 189.464844 135.007812 189.652344 C 134.820312 189.839844 134.59375 189.933594 134.328125 189.933594 L 122.808594 189.933594 C 122.542969 189.933594 122.316406 189.839844 122.128906 189.652344 C 121.941406 189.464844 121.847656 189.238281 121.847656 188.976562 L 121.847656 177.453125 C 121.847656 177.136719 121.820312 176.824219 121.757812 176.515625 C 121.695312 176.207031 121.605469 175.90625 121.484375 175.617188 C 121.363281 175.324219 121.214844 175.046875 121.039062 174.785156 C 120.863281 174.523438 120.667969 174.28125 120.441406 174.058594 C 120.21875 173.835938 119.976562 173.636719 119.714844 173.460938 C 119.453125 173.289062 119.175781 173.140625 118.886719 173.019531 C 118.59375 172.898438 118.292969 172.808594 117.984375 172.746094 C 117.675781 172.683594 117.363281 172.652344 117.050781 172.652344 L 105.527344 172.652344 C 105.261719 172.652344 105.035156 172.558594 104.847656 172.371094 C 104.664062 172.183594 104.570312 171.960938 104.570312 171.695312 L 104.570312 160.171875 C 104.570312 159.90625 104.664062 159.683594 104.847656 159.496094 C 105.035156 159.308594 105.261719 159.214844 105.527344 159.214844 L 117.050781 159.214844 C 117.363281 159.214844 117.675781 159.183594 117.984375 159.121094 C 118.292969 159.058594 118.59375 158.96875 118.886719 158.847656 C 119.175781 158.726562 119.453125 158.582031 119.714844 158.40625 C 119.976562 158.230469 120.21875 158.03125 120.441406 157.808594 C 120.667969 157.585938 120.863281 157.34375 121.039062 157.082031 C 121.214844 156.820312 121.363281 156.542969 121.484375 156.25 C 121.605469 155.960938 121.695312 155.660156 121.757812 155.351562 C 121.820312 155.042969 121.847656 154.730469 121.847656 154.414062 L 121.847656 142.890625 C 121.847656 142.628906 121.941406 142.402344 122.128906 142.214844 C 122.316406 142.027344 122.542969 141.933594 122.808594 141.929688 L 134.328125 141.929688 C 134.59375 141.933594 134.820312 142.027344 135.007812 142.214844 C 135.195312 142.402344 135.289062 142.628906 135.289062 142.890625 L 135.289062 154.414062 C 135.289062 154.730469 135.320312 155.042969 135.378906 155.351562 C 135.441406 155.660156 135.53125 155.960938 135.652344 156.25 C 135.773438 156.542969 135.921875 156.820312 136.097656 157.082031 C 136.273438 157.34375 136.472656 157.585938 136.695312 157.808594 C 136.917969 158.03125 137.160156 158.230469 137.421875 158.40625 C 137.683594 158.582031 137.960938 158.726562 138.25 158.847656 C 138.542969 158.96875 138.84375 159.058594 139.152344 159.121094 C 139.460938 159.183594 139.773438 159.214844 140.089844 159.214844 L 151.609375 159.214844 C 151.875 159.214844 152.101562 159.308594 152.289062 159.496094 C 152.476562 159.683594 152.570312 159.90625 152.570312 160.171875 Z M 152.570312 171.695312 " fill-opacity="1" fill-rule="nonzero"/><path fill="#ffffff" d="M 245.210938 177.644531 C 244.164062 177.632812 243.125 177.722656 242.09375 177.914062 C 241.0625 178.105469 240.058594 178.394531 239.085938 178.785156 C 238.113281 179.171875 237.183594 179.652344 236.304688 180.222656 C 235.425781 180.792969 234.609375 181.441406 233.855469 182.171875 C 233.101562 182.902344 232.429688 183.699219 231.832031 184.5625 C 231.238281 185.425781 230.730469 186.339844 230.3125 187.300781 C 229.894531 188.261719 229.574219 189.253906 229.351562 190.28125 C 229.132812 191.304688 229.011719 192.34375 228.992188 193.390625 C 228.972656 194.4375 229.054688 195.480469 229.242188 196.511719 C 229.425781 197.542969 229.710938 198.546875 230.09375 199.523438 C 230.472656 200.5 230.949219 201.429688 231.511719 202.316406 C 232.078125 203.199219 232.722656 204.019531 233.449219 204.777344 C 234.171875 205.53125 234.964844 206.210938 235.824219 206.8125 C 236.683594 207.414062 237.59375 207.925781 238.550781 208.351562 C 239.511719 208.773438 240.503906 209.101562 241.527344 209.328125 C 242.550781 209.558594 243.585938 209.683594 244.632812 209.710938 C 265.71875 209.320312 266.523438 178.546875 245.210938 177.644531 Z M 244.824219 200.113281 C 244.40625 200.101562 243.988281 200.054688 243.582031 199.960938 C 243.171875 199.871094 242.773438 199.742188 242.390625 199.574219 C 242.007812 199.40625 241.640625 199.203125 241.296875 198.964844 C 240.953125 198.726562 240.636719 198.453125 240.34375 198.152344 C 240.054688 197.851562 239.792969 197.527344 239.566406 197.171875 C 239.339844 196.820312 239.148438 196.449219 238.992188 196.0625 C 238.835938 195.671875 238.71875 195.269531 238.644531 194.859375 C 238.566406 194.445312 238.53125 194.03125 238.535156 193.613281 C 238.539062 193.191406 238.582031 192.777344 238.667969 192.367188 C 238.753906 191.957031 238.878906 191.558594 239.042969 191.171875 C 239.207031 190.785156 239.40625 190.417969 239.640625 190.074219 C 239.875 189.726562 240.140625 189.402344 240.4375 189.109375 C 240.734375 188.8125 241.058594 188.550781 241.410156 188.316406 C 241.757812 188.085938 242.125 187.890625 242.515625 187.730469 C 242.902344 187.570312 243.300781 187.449219 243.710938 187.367188 C 244.121094 187.285156 244.539062 187.242188 244.957031 187.242188 C 245.375 187.253906 245.789062 187.304688 246.199219 187.394531 C 246.609375 187.484375 247.003906 187.613281 247.386719 187.78125 C 247.773438 187.949219 248.136719 188.15625 248.480469 188.394531 C 248.824219 188.632812 249.140625 188.902344 249.433594 189.203125 C 249.722656 189.503906 249.984375 189.832031 250.210938 190.183594 C 250.4375 190.535156 250.628906 190.90625 250.785156 191.296875 C 250.941406 191.683594 251.054688 192.085938 251.132812 192.496094 C 251.210938 192.910156 251.246094 193.324219 251.242188 193.742188 C 251.238281 194.164062 251.191406 194.578125 251.105469 194.988281 C 251.019531 195.398438 250.898438 195.796875 250.734375 196.183594 C 250.570312 196.566406 250.371094 196.933594 250.136719 197.28125 C 249.902344 197.628906 249.636719 197.949219 249.339844 198.246094 C 249.042969 198.539062 248.71875 198.804688 248.371094 199.035156 C 248.019531 199.269531 247.652344 199.464844 247.265625 199.625 C 246.878906 199.785156 246.480469 199.90625 246.066406 199.988281 C 245.65625 200.070312 245.242188 200.113281 244.824219 200.113281 Z M 244.824219 200.113281 " fill-opacity="1" fill-rule="nonzero"/><path fill="#ffffff" d="M 217.519531 149.851562 C 196.273438 150.03125 195.90625 181.519531 217.1875 181.820312 C 218.230469 181.816406 219.257812 181.710938 220.277344 181.507812 C 221.296875 181.300781 222.289062 181 223.246094 180.601562 C 224.207031 180.203125 225.121094 179.714844 225.988281 179.136719 C 226.851562 178.5625 227.652344 177.90625 228.390625 177.171875 C 229.128906 176.441406 229.789062 175.640625 230.371094 174.78125 C 230.953125 173.917969 231.445312 173.007812 231.847656 172.050781 C 232.253906 171.09375 232.5625 170.105469 232.773438 169.085938 C 232.984375 168.066406 233.097656 167.039062 233.105469 166 C 233.117188 164.960938 233.027344 163.929688 232.835938 162.90625 C 232.648438 161.882812 232.359375 160.890625 231.976562 159.921875 C 231.589844 158.957031 231.117188 158.035156 230.550781 157.164062 C 229.988281 156.289062 229.34375 155.476562 228.621094 154.730469 C 227.898438 153.980469 227.113281 153.308594 226.257812 152.714844 C 225.40625 152.121094 224.503906 151.613281 223.550781 151.195312 C 222.597656 150.777344 221.617188 150.457031 220.601562 150.230469 C 219.585938 150.003906 218.558594 149.875 217.519531 149.851562 Z M 217.046875 172.21875 C 216.632812 172.199219 216.222656 172.140625 215.824219 172.042969 C 215.421875 171.945312 215.03125 171.808594 214.65625 171.632812 C 214.28125 171.460938 213.925781 171.25 213.59375 171.007812 C 213.257812 170.765625 212.949219 170.492188 212.667969 170.191406 C 212.386719 169.886719 212.136719 169.558594 211.917969 169.207031 C 211.699219 168.855469 211.515625 168.488281 211.371094 168.101562 C 211.222656 167.714844 211.117188 167.316406 211.046875 166.910156 C 210.976562 166.5 210.949219 166.089844 210.957031 165.675781 C 210.96875 165.261719 211.019531 164.855469 211.109375 164.449219 C 211.199219 164.046875 211.324219 163.65625 211.492188 163.277344 C 211.65625 162.898438 211.859375 162.539062 212.09375 162.199219 C 212.332031 161.859375 212.597656 161.542969 212.894531 161.257812 C 213.191406 160.96875 213.511719 160.710938 213.859375 160.484375 C 214.207031 160.257812 214.570312 160.070312 214.953125 159.914062 C 215.339844 159.761719 215.734375 159.644531 216.140625 159.566406 C 216.546875 159.488281 216.957031 159.449219 217.367188 159.449219 C 217.792969 159.453125 218.214844 159.496094 218.632812 159.582031 C 219.046875 159.667969 219.453125 159.792969 219.84375 159.960938 C 220.234375 160.125 220.605469 160.328125 220.957031 160.570312 C 221.304688 160.8125 221.628906 161.082031 221.925781 161.386719 C 222.222656 161.695312 222.484375 162.023438 222.714844 162.382812 C 222.945312 162.738281 223.136719 163.117188 223.292969 163.511719 C 223.449219 163.910156 223.5625 164.316406 223.636719 164.734375 C 223.707031 165.152344 223.738281 165.574219 223.730469 166 C 223.71875 166.425781 223.664062 166.84375 223.570312 167.261719 C 223.476562 167.675781 223.34375 168.074219 223.167969 168.464844 C 222.992188 168.851562 222.78125 169.21875 222.535156 169.5625 C 222.285156 169.910156 222.007812 170.226562 221.695312 170.515625 C 221.382812 170.804688 221.046875 171.0625 220.683594 171.285156 C 220.320312 171.503906 219.941406 171.691406 219.542969 171.835938 C 219.144531 171.984375 218.734375 172.089844 218.3125 172.152344 C 217.890625 172.21875 217.46875 172.238281 217.046875 172.21875 Z M 217.046875 172.21875 " fill-opacity="1" fill-rule="nonzero"/><path fill="#ffffff" d="M 272.863281 149.851562 C 251.652344 150.390625 251.191406 181.324219 272.640625 181.820312 C 293.710938 181.472656 293.722656 150.539062 272.863281 149.851562 Z M 272.488281 172.21875 C 272.070312 172.207031 271.65625 172.15625 271.25 172.066406 C 270.84375 171.976562 270.449219 171.84375 270.066406 171.675781 C 269.6875 171.507812 269.324219 171.304688 268.984375 171.0625 C 268.640625 170.824219 268.328125 170.554688 268.039062 170.25 C 267.75 169.949219 267.492188 169.625 267.269531 169.273438 C 267.046875 168.921875 266.855469 168.550781 266.703125 168.164062 C 266.554688 167.773438 266.441406 167.375 266.367188 166.964844 C 266.292969 166.554688 266.257812 166.140625 266.265625 165.722656 C 266.273438 165.304688 266.320312 164.894531 266.410156 164.484375 C 266.5 164.078125 266.625 163.683594 266.792969 163.300781 C 266.957031 162.917969 267.160156 162.554688 267.394531 162.210938 C 267.632812 161.867188 267.898438 161.550781 268.199219 161.257812 C 268.5 160.96875 268.824219 160.710938 269.171875 160.480469 C 269.523438 160.253906 269.890625 160.0625 270.277344 159.910156 C 270.664062 159.753906 271.0625 159.636719 271.472656 159.558594 C 271.882812 159.484375 272.296875 159.445312 272.714844 159.449219 C 273.132812 159.460938 273.542969 159.511719 273.949219 159.605469 C 274.355469 159.695312 274.75 159.824219 275.132812 159.996094 C 275.515625 160.164062 275.875 160.367188 276.21875 160.605469 C 276.558594 160.847656 276.875 161.117188 277.164062 161.417969 C 277.449219 161.71875 277.707031 162.046875 277.933594 162.398438 C 278.15625 162.75 278.34375 163.121094 278.496094 163.507812 C 278.648438 163.898438 278.761719 164.296875 278.835938 164.707031 C 278.910156 165.117188 278.941406 165.53125 278.933594 165.949219 C 278.925781 166.367188 278.878906 166.777344 278.789062 167.183594 C 278.703125 167.59375 278.574219 167.988281 278.410156 168.371094 C 278.242188 168.753906 278.042969 169.117188 277.804688 169.460938 C 277.570312 169.804688 277.300781 170.121094 277.003906 170.410156 C 276.703125 170.703125 276.378906 170.960938 276.027344 171.1875 C 275.679688 171.417969 275.308594 171.605469 274.921875 171.761719 C 274.535156 171.917969 274.136719 172.035156 273.726562 172.109375 C 273.316406 172.1875 272.902344 172.222656 272.488281 172.21875 Z M 272.488281 172.21875 " fill-opacity="1" fill-rule="nonzero"/><path fill="#ffffff" d="M 244.765625 154.316406 C 245.816406 154.3125 246.855469 154.207031 247.882812 154.003906 C 248.910156 153.796875 249.910156 153.496094 250.878906 153.09375 C 251.847656 152.695312 252.769531 152.203125 253.644531 151.621094 C 254.519531 151.042969 255.328125 150.382812 256.074219 149.644531 C 256.820312 148.90625 257.484375 148.105469 258.074219 147.234375 C 258.664062 146.367188 259.160156 145.449219 259.570312 144.484375 C 259.980469 143.519531 260.292969 142.523438 260.507812 141.496094 C 260.722656 140.472656 260.839844 139.433594 260.851562 138.382812 C 260.863281 137.335938 260.777344 136.296875 260.585938 135.265625 C 260.398438 134.230469 260.109375 133.230469 259.722656 132.253906 C 259.335938 131.277344 258.863281 130.347656 258.292969 129.464844 C 257.726562 128.585938 257.082031 127.765625 256.355469 127.007812 C 255.628906 126.25 254.835938 125.574219 253.976562 124.972656 C 253.117188 124.371094 252.207031 123.855469 251.25 123.433594 C 250.289062 123.007812 249.296875 122.679688 248.273438 122.449219 C 247.25 122.21875 246.214844 122.085938 245.167969 122.058594 C 244.117188 122.0625 243.078125 122.164062 242.050781 122.371094 C 241.023438 122.578125 240.023438 122.878906 239.054688 123.28125 C 238.085938 123.679688 237.164062 124.171875 236.289062 124.75 C 235.417969 125.332031 234.605469 125.992188 233.859375 126.730469 C 233.117188 127.46875 232.449219 128.269531 231.859375 129.136719 C 231.273438 130.007812 230.773438 130.921875 230.363281 131.890625 C 229.953125 132.855469 229.640625 133.851562 229.425781 134.878906 C 229.210938 135.902344 229.097656 136.941406 229.082031 137.988281 C 229.070312 139.039062 229.160156 140.078125 229.347656 141.109375 C 229.539062 142.140625 229.824219 143.144531 230.210938 144.121094 C 230.597656 145.097656 231.074219 146.023438 231.640625 146.90625 C 232.207031 147.789062 232.855469 148.609375 233.582031 149.367188 C 234.308594 150.121094 235.101562 150.800781 235.957031 151.402344 C 236.816406 152.003906 237.726562 152.519531 238.6875 152.941406 C 239.644531 153.367188 240.636719 153.695312 241.660156 153.925781 C 242.683594 154.15625 243.71875 154.285156 244.765625 154.316406 Z M 240.476562 133.582031 C 240.933594 133.144531 241.445312 132.78125 242.007812 132.496094 C 242.570312 132.207031 243.160156 132.007812 243.78125 131.894531 C 244.402344 131.78125 245.027344 131.757812 245.65625 131.828125 C 246.285156 131.894531 246.890625 132.050781 247.472656 132.296875 C 248.054688 132.542969 248.585938 132.867188 249.074219 133.269531 C 249.5625 133.671875 249.980469 134.136719 250.332031 134.660156 C 250.683594 135.183594 250.953125 135.75 251.140625 136.351562 C 251.324219 136.957031 251.421875 137.574219 251.429688 138.207031 C 251.410156 138.628906 251.355469 139.042969 251.261719 139.457031 C 251.167969 139.867188 251.035156 140.269531 250.867188 140.65625 C 250.695312 141.042969 250.492188 141.410156 250.253906 141.761719 C 250.015625 142.109375 249.746094 142.433594 249.449219 142.730469 C 249.148438 143.03125 248.828125 143.300781 248.476562 143.539062 C 248.128906 143.777344 247.761719 143.980469 247.375 144.152344 C 246.988281 144.320312 246.585938 144.453125 246.175781 144.546875 C 245.761719 144.644531 245.347656 144.699219 244.925781 144.714844 C 244.285156 144.699219 243.664062 144.59375 243.054688 144.398438 C 242.449219 144.199219 241.882812 143.917969 241.355469 143.554688 C 240.832031 143.1875 240.371094 142.757812 239.972656 142.257812 C 239.574219 141.757812 239.257812 141.210938 239.023438 140.617188 C 238.785156 140.023438 238.636719 139.410156 238.582031 138.773438 C 238.527344 138.136719 238.5625 137.503906 238.691406 136.878906 C 238.820312 136.253906 239.039062 135.660156 239.34375 135.097656 C 239.648438 134.539062 240.023438 134.03125 240.476562 133.582031 Z M 240.476562 133.582031 " fill-opacity="1" fill-rule="nonzero"/><path fill="#ffffff" d="M 319.269531 251.175781 C 326.683594 223.507812 322.992188 199.167969 315.113281 165.636719 C 307.261719 131.820312 285.074219 85.113281 241.148438 94.003906 C 220.019531 97.167969 194.878906 108.382812 174.695312 102.621094 C 163.160156 99.710938 151.535156 97.296875 140.082031 94.808594 C 74.671875 80.507812 56.984375 168.695312 54.339844 221.710938 C 52.703125 257.199219 70.789062 286.597656 108.945312 266.007812 C 120.519531 259.5 131.101562 251.652344 140.6875 242.464844 C 143.78125 239.40625 147.203125 236.769531 150.953125 234.5625 C 154.703125 232.351562 158.664062 230.636719 162.839844 229.410156 C 187.988281 223.085938 217.503906 223.820312 238.097656 243.484375 C 257.394531 262.941406 303.933594 293.875 319.269531 251.175781 Z M 283.074219 261.679688 C 254.058594 252.953125 238.90625 222.0625 209.515625 218.28125 C 182.832031 214.082031 155.082031 215.605469 134.171875 235.414062 C 125.183594 244.042969 115.269531 251.417969 104.417969 257.542969 C 37.613281 291.78125 70.386719 155.691406 83.894531 134.546875 C 106.621094 90.621094 131.945312 102.660156 172.332031 111.925781 C 185.851562 115.972656 203.933594 112.945312 219.359375 108.644531 C 244.082031 101.914062 268.019531 96.566406 285.3125 121.007812 C 307.1875 144.28125 337.609375 278.023438 283.074219 261.679688 Z M 283.074219 261.679688 " fill-opacity="1" fill-rule="nonzero"/></svg>