<svg xmlns="http://www.w3.org/2000/svg" xmlns:xlink="http://www.w3.org/1999/xlink" width="500" zoomAndPan="magnify" viewBox="0 0 375 374.999991" height="500" preserveAspectRatio="xMidYMid meet" version="1.0"><defs><clipPath id="05f189509d"><path d="M 39.347656 39.347656 L 337.847656 39.347656 L 337.847656 337.847656 L 39.347656 337.847656 Z M 39.347656 39.347656 " clip-rule="nonzero"/></clipPath></defs><path fill="#ffffff" d="M 259.3125 238.644531 L 226.667969 205.992188 C 232.214844 197.164062 235.433594 186.726562 235.433594 175.523438 C 235.433594 143.832031 209.746094 118.144531 178.054688 118.144531 C 146.367188 118.144531 120.679688 143.832031 120.679688 175.523438 C 120.679688 207.214844 146.367188 232.898438 178.054688 232.898438 C 190.246094 232.898438 201.535156 229.085938 210.828125 222.609375 L 243.085938 254.871094 C 245.328125 257.109375 248.261719 258.226562 251.199219 258.226562 C 254.136719 258.226562 257.074219 257.109375 259.316406 254.871094 C 263.796875 250.390625 263.796875 243.125 259.3125 238.644531 Z M 178.054688 214.3125 C 156.636719 214.3125 139.273438 196.945312 139.273438 175.527344 C 139.273438 154.109375 156.636719 136.742188 178.054688 136.742188 C 199.472656 136.742188 216.839844 154.109375 216.839844 175.527344 C 216.839844 196.945312 199.472656 214.3125 178.054688 214.3125 Z M 178.054688 214.3125 " fill-opacity="1" fill-rule="nonzero"/><g clip-path="url(#05f189509d)"><path fill="#ffffff" d="M 188.453125 337.410156 C 106.277344 337.410156 39.421875 270.550781 39.421875 188.371094 C 39.421875 106.195312 106.277344 39.335938 188.453125 39.335938 C 270.636719 39.335938 337.496094 106.195312 337.496094 188.371094 C 337.496094 270.550781 270.636719 337.410156 188.453125 337.410156 Z M 188.453125 54.035156 C 114.382812 54.035156 54.121094 114.300781 54.121094 188.371094 C 54.121094 262.445312 114.382812 322.710938 188.453125 322.710938 C 262.527344 322.710938 322.796875 262.445312 322.796875 188.371094 C 322.796875 114.300781 262.527344 54.035156 188.453125 54.035156 Z M 188.453125 54.035156 " fill-opacity="1" fill-rule="nonzero"/></g></svg>