<svg xmlns="http://www.w3.org/2000/svg" xmlns:xlink="http://www.w3.org/1999/xlink" width="500" zoomAndPan="magnify" viewBox="0 0 375 374.999991" height="500" preserveAspectRatio="xMidYMid meet" version="1.0"><defs><clipPath id="bda49b0305"><path d="M 39.824219 163.257812 L 187.492188 163.257812 L 187.492188 335.007812 L 39.824219 335.007812 Z M 39.824219 163.257812 " clip-rule="nonzero"/></clipPath><clipPath id="efa752934e"><path d="M 113.660156 335.089844 L 39.824219 292.128906 L 39.824219 206.214844 L 113.660156 163.257812 L 187.492188 206.214844 L 187.492188 292.128906 Z M 113.660156 335.089844 " clip-rule="nonzero"/></clipPath><clipPath id="f612003f9d"><path d="M 184 163.257812 L 331.667969 163.257812 L 331.667969 335.007812 L 184 335.007812 Z M 184 163.257812 " clip-rule="nonzero"/></clipPath><clipPath id="c2097fdd8a"><path d="M 257.835938 335.089844 L 184 292.128906 L 184 206.214844 L 257.835938 163.257812 L 331.667969 206.214844 L 331.667969 292.128906 Z M 257.835938 335.089844 " clip-rule="nonzero"/></clipPath><clipPath id="8bbb7c9847"><path d="M 113.664062 37.5 L 261.332031 37.5 L 261.332031 209.25 L 113.664062 209.25 Z M 113.664062 37.5 " clip-rule="nonzero"/></clipPath><clipPath id="b910e9a4d3"><path d="M 187.496094 209.332031 L 113.664062 166.375 L 113.664062 80.457031 L 187.496094 37.5 L 261.332031 80.457031 L 261.332031 166.375 Z M 187.496094 209.332031 " clip-rule="nonzero"/></clipPath></defs><g clip-path="url(#bda49b0305)"><g clip-path="url(#efa752934e)"><path stroke-linecap="butt" transform="matrix(0, 0.75, -0.75, 0, 187.494031, 163.256502)" fill="none" stroke-linejoin="miter" d="M 229.111137 98.445172 L 171.829884 196.893095 L 57.277793 196.893095 L 0.00174723 98.445172 L 57.277793 0.00245745 L 171.829884 0.00245745 Z M 229.111137 98.445172 " stroke="#ffffff" stroke-width="10" stroke-opacity="1" stroke-miterlimit="4"/></g></g><g clip-path="url(#f612003f9d)"><g clip-path="url(#c2097fdd8a)"><path stroke-linecap="butt" transform="matrix(0, 0.75, -0.75, 0, 331.668703, 163.256502)" fill="none" stroke-linejoin="miter" d="M 229.111137 98.443693 L 171.829884 196.891617 L 57.277793 196.891617 L 0.00174723 98.443693 L 57.277793 0.000978627 L 171.829884 0.000978627 Z M 229.111137 98.443693 " stroke="#ffffff" stroke-width="10" stroke-opacity="1" stroke-miterlimit="4"/></g></g><g clip-path="url(#8bbb7c9847)"><g clip-path="url(#b910e9a4d3)"><path stroke-linecap="butt" transform="matrix(0, 0.75, -0.75, 0, 261.330808, 37.500349)" fill="none" stroke-linejoin="miter" d="M 229.108925 98.446292 L 171.832879 196.889007 L 57.27558 196.889007 L -0.000465517 98.446292 L 57.27558 -0.00163081 L 171.832879 -0.00163081 Z M 229.108925 98.446292 " stroke="#ffffff" stroke-width="10" stroke-opacity="1" stroke-miterlimit="4"/></g></g></svg>