<svg xmlns="http://www.w3.org/2000/svg" xmlns:xlink="http://www.w3.org/1999/xlink" width="500" zoomAndPan="magnify" viewBox="0 0 375 374.999991" height="500" preserveAspectRatio="xMidYMid meet" version="1.0"><defs><clipPath id="e584703b20"><path d="M 37.5 37.5 L 337.5 37.5 L 337.5 337.5 L 37.5 337.5 Z M 37.5 37.5 " clip-rule="nonzero"/></clipPath></defs><g clip-path="url(#e584703b20)"><path fill="#ffffff" d="M 195.871094 229.953125 C 189.363281 236.460938 180.355469 240.496094 170.417969 240.496094 C 160.480469 240.496094 151.472656 236.472656 144.949219 229.953125 C 138.441406 223.429688 134.402344 214.4375 134.402344 204.484375 C 134.402344 194.542969 138.425781 185.539062 144.949219 179.03125 C 151.457031 172.519531 160.464844 168.484375 170.417969 168.484375 C 177.816406 168.484375 184.691406 170.714844 190.421875 174.539062 L 214.027344 150.933594 C 208.847656 146.699219 203.070312 143.226562 196.859375 140.644531 C 188.757812 137.285156 179.820312 135.433594 170.433594 135.433594 C 151.359375 135.433594 134.09375 143.171875 121.613281 155.652344 C 109.117188 168.144531 101.382812 185.410156 101.382812 204.46875 C 101.382812 223.542969 109.117188 240.808594 121.613281 253.289062 C 134.105469 265.78125 151.359375 273.519531 170.433594 273.519531 C 189.492188 273.519531 206.757812 265.78125 219.25 253.289062 C 231.746094 240.792969 239.480469 223.542969 239.480469 204.46875 C 239.480469 201.347656 239.296875 198.414062 238.957031 195.675781 C 238.589844 192.765625 238.027344 189.898438 237.308594 187.078125 C 236.332031 183.335938 238.589844 179.507812 242.332031 178.535156 C 246.074219 177.5625 249.898438 179.820312 250.875 183.5625 C 251.734375 186.90625 252.414062 190.367188 252.863281 193.921875 C 253.316406 197.523438 253.554688 201.054688 253.554688 204.484375 C 253.554688 227.4375 244.253906 248.207031 229.21875 263.253906 C 214.183594 278.289062 193.402344 287.59375 170.460938 287.59375 C 147.503906 287.59375 126.738281 278.289062 111.6875 263.253906 C 96.652344 248.21875 87.347656 227.4375 87.347656 204.484375 C 87.347656 181.542969 96.652344 160.761719 111.6875 145.726562 C 126.722656 130.691406 147.503906 121.386719 170.460938 121.386719 C 181.667969 121.386719 192.398438 123.632812 202.210938 127.699219 C 210.214844 131.015625 217.554688 135.519531 224.035156 140.96875 L 249.460938 115.542969 C 239.609375 106.761719 228.300781 99.617188 215.976562 94.519531 C 201.984375 88.71875 186.609375 85.527344 170.460938 85.527344 C 137.609375 85.527344 107.863281 98.839844 86.332031 120.371094 C 64.804688 141.898438 51.492188 171.644531 51.492188 204.496094 C 51.492188 237.347656 64.804688 267.09375 86.332031 288.625 C 107.863281 310.152344 137.609375 323.46875 170.460938 323.46875 C 203.3125 323.46875 233.058594 310.152344 254.585938 288.625 C 276.117188 267.09375 289.429688 237.347656 289.429688 204.496094 C 289.429688 194.769531 288.285156 185.382812 286.140625 176.472656 C 283.910156 167.226562 280.589844 158.390625 276.328125 150.117188 C 274.550781 146.671875 275.90625 142.4375 279.347656 140.671875 C 282.792969 138.894531 287.03125 140.25 288.792969 143.691406 C 293.550781 152.925781 297.265625 162.808594 299.761719 173.183594 C 302.207031 183.292969 303.503906 193.78125 303.503906 204.511719 C 303.503906 241.246094 288.609375 274.507812 264.539062 298.578125 C 240.457031 322.648438 207.207031 337.542969 170.472656 337.542969 C 133.738281 337.542969 100.480469 322.648438 76.410156 298.578125 C 52.335938 274.492188 37.445312 241.246094 37.445312 204.511719 C 37.445312 167.777344 52.335938 134.515625 76.410156 110.445312 C 100.492188 86.375 133.738281 71.480469 170.472656 71.480469 C 188.445312 71.480469 205.628906 75.066406 221.324219 81.574219 C 234.382812 86.980469 246.382812 94.394531 256.929688 103.402344 L 255.222656 74.8125 C 254.996094 72.640625 255.785156 70.394531 257.539062 68.828125 L 290.757812 39.308594 C 291.546875 38.601562 292.507812 38.066406 293.609375 37.769531 C 297.347656 36.765625 301.203125 38.996094 302.207031 42.738281 L 308.558594 66.425781 L 332.078125 72.722656 C 333.164062 72.992188 334.210938 73.515625 335.113281 74.304688 C 338.007812 76.886719 338.261719 81.320312 335.691406 84.214844 L 306.171875 117.433594 C 304.789062 118.972656 302.742188 119.90625 300.527344 119.761719 L 267.152344 117.773438 L 264.566406 120.355469 L 229.261719 155.652344 L 200.445312 184.480469 C 204.273438 190.195312 206.503906 197.085938 206.503906 204.484375 C 206.503906 214.421875 202.480469 223.429688 195.957031 229.953125 Z M 195.871094 229.953125 " fill-opacity="1" fill-rule="evenodd"/></g></svg>