<svg xmlns="http://www.w3.org/2000/svg" xmlns:xlink="http://www.w3.org/1999/xlink" width="500" zoomAndPan="magnify" viewBox="0 0 375 374.999991" height="500" preserveAspectRatio="xMidYMid meet" version="1.0"><defs><clipPath id="21eb6e226e"><path d="M 54.265625 96 L 232 96 L 232 279 L 54.265625 279 Z M 54.265625 96 " clip-rule="nonzero"/></clipPath><clipPath id="257898b8d4"><path d="M 100 38 L 319.765625 38 L 319.765625 337 L 100 337 Z M 100 38 " clip-rule="nonzero"/></clipPath></defs><g clip-path="url(#21eb6e226e)"><path fill="#ffffff" d="M 54.300781 197.671875 L 196.625 197.671875 L 130.550781 263.746094 L 144.925781 278.160156 L 228.398438 194.6875 C 230.3125 192.777344 231.382812 190.175781 231.382812 187.5 C 231.382812 184.785156 230.3125 182.222656 228.398438 180.3125 L 144.925781 96.839844 L 130.550781 111.253906 L 196.625 177.328125 L 54.300781 177.328125 Z M 54.300781 197.671875 " fill-opacity="1" fill-rule="nonzero"/></g><g clip-path="url(#257898b8d4)"><path fill="#ffffff" d="M 170.546875 38.488281 C 146.648438 38.488281 123.78125 43.953125 102.636719 54.8125 L 111.925781 72.9375 C 130.167969 63.609375 149.898438 58.867188 170.546875 58.867188 C 241.515625 58.867188 299.214844 116.605469 299.214844 187.539062 C 299.214844 258.46875 241.515625 316.207031 170.546875 316.207031 C 149.589844 316.207031 128.789062 311.046875 110.398438 301.296875 L 100.875 319.304688 C 122.175781 330.585938 146.304688 336.550781 170.546875 336.550781 C 252.71875 336.550781 319.597656 269.710938 319.597656 187.539062 C 319.597656 105.328125 252.71875 38.488281 170.546875 38.488281 Z M 170.546875 38.488281 " fill-opacity="1" fill-rule="nonzero"/></g></svg>