<svg xmlns="http://www.w3.org/2000/svg" xmlns:xlink="http://www.w3.org/1999/xlink" width="500" zoomAndPan="magnify" viewBox="0 0 375 374.999991" height="500" preserveAspectRatio="xMidYMid meet" version="1.0"><defs><clipPath id="1aaf3c4b9f"><path d="M 58.59375 37.5 L 316.40625 37.5 L 316.40625 337.609375 L 58.59375 337.609375 Z M 58.59375 37.5 " clip-rule="nonzero"/></clipPath><clipPath id="493e73a7cc"><path d="M 187.5 337.5 L 58.59375 262.5 L 58.59375 112.5 L 187.5 37.5 L 316.40625 112.5 L 316.40625 262.5 Z M 187.5 337.5 " clip-rule="nonzero"/></clipPath><clipPath id="5334c31907"><path d="M 0.59375 0.5 L 258.40625 0.5 L 258.40625 300.609375 L 0.59375 300.609375 Z M 0.59375 0.5 " clip-rule="nonzero"/></clipPath><clipPath id="a71e8a0d7e"><path d="M 129.5 300.5 L 0.59375 225.5 L 0.59375 75.5 L 129.5 0.5 L 258.40625 75.5 L 258.40625 225.5 Z M 129.5 300.5 " clip-rule="nonzero"/></clipPath><clipPath id="09d1a35cc2"><rect x="0" width="259" y="0" height="301"/></clipPath></defs><g clip-path="url(#1aaf3c4b9f)"><g clip-path="url(#493e73a7cc)"><g transform="matrix(1, 0, 0, 1, 58, 37)"><g clip-path="url(#09d1a35cc2)"><g clip-path="url(#5334c31907)"><g clip-path="url(#a71e8a0d7e)"><path fill="#ffffff" d="M 258.40625 0.5 L 258.40625 300.609375 L 0.59375 300.609375 L 0.59375 0.5 Z M 258.40625 0.5 " fill-opacity="1" fill-rule="nonzero"/></g></g></g></g></g></g></svg>