<svg xmlns="http://www.w3.org/2000/svg" xmlns:xlink="http://www.w3.org/1999/xlink" width="500" zoomAndPan="magnify" viewBox="0 0 375 374.999991" height="500" preserveAspectRatio="xMidYMid meet" version="1.0"><defs><clipPath id="d3be15da14"><path d="M 67.875 37.5 L 307.125 37.5 L 307.125 338 L 67.875 338 Z M 67.875 37.5 " clip-rule="nonzero"/></clipPath><clipPath id="8878efe9e9"><path d="M 71.625 37.5 L 303.375 37.5 C 304.371094 37.5 305.324219 37.894531 306.027344 38.597656 C 306.730469 39.300781 307.125 40.253906 307.125 41.25 L 307.125 333.75 C 307.125 334.746094 306.730469 335.699219 306.027344 336.402344 C 305.324219 337.105469 304.371094 337.5 303.375 337.5 L 71.625 337.5 C 70.628906 337.5 69.675781 337.105469 68.972656 336.402344 C 68.269531 335.699219 67.875 334.746094 67.875 333.75 L 67.875 41.25 C 67.875 40.253906 68.269531 39.300781 68.972656 38.597656 C 69.675781 37.894531 70.628906 37.5 71.625 37.5 Z M 71.625 37.5 " clip-rule="nonzero"/></clipPath><clipPath id="f37310ac82"><path d="M 0.875 0.5 L 240.125 0.5 L 240.125 300.679688 L 0.875 300.679688 Z M 0.875 0.5 " clip-rule="nonzero"/></clipPath><clipPath id="8fa84fff58"><path d="M 4.625 0.5 L 236.375 0.5 C 237.371094 0.5 238.324219 0.894531 239.027344 1.597656 C 239.730469 2.300781 240.125 3.253906 240.125 4.25 L 240.125 296.75 C 240.125 297.746094 239.730469 298.699219 239.027344 299.402344 C 238.324219 300.105469 237.371094 300.5 236.375 300.5 L 4.625 300.5 C 3.628906 300.5 2.675781 300.105469 1.972656 299.402344 C 1.269531 298.699219 0.875 297.746094 0.875 296.75 L 0.875 4.25 C 0.875 3.253906 1.269531 2.300781 1.972656 1.597656 C 2.675781 0.894531 3.628906 0.5 4.625 0.5 Z M 4.625 0.5 " clip-rule="nonzero"/></clipPath><clipPath id="308482a16e"><rect x="0" width="241" y="0" height="301"/></clipPath><clipPath id="12abdf3fd5"><path d="M 67.875 37.5 L 307.125 37.5 L 307.125 337.5 L 67.875 337.5 Z M 67.875 37.5 " clip-rule="nonzero"/></clipPath><clipPath id="779efc5f4c"><path d="M 0.921875 0.5 L 240.125 0.5 L 240.125 300.5 L 0.921875 300.5 Z M 0.921875 0.5 " clip-rule="nonzero"/></clipPath><clipPath id="335d6b524a"><rect x="0" width="241" y="0" height="301"/></clipPath><clipPath id="c79883d0d5"><path d="M 119.792969 191.648438 L 182.933594 191.648438 L 182.933594 245.886719 L 119.792969 245.886719 Z M 119.792969 191.648438 " clip-rule="nonzero"/></clipPath><clipPath id="1b290fd998"><path d="M 182.910156 218.765625 L 167.132812 245.886719 L 135.574219 245.886719 L 119.792969 218.765625 L 135.574219 191.648438 L 167.132812 191.648438 Z M 182.910156 218.765625 " clip-rule="nonzero"/></clipPath><clipPath id="0c2bd01867"><path d="M 0.792969 0.648438 L 63.933594 0.648438 L 63.933594 54.886719 L 0.792969 54.886719 Z M 0.792969 0.648438 " clip-rule="nonzero"/></clipPath><clipPath id="ee1833d0cb"><path d="M 63.910156 27.765625 L 48.132812 54.886719 L 16.574219 54.886719 L 0.792969 27.765625 L 16.574219 0.648438 L 48.132812 0.648438 Z M 63.910156 27.765625 " clip-rule="nonzero"/></clipPath><clipPath id="e218d11536"><rect x="0" width="64" y="0" height="55"/></clipPath><clipPath id="9a8b0fb3b1"><path d="M 182.910156 191.648438 L 246.046875 191.648438 L 246.046875 245.886719 L 182.910156 245.886719 Z M 182.910156 191.648438 " clip-rule="nonzero"/></clipPath><clipPath id="98ba1efb88"><path d="M 246.027344 218.765625 L 230.246094 245.886719 L 198.6875 245.886719 L 182.910156 218.765625 L 198.6875 191.648438 L 230.246094 191.648438 Z M 246.027344 218.765625 " clip-rule="nonzero"/></clipPath><clipPath id="8620dcb223"><path d="M 0.910156 0.648438 L 64.046875 0.648438 L 64.046875 54.886719 L 0.910156 54.886719 Z M 0.910156 0.648438 " clip-rule="nonzero"/></clipPath><clipPath id="66d01be5b1"><path d="M 64.027344 27.765625 L 48.246094 54.886719 L 16.6875 54.886719 L 0.910156 27.765625 L 16.6875 0.648438 L 48.246094 0.648438 Z M 64.027344 27.765625 " clip-rule="nonzero"/></clipPath><clipPath id="459742e59c"><rect x="0" width="65" y="0" height="55"/></clipPath><clipPath id="ce048b92d2"><path d="M 151.351562 137.40625 L 214.492188 137.40625 L 214.492188 191.648438 L 151.351562 191.648438 Z M 151.351562 137.40625 " clip-rule="nonzero"/></clipPath><clipPath id="43a809f80b"><path d="M 214.46875 164.527344 L 198.6875 191.648438 L 167.132812 191.648438 L 151.351562 164.527344 L 167.132812 137.40625 L 198.6875 137.40625 Z M 214.46875 164.527344 " clip-rule="nonzero"/></clipPath><clipPath id="529375311e"><path d="M 0.351562 0.40625 L 63.492188 0.40625 L 63.492188 54.648438 L 0.351562 54.648438 Z M 0.351562 0.40625 " clip-rule="nonzero"/></clipPath><clipPath id="05edf02f2c"><path d="M 63.46875 27.527344 L 47.6875 54.648438 L 16.132812 54.648438 L 0.351562 27.527344 L 16.132812 0.40625 L 47.6875 0.40625 Z M 63.46875 27.527344 " clip-rule="nonzero"/></clipPath><clipPath id="4f28d55111"><rect x="0" width="64" y="0" height="55"/></clipPath></defs><g clip-path="url(#d3be15da14)"><g clip-path="url(#8878efe9e9)"><g transform="matrix(1, 0, 0, 1, 67, 37)"><g clip-path="url(#308482a16e)"><g clip-path="url(#f37310ac82)"><g clip-path="url(#8fa84fff58)"><path fill="#545454" d="M 0.875 0.5 L 240.125 0.5 L 240.125 300.496094 L 0.875 300.496094 Z M 0.875 0.5 " fill-opacity="1" fill-rule="nonzero"/></g></g></g></g></g></g><g clip-path="url(#12abdf3fd5)"><g transform="matrix(1, 0, 0, 1, 67, 37)"><g clip-path="url(#335d6b524a)"><g clip-path="url(#779efc5f4c)"><path fill="#d9d9d9" d="M 0.96875 65.890625 L 0.96875 64.953125 C 0.96875 64.953125 0.96875 64.484375 1.203125 64.25 L 1.203125 64.015625 C 1.203125 63.78125 1.4375 63.546875 1.4375 63.3125 L 1.4375 63.078125 C 1.671875 62.84375 1.90625 62.609375 1.90625 62.375 L 62.84375 1.4375 C 63.078125 1.203125 63.3125 0.96875 63.546875 0.96875 L 63.78125 0.96875 C 64.015625 0.734375 64.25 0.734375 64.484375 0.734375 L 64.71875 0.734375 C 64.953125 0.734375 65.1875 0.5 65.421875 0.5 C 65.65625 0.5 66.125 0.5 66.359375 0.5 L 225.96875 0.5 C 233.703125 0.5 240.03125 6.828125 240.03125 14.5625 L 240.03125 286.4375 C 240.03125 294.171875 233.703125 300.5 225.96875 300.5 L 15.03125 300.5 C 7.296875 300.5 0.96875 294.171875 0.96875 286.4375 Z M 10.34375 286.203125 C 10.34375 288.78125 12.453125 290.890625 15.03125 290.890625 L 225.96875 290.890625 C 228.546875 290.890625 230.65625 288.78125 230.65625 286.203125 L 230.65625 14.328125 C 230.65625 11.75 228.546875 9.640625 225.96875 9.640625 L 71.28125 9.640625 L 71.28125 50.1875 C 71.28125 61.4375 62.140625 70.578125 50.890625 70.578125 L 10.34375 70.578125 Z M 10.34375 286.203125 " fill-opacity="1" fill-rule="nonzero"/></g></g></g></g><g clip-path="url(#c79883d0d5)"><g clip-path="url(#1b290fd998)"><g transform="matrix(1, 0, 0, 1, 119, 191)"><g clip-path="url(#e218d11536)"><g clip-path="url(#0c2bd01867)"><g clip-path="url(#ee1833d0cb)"><path fill="#62b4f7" d="M 0.792969 0.648438 L 63.933594 0.648438 L 63.933594 54.886719 L 0.792969 54.886719 Z M 0.792969 0.648438 " fill-opacity="1" fill-rule="nonzero"/></g></g></g></g></g></g><g clip-path="url(#9a8b0fb3b1)"><g clip-path="url(#98ba1efb88)"><g transform="matrix(1, 0, 0, 1, 182, 191)"><g clip-path="url(#459742e59c)"><g clip-path="url(#8620dcb223)"><g clip-path="url(#66d01be5b1)"><path fill="#9d7fce" d="M 0.910156 0.648438 L 64.046875 0.648438 L 64.046875 54.886719 L 0.910156 54.886719 Z M 0.910156 0.648438 " fill-opacity="1" fill-rule="nonzero"/></g></g></g></g></g></g><g clip-path="url(#ce048b92d2)"><g clip-path="url(#43a809f80b)"><g transform="matrix(1, 0, 0, 1, 151, 137)"><g clip-path="url(#4f28d55111)"><g clip-path="url(#529375311e)"><g clip-path="url(#05edf02f2c)"><path fill="#7fc783" d="M 0.351562 0.40625 L 63.492188 0.40625 L 63.492188 54.648438 L 0.351562 54.648438 Z M 0.351562 0.40625 " fill-opacity="1" fill-rule="nonzero"/></g></g></g></g></g></g></svg>