<svg xmlns="http://www.w3.org/2000/svg" xmlns:xlink="http://www.w3.org/1999/xlink" width="500" zoomAndPan="magnify" viewBox="0 0 375 374.999991" height="500" preserveAspectRatio="xMidYMid meet" version="1.0"><defs><clipPath id="876d415afe"><path d="M 0.875 0.5 L 240.125 0.5 L 240.125 301 L 0.875 301 Z M 0.875 0.5 " clip-rule="nonzero"/></clipPath><clipPath id="a2ef98e233"><path d="M 4.625 0.5 L 236.375 0.5 C 237.371094 0.5 238.324219 0.894531 239.027344 1.597656 C 239.730469 2.300781 240.125 3.253906 240.125 4.25 L 240.125 296.75 C 240.125 297.746094 239.730469 298.699219 239.027344 299.402344 C 238.324219 300.105469 237.371094 300.5 236.375 300.5 L 4.625 300.5 C 3.628906 300.5 2.675781 300.105469 1.972656 299.402344 C 1.269531 298.699219 0.875 297.746094 0.875 296.75 L 0.875 4.25 C 0.875 3.253906 1.269531 2.300781 1.972656 1.597656 C 2.675781 0.894531 3.628906 0.5 4.625 0.5 Z M 4.625 0.5 " clip-rule="nonzero"/></clipPath><clipPath id="7dc7a0e5cd"><path d="M 0.875 0.5 L 240.125 0.5 L 240.125 300.679688 L 0.875 300.679688 Z M 0.875 0.5 " clip-rule="nonzero"/></clipPath><clipPath id="5433f0f0c7"><path d="M 4.625 0.5 L 236.375 0.5 C 237.371094 0.5 238.324219 0.894531 239.027344 1.597656 C 239.730469 2.300781 240.125 3.253906 240.125 4.25 L 240.125 296.75 C 240.125 297.746094 239.730469 298.699219 239.027344 299.402344 C 238.324219 300.105469 237.371094 300.5 236.375 300.5 L 4.625 300.5 C 3.628906 300.5 2.675781 300.105469 1.972656 299.402344 C 1.269531 298.699219 0.875 297.746094 0.875 296.75 L 0.875 4.25 C 0.875 3.253906 1.269531 2.300781 1.972656 1.597656 C 2.675781 0.894531 3.628906 0.5 4.625 0.5 Z M 4.625 0.5 " clip-rule="nonzero"/></clipPath><clipPath id="36df055f95"><rect x="0" width="241" y="0" height="301"/></clipPath><clipPath id="87afc669e1"><path d="M 0.875 0.5 L 240.199219 0.5 L 240.199219 299.414062 L 0.875 299.414062 Z M 0.875 0.5 " clip-rule="nonzero"/></clipPath><clipPath id="7ee9ff8bcd"><path d="M 0.921875 0.5 L 240.117188 0.5 L 240.117188 299.414062 L 0.921875 299.414062 Z M 0.921875 0.5 " clip-rule="nonzero"/></clipPath><clipPath id="c48f30b78c"><rect x="0" width="241" y="0" height="300"/></clipPath><clipPath id="1e9e91ed1c"><path d="M 22.179688 207.980469 L 85.316406 207.980469 L 85.316406 262.21875 L 22.179688 262.21875 Z M 22.179688 207.980469 " clip-rule="nonzero"/></clipPath><clipPath id="350f27bbaf"><path d="M 85.292969 235.097656 L 69.515625 262.21875 L 37.957031 262.21875 L 22.179688 235.097656 L 37.957031 207.980469 L 69.515625 207.980469 Z M 85.292969 235.097656 " clip-rule="nonzero"/></clipPath><clipPath id="e49d2ce758"><path d="M 0.179688 0.980469 L 63.316406 0.980469 L 63.316406 55.21875 L 0.179688 55.21875 Z M 0.179688 0.980469 " clip-rule="nonzero"/></clipPath><clipPath id="c0283cf700"><path d="M 63.292969 28.097656 L 47.515625 55.21875 L 15.957031 55.21875 L 0.179688 28.097656 L 15.957031 0.980469 L 47.515625 0.980469 Z M 63.292969 28.097656 " clip-rule="nonzero"/></clipPath><clipPath id="8b4926f0f9"><rect x="0" width="64" y="0" height="56"/></clipPath><clipPath id="d58ccef59d"><path d="M 66.066406 180.859375 L 129.207031 180.859375 L 129.207031 235.097656 L 66.066406 235.097656 Z M 66.066406 180.859375 " clip-rule="nonzero"/></clipPath><clipPath id="21cfe0b0a5"><path d="M 129.183594 207.980469 L 113.402344 235.097656 L 81.84375 235.097656 L 66.066406 207.980469 L 81.84375 180.859375 L 113.402344 180.859375 Z M 129.183594 207.980469 " clip-rule="nonzero"/></clipPath><clipPath id="5f67e7adf3"><path d="M 0.0664062 0.859375 L 63.207031 0.859375 L 63.207031 55.097656 L 0.0664062 55.097656 Z M 0.0664062 0.859375 " clip-rule="nonzero"/></clipPath><clipPath id="80cd180ac1"><path d="M 63.183594 27.980469 L 47.402344 55.097656 L 15.84375 55.097656 L 0.0664062 27.980469 L 15.84375 0.859375 L 47.402344 0.859375 Z M 63.183594 27.980469 " clip-rule="nonzero"/></clipPath><clipPath id="f5fe6cfe65"><rect x="0" width="64" y="0" height="56"/></clipPath><clipPath id="d136bb121b"><path d="M 22.179688 153.738281 L 85.316406 153.738281 L 85.316406 207.980469 L 22.179688 207.980469 Z M 22.179688 153.738281 " clip-rule="nonzero"/></clipPath><clipPath id="5afedc29b3"><path d="M 85.292969 180.859375 L 69.515625 207.980469 L 37.957031 207.980469 L 22.179688 180.859375 L 37.957031 153.738281 L 69.515625 153.738281 Z M 85.292969 180.859375 " clip-rule="nonzero"/></clipPath><clipPath id="5684b6b055"><path d="M 0.179688 0.738281 L 63.316406 0.738281 L 63.316406 54.980469 L 0.179688 54.980469 Z M 0.179688 0.738281 " clip-rule="nonzero"/></clipPath><clipPath id="bfae22637e"><path d="M 63.292969 27.859375 L 47.515625 54.980469 L 15.957031 54.980469 L 0.179688 27.859375 L 15.957031 0.738281 L 47.515625 0.738281 Z M 63.292969 27.859375 " clip-rule="nonzero"/></clipPath><clipPath id="afca9f534a"><rect x="0" width="64" y="0" height="55"/></clipPath><clipPath id="a273cbfb26"><rect x="0" width="241" y="0" height="303"/></clipPath></defs><g transform="matrix(1, 0, 0, 1, 67, 37)"><g clip-path="url(#a273cbfb26)"><g clip-path="url(#876d415afe)"><g clip-path="url(#a2ef98e233)"><g transform="matrix(1, 0, 0, 1, 0, -0.000000000000007105)"><g clip-path="url(#36df055f95)"><g clip-path="url(#7dc7a0e5cd)"><g clip-path="url(#5433f0f0c7)"><path fill="#545454" d="M 0.875 0.5 L 240.125 0.5 L 240.125 300.496094 L 0.875 300.496094 Z M 0.875 0.5 " fill-opacity="1" fill-rule="nonzero"/></g></g></g></g></g></g><g clip-path="url(#87afc669e1)"><g transform="matrix(1, 0, 0, 1, 0, -0.000000000000007105)"><g clip-path="url(#c48f30b78c)"><g clip-path="url(#7ee9ff8bcd)"><path fill="#d9d9d9" d="M 0.980469 65.882812 L 0.980469 64.945312 C 0.980469 64.945312 0.980469 64.476562 1.214844 64.242188 L 1.214844 64.007812 C 1.214844 63.773438 1.449219 63.539062 1.449219 63.304688 L 1.449219 63.070312 C 1.683594 62.835938 1.917969 62.601562 1.917969 62.367188 L 62.847656 1.4375 C 63.082031 1.203125 63.316406 0.96875 63.550781 0.96875 L 63.785156 0.96875 C 64.019531 0.734375 64.253906 0.734375 64.488281 0.734375 L 64.722656 0.734375 C 64.957031 0.734375 65.191406 0.5 65.425781 0.5 C 65.660156 0.5 66.128906 0.5 66.363281 0.5 L 225.949219 0.5 C 233.683594 0.5 240.007812 6.828125 240.007812 14.558594 L 240.007812 286.398438 C 240.007812 294.128906 233.683594 300.457031 225.949219 300.457031 L 15.042969 300.457031 C 7.308594 300.457031 0.980469 294.128906 0.980469 286.398438 Z M 10.355469 286.164062 C 10.355469 288.742188 12.464844 290.847656 15.042969 290.847656 L 225.949219 290.847656 C 228.527344 290.847656 230.636719 288.742188 230.636719 286.164062 L 230.636719 14.324219 C 230.636719 11.75 228.527344 9.640625 225.949219 9.640625 L 71.285156 9.640625 L 71.285156 50.179688 C 71.285156 61.429688 62.144531 70.566406 50.894531 70.566406 L 10.355469 70.566406 Z M 10.355469 286.164062 " fill-opacity="1" fill-rule="nonzero"/></g></g></g></g><g clip-path="url(#1e9e91ed1c)"><g clip-path="url(#350f27bbaf)"><g transform="matrix(1, 0, 0, 1, 22, 207)"><g clip-path="url(#8b4926f0f9)"><g clip-path="url(#e49d2ce758)"><g clip-path="url(#c0283cf700)"><path fill="#d2404a" d="M 0.179688 0.980469 L 63.316406 0.980469 L 63.316406 55.21875 L 0.179688 55.21875 Z M 0.179688 0.980469 " fill-opacity="1" fill-rule="nonzero"/></g></g></g></g></g></g><g clip-path="url(#d58ccef59d)"><g clip-path="url(#21cfe0b0a5)"><g transform="matrix(1, 0, 0, 1, 66, 180)"><g clip-path="url(#f5fe6cfe65)"><g clip-path="url(#5f67e7adf3)"><g clip-path="url(#80cd180ac1)"><path fill="#fea92a" d="M 0.0664062 0.859375 L 63.207031 0.859375 L 63.207031 55.097656 L 0.0664062 55.097656 Z M 0.0664062 0.859375 " fill-opacity="1" fill-rule="nonzero"/></g></g></g></g></g></g><g clip-path="url(#d136bb121b)"><g clip-path="url(#5afedc29b3)"><g transform="matrix(1, 0, 0, 1, 22, 153)"><g clip-path="url(#afca9f534a)"><g clip-path="url(#5684b6b055)"><g clip-path="url(#bfae22637e)"><path fill="#28a69a" d="M 0.179688 0.738281 L 63.316406 0.738281 L 63.316406 54.980469 L 0.179688 54.980469 Z M 0.179688 0.738281 " fill-opacity="1" fill-rule="nonzero"/></g></g></g></g></g></g></g></g></svg>