<svg xmlns="http://www.w3.org/2000/svg" xmlns:xlink="http://www.w3.org/1999/xlink" width="500" zoomAndPan="magnify" viewBox="0 0 375 374.999991" height="500" preserveAspectRatio="xMidYMid meet" version="1.0"><defs><clipPath id="ed3bc80de5"><path d="M 37.5 37.5 L 337.5 37.5 L 337.5 337.5 L 37.5 337.5 Z M 37.5 37.5 " clip-rule="nonzero"/></clipPath></defs><g clip-path="url(#ed3bc80de5)"><path fill="#ffffff" d="M 223.527344 322.394531 C 231.835938 314.941406 239.445312 304.84375 246.046875 292.316406 C 249.632812 285.507812 252.820312 278.152344 255.605469 270.363281 C 267.730469 273.863281 278.894531 278.308594 288.691406 283.601562 C 271.203125 302.003906 248.761719 315.652344 223.527344 322.394531 Z M 86.308594 283.601562 C 96.105469 278.308594 107.269531 273.863281 119.394531 270.363281 C 122.179688 278.152344 125.367188 285.507812 128.957031 292.316406 C 135.554688 304.84375 143.164062 314.941406 151.472656 322.394531 C 126.238281 315.652344 103.796875 302.003906 86.308594 283.601562 Z M 151.472656 52.605469 C 143.164062 60.058594 135.554688 70.160156 128.957031 82.683594 C 125.367188 89.492188 122.179688 96.851562 119.394531 104.636719 C 107.269531 101.136719 96.105469 96.691406 86.308594 91.398438 C 103.796875 72.996094 126.238281 59.347656 151.472656 52.605469 Z M 288.691406 91.398438 C 278.894531 96.691406 267.730469 101.136719 255.605469 104.636719 C 252.820312 96.847656 249.632812 89.492188 246.046875 82.683594 C 239.445312 70.160156 231.835938 60.058594 223.527344 52.605469 C 248.761719 59.347656 271.203125 72.996094 288.691406 91.398438 Z M 268.925781 182.308594 C 268.488281 158.195312 265.003906 135.074219 258.828125 114.488281 C 272.40625 110.546875 284.871094 105.46875 295.710938 99.378906 C 314.308594 122.175781 325.863281 150.9375 327.011719 182.308594 Z M 268.925781 192.691406 L 327.011719 192.691406 C 325.863281 224.0625 314.308594 252.824219 295.710938 275.625 C 284.871094 269.535156 272.40625 264.453125 258.828125 260.511719 C 265.003906 239.929688 268.488281 216.804688 268.925781 192.691406 Z M 192.691406 250.871094 L 192.691406 192.691406 L 258.546875 192.691406 C 258.105469 215.941406 254.746094 238.164062 248.796875 257.847656 C 231.28125 253.636719 212.246094 251.234375 192.691406 250.871094 Z M 192.691406 326.742188 L 192.691406 261.253906 C 211.136719 261.609375 229.046875 263.835938 245.519531 267.726562 C 242.972656 274.722656 240.09375 281.34375 236.863281 287.476562 C 224.664062 310.621094 209.144531 324.347656 192.691406 326.742188 Z M 182.308594 261.253906 L 182.308594 326.742188 C 165.855469 324.347656 150.335938 310.621094 138.136719 287.476562 C 134.910156 281.34375 132.027344 274.722656 129.480469 267.722656 C 145.953125 263.835938 163.863281 261.609375 182.308594 261.253906 Z M 116.453125 192.691406 L 182.308594 192.691406 L 182.308594 250.871094 C 162.753906 251.234375 143.71875 253.636719 126.203125 257.847656 C 120.253906 238.164062 116.894531 215.941406 116.453125 192.691406 Z M 106.074219 192.691406 C 106.511719 216.804688 109.996094 239.925781 116.171875 260.511719 C 102.59375 264.453125 90.128906 269.535156 79.289062 275.625 C 60.691406 252.824219 49.140625 224.0625 47.988281 192.691406 Z M 106.074219 182.308594 L 47.988281 182.308594 C 49.140625 150.9375 60.691406 122.175781 79.289062 99.378906 C 90.128906 105.464844 102.59375 110.546875 116.171875 114.488281 C 109.996094 135.074219 106.511719 158.195312 106.074219 182.308594 Z M 182.308594 124.128906 L 182.308594 182.308594 L 116.453125 182.308594 C 116.894531 159.058594 120.253906 136.835938 126.203125 117.152344 C 143.71875 121.363281 162.753906 123.765625 182.308594 124.128906 Z M 182.308594 48.257812 L 182.308594 113.746094 C 163.867188 113.390625 145.953125 111.164062 129.480469 107.277344 C 132.027344 100.277344 134.910156 93.65625 138.136719 87.523438 C 150.335938 64.378906 165.855469 50.652344 182.308594 48.257812 Z M 192.691406 113.746094 L 192.691406 48.257812 C 209.144531 50.652344 224.664062 64.378906 236.863281 87.523438 C 240.09375 93.65625 242.972656 100.277344 245.519531 107.277344 C 229.046875 111.164062 211.132812 113.390625 192.691406 113.746094 Z M 192.691406 124.128906 C 212.246094 123.765625 231.28125 121.363281 248.796875 117.152344 C 254.746094 136.835938 258.105469 159.058594 258.546875 182.308594 L 192.691406 182.308594 Z M 187.5 37.5 C 104.789062 37.5 37.5 104.789062 37.5 187.5 C 37.5 270.210938 104.789062 337.5 187.5 337.5 C 270.210938 337.5 337.5 270.210938 337.5 187.5 C 337.5 104.789062 270.210938 37.5 187.5 37.5 " fill-opacity="1" fill-rule="nonzero"/></g></svg>