<svg xmlns="http://www.w3.org/2000/svg" xmlns:xlink="http://www.w3.org/1999/xlink" width="500" zoomAndPan="magnify" viewBox="0 0 375 374.999991" height="500" preserveAspectRatio="xMidYMid meet" version="1.0"><defs><clipPath id="51b6a1cc9b"><path d="M 37.5 57 L 337.5 57 L 337.5 318 L 37.5 318 Z M 37.5 57 " clip-rule="nonzero"/></clipPath></defs><g clip-path="url(#51b6a1cc9b)"><path fill="#ffffff" d="M 187.503906 317.078125 C 185.367188 317.078125 183.347656 316.105469 182.011719 314.433594 C 166.152344 294.59375 139.753906 276.230469 54.746094 276.230469 C 44.914062 276.230469 37.5 268.289062 37.5 257.753906 L 37.5 75.167969 C 37.5 65.644531 45.21875 57.921875 54.703125 57.921875 C 127.707031 58.25 169.753906 73.4375 187.5 106.640625 C 205.25 73.4375 247.285156 58.25 320.226562 57.921875 C 329.78125 57.921875 337.5 65.640625 337.5 75.128906 L 337.5 258.984375 C 337.5 268.492188 329.765625 276.226562 320.253906 276.226562 C 235.265625 276.226562 208.863281 294.589844 192.988281 314.433594 C 191.660156 316.105469 189.640625 317.078125 187.503906 317.078125 Z M 54.714844 71.984375 C 52.972656 71.984375 51.5625 73.394531 51.5625 75.128906 L 51.5625 257.753906 C 51.5625 258.789062 51.792969 262.167969 54.746094 262.167969 C 123.042969 262.167969 162.457031 273.042969 187.503906 299.359375 C 212.566406 273.042969 251.976562 262.167969 320.257812 262.167969 C 322.015625 262.167969 323.441406 260.742188 323.441406 258.988281 L 323.441406 75.167969 C 323.441406 73.394531 322.03125 71.984375 320.296875 71.984375 C 242.886719 72.332031 204.035156 89.59375 194.316406 127.953125 C 193.527344 131.070312 190.71875 133.257812 187.5 133.257812 C 184.285156 133.257812 181.476562 131.070312 180.683594 127.953125 C 170.96875 89.59375 132.117188 72.332031 54.714844 71.984375 Z M 54.714844 71.984375 " fill-opacity="1" fill-rule="evenodd"/></g><path fill="#ffffff" d="M 187.503906 317.078125 C 183.621094 317.078125 180.472656 313.929688 180.472656 310.046875 L 180.472656 171.171875 C 180.472656 167.289062 183.621094 164.140625 187.503906 164.140625 C 191.390625 164.140625 194.535156 167.289062 194.535156 171.171875 L 194.535156 310.042969 C 194.535156 313.929688 191.386719 317.078125 187.503906 317.078125 Z M 187.503906 317.078125 " fill-opacity="1" fill-rule="evenodd"/></svg>