<svg xmlns="http://www.w3.org/2000/svg" xmlns:xlink="http://www.w3.org/1999/xlink" width="500" zoomAndPan="magnify" viewBox="0 0 375 374.999991" height="500" preserveAspectRatio="xMidYMid meet" version="1.0"><path stroke-linecap="square" transform="matrix(1.875, 0, 0, 1.875, 0.0000045, -0.000000000000063949)" fill="none" stroke-linejoin="round" d="M 175.683342 100.000007 C 177.491676 103.725007 178.862509 107.67084 179.533343 111.764591 C 183.664593 136.962509 159.610425 154.31876 139.597923 163.570844 C 135.904173 165.279178 132.135423 166.825011 128.316673 168.233344 C 123.379172 170.052095 118.358339 171.637511 113.281255 173.016678 C 106.822921 174.770845 100.272921 176.193762 93.670837 177.287512 C 85.38542 178.658345 77.006253 179.522928 68.610419 179.733345 C 57.408335 180.016678 45.577084 179.416678 34.964583 175.497928 C 29.91875 173.635428 24.712499 170.762511 21.920832 165.972928 C 16.197915 156.15001 24.202083 144.489593 30.391666 137.095842 C 31.754166 135.470842 33.172916 133.893759 34.63125 132.356259 C 36.514583 130.370842 38.464583 128.450008 40.460417 126.575008 C 52.727084 115.064591 66.477085 105.150007 80.333336 95.660423 C 100.810421 81.637505 122.012506 68.727088 142.806257 55.187504 C 153.245841 48.39167 164.045842 41.591669 173.300009 33.193752 C 175.460426 31.235419 177.720843 29.100002 179.158343 26.527085 C 179.762509 25.443752 180.314593 24.052085 179.800009 22.825001 C 179.306259 21.652085 178.014593 21.077085 176.866676 20.756251 C 174.160426 20.004168 171.187509 20.147918 168.418759 20.358335 C 156.627091 21.260418 144.91459 24.685418 133.712506 28.285419 C 104.716671 37.600002 75.727086 50.743753 51.520834 69.433338 C 39.685417 78.570838 27.852083 89.900006 22.502082 104.212507 C 21.247916 107.568757 20.399999 111.085424 20.110416 114.660424 C 18.170832 138.712509 41.470834 154.872927 60.695835 163.706261 C 64.470835 165.441678 68.322919 167.008344 72.225002 168.431261 C 77.172919 170.233345 82.202086 171.806261 87.287503 173.170845 C 93.750004 174.906261 100.302088 176.308345 106.906255 177.381262 C 115.104172 178.712512 123.393756 179.550012 131.700006 179.741678 C 143.337507 180.010428 155.845841 179.381262 166.725009 174.835428 C 171.906259 172.670845 177.139593 169.208344 179.143759 163.706261 C 182.764593 153.772927 174.795842 143.091676 168.714592 136.045842 C 167.302092 134.410425 165.833342 132.822925 164.329175 131.272925 C 162.439592 129.329175 160.491675 127.447925 158.500008 125.610425 C 146.389591 114.429174 132.925006 104.729174 119.339589 95.437506 C 99.541671 81.893755 79.072919 69.375005 58.950001 56.32917 C 48.008334 49.237503 36.68125 42.162503 26.952083 33.420836 C 24.695833 31.395835 22.314582 29.183335 20.827082 26.502085 C 20.208332 25.383335 19.652082 23.929168 20.262499 22.689585 C 21.883332 19.400001 28.431249 20.135418 31.2625 20.335418 C 42.59375 21.137501 53.860418 24.370835 64.645835 27.762502 C 92.643754 36.572919 120.408339 49.027087 144.25834 66.279171 C 156.610425 75.214588 168.850009 86.064589 175.668759 99.97084 " stroke="#ffffff" stroke-width="3" stroke-opacity="1" stroke-miterlimit="4"/></svg>