<svg xmlns="http://www.w3.org/2000/svg" xmlns:xlink="http://www.w3.org/1999/xlink" width="500" zoomAndPan="magnify" viewBox="0 0 375 374.999991" height="500" preserveAspectRatio="xMidYMid meet" version="1.0"><path stroke-linecap="square" transform="matrix(1.875, 0, 0, 1.875, 0.0000045, 0)" fill="none" stroke-linejoin="round" d="M 100.064588 100.000007 C 110.160422 112.620841 120.241672 125.258342 130.62084 137.650009 C 141.016674 150.060427 151.589591 162.937511 164.072925 173.343761 C 166.902092 175.704178 169.995842 178.183345 173.495842 179.464595 C 174.985426 180.008345 176.879176 180.385429 178.241676 179.333345 C 179.445843 178.402095 179.812509 176.741678 179.941676 175.308345 C 180.247926 171.916678 179.493759 168.416678 178.679176 165.147928 C 175.235426 151.34376 168.758342 138.160426 162.104175 125.664592 C 151.577091 105.893757 139.143757 87.016672 124.922922 69.702088 C 114.364588 56.850004 102.687504 44.606253 89.21667 34.768752 C 76.495836 25.479168 58.537501 15.629168 42.433334 21.887501 C 24.256249 28.950002 19.993749 52.193753 19.999999 69.350005 C 20.010416 95.985423 28.897916 123.439591 44.058334 145.291676 C 51.943751 156.658344 62.006252 166.925011 74.350002 173.402095 C 79.629169 176.172928 85.306253 178.204178 91.187504 179.229178 C 95.085421 179.908345 99.058337 180.141678 103.008338 179.914595 C 134.697923 178.091678 157.256258 149.033343 168.731259 122.091675 C 171.077092 116.585424 173.077092 110.931257 174.725009 105.179174 C 176.810426 97.893756 178.337509 90.443756 179.204176 82.914589 C 179.600009 79.472922 179.858343 76.014588 179.956259 72.552088 C 180.404176 56.702087 177.902093 36.943752 164.791675 26.177085 C 149.518757 13.635418 128.535423 22.610418 114.320838 32.195835 C 100.260421 41.675003 88.16042 53.993754 77.275003 66.914588 C 61.670835 85.437506 48.170834 105.879174 36.9375 127.329175 C 30.677083 139.283342 24.614583 151.85626 21.333332 165.010428 C 20.531249 168.218761 19.812499 171.622928 20.033332 174.952095 C 20.129166 176.383345 20.422916 178.022928 21.489582 179.075012 C 24.614583 182.160429 30.677083 177.437512 33.1375 175.610428 C 43.19375 168.129178 51.656251 158.304177 59.862502 148.920843 C 89.33542 115.222924 115.329172 78.589588 145.331257 45.350003 C 152.300008 37.629169 159.537508 29.550002 168.102092 23.543752 C 170.435425 21.908335 175.252092 18.433335 178.202093 20.637501 C 179.416676 21.541668 179.797926 23.187502 179.935426 24.612502 C 180.252093 27.902085 179.543759 31.306252 178.768759 34.485419 C 175.527092 47.79792 169.354175 60.527087 163.020842 72.602088 C 151.772924 94.047923 138.26459 114.489591 122.658339 133.018759 C 111.770838 145.94376 99.670837 158.270844 85.612503 167.764594 C 71.422919 177.347928 50.439584 186.379179 35.16875 173.850011 C 22.064582 163.102094 19.587499 143.345843 20.045832 127.518758 C 20.145832 124.056258 20.406249 120.597925 20.806249 117.158341 C 21.679166 109.629174 23.210416 102.179173 25.299999 94.89584 C 26.949999 89.141673 28.954166 83.487505 31.302083 77.979172 C 42.795834 51.02917 65.360419 21.947918 97.060421 20.087501 C 101.116671 19.850001 105.197921 20.100001 109.197921 20.816668 C 115.077088 21.870835 120.747922 23.931252 126.016673 26.727085 C 138.33959 33.266669 148.368757 43.575003 156.218758 54.977087 C 171.291676 76.866672 180.102093 104.331257 180.000009 130.952092 C 179.933343 148.108343 175.529176 171.262511 157.295841 178.183345 C 141.231257 184.281262 123.400006 174.525011 110.716672 165.275011 C 97.243754 155.45001 85.56667 143.214593 75.012503 130.366675 C 60.793752 113.056257 48.366667 94.179173 37.852083 74.404172 C 31.204166 61.902087 24.735416 48.708337 21.308332 34.895836 C 20.495832 31.620835 19.747916 28.112502 20.060416 24.716668 C 20.193749 23.277085 20.564582 21.612501 21.770832 20.677085 C 23.137499 19.618751 25.035416 19.985418 26.531249 20.527085 C 30.035416 21.795835 33.135416 24.272918 35.96875 26.627085 C 48.464584 37.008336 59.043751 49.881253 69.441669 62.285421 C 79.825003 74.670838 89.908337 87.306256 100.004171 99.925007 " stroke="#ffffff" stroke-width="3" stroke-opacity="1" stroke-miterlimit="4"/></svg>