<svg xmlns="http://www.w3.org/2000/svg" xmlns:xlink="http://www.w3.org/1999/xlink" width="500" zoomAndPan="magnify" viewBox="0 0 375 374.999991" height="500" preserveAspectRatio="xMidYMid meet" version="1.0"><path stroke-linecap="square" transform="matrix(0, 1.875, -1.875, 0, 374.99998, 0)" fill="none" stroke-linejoin="round" d="M 134.854176 99.999996 C 139.279176 112.293747 143.518759 124.652081 147.954176 136.941665 C 150.258343 143.322915 152.610427 149.689582 155.160427 155.977083 C 156.68126 159.729166 158.270844 163.458333 160.039594 167.1 C 161.097927 169.28125 162.218761 171.437501 163.491677 173.502084 C 164.260427 174.747917 165.083344 175.966667 166.027094 177.085418 C 166.583344 177.743751 167.183344 178.372918 167.864594 178.902084 C 172.827095 182.768751 175.385428 174.929167 176.331262 171.354167 C 176.552095 170.525 176.747928 169.691667 176.929178 168.854167 C 177.160428 167.777084 177.366678 166.69375 177.552095 165.608333 C 177.787512 164.2375 177.991678 162.8625 178.175012 161.485417 C 178.414595 159.683333 178.616678 157.877083 178.791678 156.06875 C 179.006262 153.870833 179.179178 151.668749 179.325012 149.464582 C 180.354179 133.854165 180.158345 118.143747 179.385428 102.527079 C 178.608345 86.829162 177.235428 71.089577 174.529178 55.59791 C 172.887511 46.206242 170.991678 36.243742 166.564594 27.702074 C 164.870844 24.433324 162.195844 20.270824 158.097927 20.012491 C 153.68126 19.733324 150.020843 23.912491 147.570843 27.037491 C 140.841676 35.620825 136.302092 46.031242 131.947925 55.945826 C 117.866674 87.995828 107.53959 121.860414 91.122923 152.860416 C 87.075006 160.5 82.575005 168.4375 76.266672 174.470834 C 73.262505 177.343751 69.443755 180.012501 65.116671 180.000001 C 56.914587 179.977084 51.54167 170.925 48.26667 164.59375 C 47.458336 163.029167 46.702086 161.435417 45.98542 159.825 C 45.12292 157.883333 44.31667 155.914583 43.556253 153.929166 C 38.493753 140.739582 35.077086 126.914581 32.116669 113.122913 C 28.341669 95.527079 25.443752 77.735411 23.150002 59.887493 C 21.843751 49.718743 20.637501 39.493742 20.133335 29.247908 C 20.016668 26.881241 19.895835 24.483324 20.079168 22.116657 C 20.112501 21.689574 20.102085 20.181241 20.679168 20.010407 C 21.268751 19.833324 21.833335 21.502074 21.970835 21.831241 C 22.908335 24.093741 23.562502 26.483324 24.225002 28.835408 C 27.195835 39.422909 29.633335 50.166659 32.237502 60.849993 C 39.695836 91.445829 46.87292 122.970831 59.945837 151.758333 C 63.285421 159.1125 67.108338 166.589584 72.539588 172.643751 C 75.339588 175.768751 78.804172 178.677084 82.979172 179.660418 C 92.502089 181.902085 100.254173 172.760417 105.085424 165.897917 C 106.141674 164.397917 107.147924 162.860417 108.11459 161.297917 C 109.335424 159.327083 110.493757 157.31875 111.608341 155.285416 C 118.395841 142.889582 123.720841 129.702081 128.750008 116.516664 C 136.391676 96.489579 143.068759 76.114578 150.527093 56.020826 C 154.29376 45.874992 157.979177 35.154158 163.822927 25.968741 C 165.670844 23.064574 169.866678 17.28124 173.331261 21.614574 C 175.610428 24.464574 176.418762 28.581241 177.118762 32.060408 C 178.650012 39.658325 179.214595 47.460409 179.591678 55.189576 C 181.031262 84.714578 179.631262 115.062497 174.562511 144.206249 C 172.914595 153.681249 171.016678 163.75625 166.527094 172.368751 C 164.802094 175.681251 162.033344 179.916668 157.83126 179.997918 C 153.220843 180.087501 149.491676 175.531251 147.002093 172.220834 C 140.081259 163.027083 135.391676 152.049999 130.856259 141.552082 C 117.722924 111.137497 107.604174 79.306244 92.489589 49.768743 C 88.500006 41.970825 84.125006 34.033325 78.197922 27.516658 C 75.362505 24.397908 71.881255 21.302074 67.670838 20.302074 C 57.452087 17.877074 50.71042 30.212491 47.127086 37.695825 C 46.289586 39.445825 45.508336 41.222909 44.768753 43.016659 C 43.800003 45.368742 42.902086 47.749992 42.056253 50.149993 C 37.102086 64.199993 33.700002 78.799994 30.764585 93.387495 C 27.202085 111.110413 24.422918 129.004164 22.308335 146.954166 C 21.366668 154.945833 20.502085 162.970833 20.120835 171.0125 C 20.020835 173.083334 19.939585 175.166667 20.039585 177.237501 C 20.075001 178.008334 20.027085 179.168751 20.493751 179.839584 C 20.802085 180.279168 21.210418 179.670834 21.368751 179.410418 C 21.910418 178.518751 22.252085 177.491668 22.591668 176.510418 C 24.077085 172.214584 25.170835 167.772917 26.291668 163.372917 C 29.150002 152.147916 31.789585 140.866665 34.577086 129.624998 C 40.575003 105.42083 46.78542 81.043745 55.918754 57.799993 C 60.427087 46.324992 65.727088 33.118741 75.170838 24.716658 C 76.654172 23.397907 78.287505 22.220824 80.085422 21.366657 C 89.816673 16.74374 98.45834 25.172908 103.872923 32.427075 C 110.045841 40.697909 114.668758 50.118743 118.893758 59.493743 C 124.847925 72.702077 129.918759 86.299995 134.827092 99.924996 " stroke="#ffffff" stroke-width="3" stroke-opacity="1" stroke-miterlimit="4"/></svg>