<svg xmlns="http://www.w3.org/2000/svg" xmlns:xlink="http://www.w3.org/1999/xlink" width="500" zoomAndPan="magnify" viewBox="0 0 375 374.999991" height="500" preserveAspectRatio="xMidYMid meet" version="1.0"><path stroke-linecap="square" transform="matrix(1.875, 0, 0, 1.875, 0.0000045, 0)" fill="none" stroke-linejoin="round" d="M 179.983343 100.000007 C 180.029176 111.566674 179.983343 123.135425 179.804176 134.702092 C 179.710426 140.670843 179.583343 146.641676 179.385426 152.608343 C 179.262509 156.31251 179.116676 160.014594 178.912509 163.716677 C 178.791676 165.933344 178.652093 168.152094 178.468759 170.364595 C 178.362509 171.650011 178.241676 172.933345 178.089593 174.214595 C 177.995843 174.993761 177.893759 175.772928 177.764593 176.545845 C 177.685426 177.010428 177.600009 177.472928 177.493759 177.931262 C 177.429176 178.208345 177.358343 178.483345 177.270843 178.754178 C 176.300009 181.745845 175.106259 176.547928 174.927092 175.752095 C 174.837509 175.352095 174.754176 174.952095 174.672926 174.550011 C 174.581259 174.097928 174.495842 173.647928 174.410426 173.195845 C 174.297926 172.577095 174.187509 171.958345 174.083342 171.339595 C 173.956259 170.583345 173.833342 169.827094 173.716676 169.068761 C 173.572926 168.156261 173.437509 167.243761 173.306259 166.329178 C 173.137509 165.160428 172.975009 163.991677 172.816676 162.820844 C 172.618759 161.354177 172.429176 159.88751 172.243759 158.41876 C 172.014592 156.614594 171.793759 154.808343 171.577092 153.002093 C 171.302092 150.714593 171.035425 148.42501 170.775009 146.135426 C 167.306259 115.872924 164.610425 85.472922 159.772925 55.38542 C 158.268758 46.025003 156.793758 36.354169 153.575008 27.393752 C 152.841674 25.352085 151.033341 19.622918 147.891674 20.260418 C 145.262507 20.793751 143.77709 24.806252 142.887507 26.912502 C 139.82709 34.160419 138.047923 41.995836 136.287507 49.63542 C 128.991673 81.300005 124.491672 113.550007 116.972922 145.16876 C 114.735422 154.585427 112.497922 164.493761 108.129171 173.202095 C 106.847921 175.756262 104.210421 180.814595 100.543754 179.608345 C 97.647921 178.656262 95.912504 175.002095 94.708337 172.485428 C 91.331254 165.437511 89.31667 157.695844 87.395837 150.152093 C 79.566669 119.404175 75.018753 87.914589 68.243752 56.931254 C 66.108335 47.17292 64.022918 37.118752 60.235418 27.835418 C 59.333335 25.622918 57.327085 19.941668 54.091668 20.225001 C 51.493751 20.454168 50.047918 24.362502 49.250001 26.343752 C 46.406251 33.391669 44.997917 41.081253 43.6125 48.518753 C 37.71875 80.168755 34.895833 112.364591 31 144.297926 C 29.866666 153.58126 28.804166 162.918761 27.037499 172.110428 C 26.643749 174.162511 26.252083 176.272928 25.518749 178.237512 C 25.372916 178.625012 24.977083 179.897928 24.358333 179.775012 C 23.724999 179.652095 23.483332 178.379178 23.354166 177.897928 C 22.791666 175.779178 22.556249 173.562511 22.322916 171.389595 C 21.295832 161.831261 21.004166 152.18126 20.702082 142.579176 C 19.806249 114.012507 19.714582 85.383339 20.356249 56.81042 C 20.541666 48.58542 20.770832 40.350003 21.341666 32.139585 C 21.583332 28.664585 21.349999 23.908335 22.949999 20.689585 C 23.779166 19.020835 24.693749 22.691668 24.806249 23.133335 C 25.714583 26.687502 26.218749 30.358335 26.739583 33.983336 C 28.081249 43.339586 29.114583 52.739587 30.158333 62.131254 C 33.533333 92.514589 36.158333 123.143758 41.70625 153.23126 C 43.004167 160.268761 44.316667 167.572928 47.045834 174.227095 C 47.791667 176.043762 49.216667 179.777095 51.687501 179.783345 C 54.870835 179.789595 56.735418 174.097928 57.614585 171.852095 C 61.258335 162.541677 63.302085 152.539593 65.391669 142.793759 C 71.985419 112.014591 76.470836 80.758339 84.15417 50.214587 C 86.06667 42.616669 88.07292 34.827086 91.425004 27.712502 C 92.633337 25.150002 94.34792 21.464585 97.250004 20.422918 C 100.941671 19.100001 103.631254 24.200002 104.925004 26.768752 C 109.310421 35.462502 111.562505 45.362503 113.818755 54.770837 C 121.402089 86.391672 125.962506 118.654174 133.393756 150.30626 C 135.191673 157.960427 137.012507 165.814594 140.13959 173.056261 C 141.066674 175.208345 142.60209 179.195845 145.27709 179.737512 C 148.479174 180.387512 150.360424 174.743761 151.145841 172.637511 C 154.472924 163.710427 156.016675 154.029177 157.589591 144.67501 C 162.660425 114.489591 165.512508 83.964589 169.258342 53.600004 C 169.539592 51.318753 169.827092 49.03542 170.122925 46.756253 C 170.356259 44.956253 170.593759 43.158336 170.841675 41.360419 C 171.041675 39.897919 171.247926 38.437503 171.462509 36.979169 C 171.633342 35.814586 171.810426 34.652086 171.993759 33.489586 C 172.137509 32.581252 172.287509 31.675002 172.441676 30.768752 C 172.570842 30.016669 172.704176 29.264585 172.843759 28.514585 C 172.958342 27.900002 173.077092 27.287502 173.204176 26.675002 C 173.295842 26.227085 173.389592 25.781252 173.491676 25.335418 C 173.579176 24.937502 173.672926 24.541668 173.772926 24.145835 C 173.968759 23.364585 175.225009 18.370835 176.327093 21.112501 C 176.439593 21.389585 176.529176 21.679168 176.608343 21.968751 C 176.743759 22.450001 176.850009 22.941668 176.945843 23.433335 C 177.097926 24.204168 177.218759 24.979168 177.327093 25.758335 C 177.506259 27.035418 177.650009 28.316669 177.779176 29.600002 C 178.000009 31.810419 178.170843 34.025002 178.320843 36.239586 C 178.572926 39.935419 178.762509 43.63542 178.925009 47.337503 C 179.183343 53.300004 179.368759 59.264587 179.514593 65.231254 C 179.797926 76.793755 179.935426 88.360422 179.983343 99.925007 " stroke="#ffffff" stroke-width="3" stroke-opacity="1" stroke-miterlimit="4"/></svg>