<svg xmlns="http://www.w3.org/2000/svg" xmlns:xlink="http://www.w3.org/1999/xlink" width="500" zoomAndPan="magnify" viewBox="0 0 375 374.999991" height="500" preserveAspectRatio="xMidYMid meet" version="1.0"><path stroke-linecap="square" transform="matrix(0, 1.875, -1.875, 0, 374.99998, 0)" fill="none" stroke-linejoin="round" d="M 155.73751 99.999996 C 146.36251 121.749997 135.345842 144.033332 119.233341 161.658333 C 111.618757 169.989584 101.947923 178.045834 90.406256 179.706251 C 71.418755 182.437501 57.21667 165.620833 48.51042 151.020833 C 41.331253 138.977082 36.060419 125.812498 31.822919 112.47708 C 26.837502 96.789579 23.220835 80.587495 21.272918 64.239577 C 20.335418 56.383326 19.756251 48.429159 20.085418 40.514575 C 20.283335 35.785408 20.720835 30.860408 22.377085 26.389574 C 22.825001 25.183324 23.377085 24.002074 24.122918 22.949991 C 28.929169 16.147907 36.881252 22.970824 40.889586 27.037491 C 41.743753 27.904158 42.568753 28.793741 43.375003 29.702075 C 44.452086 30.914575 45.49167 32.156241 46.508336 33.418741 C 47.764586 34.979158 48.981253 36.568742 50.170837 38.179158 C 51.687503 40.229159 53.16042 42.312492 54.60417 44.412492 C 56.475004 47.135409 58.293754 49.889576 60.083337 52.662493 C 81.427089 85.752078 98.925006 121.522914 122.922925 152.860416 C 129.075008 160.891666 135.806259 169.041667 144.150009 174.900001 C 148.183343 177.731251 153.016677 180.241668 158.08751 179.983334 C 168.289594 179.462501 173.177095 167.91875 175.627095 159.560416 C 176.143762 157.797916 176.591678 156.016666 176.989595 154.224999 C 177.487512 151.979166 177.904178 149.714582 178.256262 147.439582 C 178.706262 144.535415 179.050012 141.616665 179.312512 138.689582 C 180.704179 123.168747 179.995845 107.41458 177.860428 91.995829 C 175.970845 78.354161 172.935428 64.71041 167.831261 51.889576 C 163.291677 40.489575 156.435427 27.324991 144.639593 22.027074 C 129.422925 15.191657 114.183341 27.064574 104.156257 37.514575 C 93.704173 48.408326 85.177089 61.114577 77.352088 73.972911 C 66.427088 91.927079 56.889587 110.697913 47.670836 129.570831 C 41.193753 142.831249 35.072919 156.295833 28.166669 169.339584 C 26.568752 172.358334 24.966668 175.477084 22.893752 178.206251 C 22.547918 178.660418 21.006251 180.806251 20.322918 179.691668 C 19.754168 178.766668 19.987501 177.250001 20.070835 176.239584 C 20.312501 173.352084 20.902085 170.4875 21.518751 167.660417 C 24.039585 156.10625 27.589585 144.752082 31.391669 133.564581 C 38.250003 113.391663 46.33542 93.520829 56.320837 74.679161 C 63.320837 61.470827 71.306255 48.441659 81.560422 37.481242 C 91.377089 26.991658 105.154174 17.12499 120.289591 20.795824 C 123.087508 21.474991 125.772925 22.572907 128.289592 23.966658 C 140.079176 30.499991 148.222926 42.606242 154.439593 54.199993 C 167.706261 78.941661 175.275012 107.42083 178.658345 135.189581 C 180.050012 146.599999 181.262512 159.05625 178.581262 170.383334 C 177.539595 174.787501 175.085428 180.910418 169.479178 179.881251 C 165.079178 179.072918 161.341677 175.314584 158.391677 172.220834 C 151.410427 164.9 145.722926 156.314583 140.247926 147.849999 C 119.956258 116.491664 103.081257 82.920828 81.152089 52.620826 C 74.270838 43.110409 66.791671 33.385408 57.381254 26.220824 C 53.064587 22.933324 47.79167 19.829157 42.177086 20.006241 C 31.083335 20.356241 26.164585 33.527075 23.812502 42.458325 C 23.277085 44.489576 22.822918 46.539576 22.427085 48.599992 C 21.937501 51.156243 21.543751 53.729159 21.220835 56.308326 C 18.147918 80.966661 20.404168 106.94583 26.631252 130.952081 C 29.897919 143.545832 34.437502 156.522916 42.402086 166.98125 C 44.65417 169.9375 47.227086 172.683334 50.21042 174.912501 C 52.183337 176.387501 54.339587 177.627084 56.643754 178.506251 C 70.343755 183.731251 83.906256 174.195834 93.306256 165.041667 C 104.59584 154.047916 113.606257 140.752082 121.818758 127.381248 C 133.700009 108.043746 143.922926 87.727078 153.839593 67.331244 C 159.635427 55.406243 165.189594 43.343742 171.341678 31.595825 C 172.241678 29.874991 173.162511 28.162491 174.127095 26.474991 C 174.710428 25.456241 175.310428 24.445824 175.950012 23.458324 C 176.325012 22.879157 176.714595 22.308324 177.133345 21.760407 C 177.375012 21.441657 177.627095 21.131241 177.902095 20.841657 C 180.637512 17.941657 179.912512 24.164574 179.747928 25.410408 C 179.687512 25.868741 179.618762 26.329158 179.547928 26.787491 C 179.456262 27.356241 179.360428 27.922908 179.256262 28.489574 C 179.118762 29.252075 178.968762 30.010408 178.812512 30.768741 C 178.625012 31.687491 178.425012 32.604158 178.218762 33.518741 C 177.970845 34.612492 177.712512 35.704158 177.443762 36.793742 C 176.489595 40.687492 175.429178 44.556242 174.310428 48.406242 C 172.462511 54.75416 170.450011 61.056243 168.308344 67.312494 C 164.537511 78.333328 160.366677 89.220828 155.76876 99.924996 " stroke="#ffffff" stroke-width="3" stroke-opacity="1" stroke-miterlimit="4"/></svg>