<svg xmlns="http://www.w3.org/2000/svg" class="canvas svelte-gfhzhs" viewBox="0 0 200 200"><g class="lissajous" fill="none" stroke="hsl(23, 0%, 100%)" stroke-width="3" stroke-linecap="square" stroke-linejoin="round"><path d="M143.89519,100c7.59341,9.08871 14.74309,18.58552 21.02864,28.63066c1.84839,2.95397 3.61902,5.95743 5.28278,9.01941c1.29389,2.38127 2.52341,4.79823 3.66387,7.25686c0.89844,1.93687 1.74181,3.89988 2.50901,5.89254c0.59117,1.53545 1.13719,3.08872 1.62186,4.66117c2.36996,7.68918 4.40609,20.20064 -5.35092,23.65538c-1.48162,0.52461 -3.05016,0.7755 -4.61626,0.85526c-2.53854,0.12928 -5.08919,-0.17597 -7.57428,-0.67996c-3.98634,-0.80846 -7.85929,-2.141 -11.61325,-3.69137c-6.22335,-2.57021 -12.1763,-5.78061 -17.92938,-9.26763c-19.07213,-11.55986 -36.35727,-26.16862 -52.19436,-41.80632c-16.38211,-16.17586 -31.65604,-33.90778 -43.8521,-53.48561c-5.94656,-9.54577 -11.70029,-19.95514 -14.07019,-31.05865c-1.01358,-4.74887 -1.55543,-10.44147 1.0999,-14.78594c4.92077,-8.05104 17.07047,-5.09431 24.25171,-2.6768c1.69716,0.57133 3.37215,1.2077 5.02697,1.89172c2.08504,0.86185 4.1384,1.79956 6.16411,2.79256c2.50664,1.22874 4.97128,2.54247 7.39994,3.91865c3.05426,1.73067 6.05197,3.56049 9.0014,5.46403c19.45791,12.55796 37.1191,28.0088 53.2065,44.61663c14.80771,15.28674 28.6481,31.89072 39.64913,50.15816c5.6277,9.34491 11.15239,19.65204 12.95758,30.54307c0.77757,4.69124 0.88927,10.34544 -2.3886,14.1851c-4.45746,5.22141 -12.65741,4.23683 -18.56955,2.78454c-15.32241,-3.76389 -29.44283,-13.01169 -42.08087,-22.11404c-19.45846,-14.01465 -37.21103,-30.52654 -53.17834,-48.3925c-12.4016,-13.87626 -24.03349,-28.78445 -33.05129,-45.11198c-2.79192,-5.05501 -5.33298,-10.27806 -7.28804,-15.71774c-2.67674,-7.44766 -6.33866,-20.74749 2.44806,-25.78676c1.04044,-0.5967 2.17676,-1.01339 3.34242,-1.28799c1.85947,-0.43805 3.78999,-0.52627 5.69257,-0.42542c3.03019,0.16063 6.02666,0.79299 8.93728,1.62876c8.62606,2.47691 16.74637,6.68889 24.42772,11.26093c11.49325,6.84093 22.26436,14.88835 32.50484,23.47453c15.73858,13.19608 30.33602,27.81783 43.51634,43.56911"/></g></svg>