<svg xmlns="http://www.w3.org/2000/svg" xmlns:xlink="http://www.w3.org/1999/xlink" width="500" zoomAndPan="magnify" viewBox="0 0 375 374.999991" height="500" preserveAspectRatio="xMidYMid meet" version="1.0"><path stroke-linecap="square" transform="matrix(1.875, 0, 0, 1.875, 0.0000045, 0)" fill="none" stroke-linejoin="round" d="M 116.739589 100.000007 C 123.814589 121.708341 130.037506 144.289593 140.15209 164.839594 C 140.766674 166.087511 141.404174 167.325011 142.072924 168.541678 C 142.612507 169.522928 143.172924 170.491678 143.760424 171.441678 C 146.083341 175.185428 150.810424 182.235429 156.137508 179.322928 C 159.110425 177.697928 160.900008 174.193761 162.256258 171.245845 C 165.475008 164.250011 167.293759 156.583344 168.902092 149.08751 C 175.247926 119.506258 177.758343 88.872923 179.304176 58.704171 C 179.812509 48.762503 180.272926 38.754169 179.887509 28.797919 C 179.800009 26.520835 179.714593 24.189585 179.250009 21.952085 C 179.150009 21.468751 178.952093 20.085418 178.275009 20.002085 C 177.627093 19.922918 177.147926 21.143751 176.950009 21.572918 C 176.039592 23.543752 175.468759 25.689585 174.900009 27.777085 C 172.375009 37.054169 170.550009 46.533336 168.616675 55.945837 C 164.604175 75.489588 160.716675 95.068756 156.022925 114.464591 C 152.672924 128.310425 149.043757 142.204176 143.89584 155.508344 C 143.129174 157.48751 142.322924 159.454177 141.460424 161.393761 C 140.785424 162.910427 140.075007 164.414594 139.318757 165.891678 C 135.97709 172.420845 129.364589 183.402095 120.472922 178.952095 C 116.612505 177.018762 113.747922 173.316678 111.385422 169.818761 C 106.627088 162.779177 103.131254 154.88126 99.904171 147.052093 C 88.150003 118.537508 80.16667 88.625006 69.791669 59.610421 C 66.016669 49.052087 62.160418 38.089586 56.210418 28.514585 C 54.189584 25.260418 51.060418 20.335418 46.758334 20.014585 C 42.98125 19.731251 40.402084 23.672918 38.84375 26.547918 C 34.545833 34.472919 32.570833 43.777086 30.758333 52.52292 C 24.214583 84.064589 21.614582 116.752091 20.349999 148.90001 C 20.045832 156.652094 19.781249 164.447927 20.156249 172.202095 C 20.247916 174.106261 20.354166 176.035428 20.720832 177.908345 C 20.839582 178.512512 20.970832 179.493762 21.506249 179.904178 C 22.095832 180.352095 22.674999 179.179178 22.864582 178.808345 C 23.722916 177.137512 24.237499 175.268762 24.752083 173.470845 C 27.047916 165.445844 28.658333 157.21251 30.354166 149.047926 C 34.679167 128.210425 38.74375 107.316674 43.714584 86.620839 C 44.922917 81.593755 46.183334 76.581255 47.527084 71.591671 C 48.581251 67.677088 49.683334 63.777088 50.862501 59.900004 C 51.814584 56.77292 52.812501 53.658337 53.883334 50.570837 C 54.718751 48.16042 55.595835 45.76667 56.533335 43.395836 C 57.283335 41.506253 58.068751 39.631253 58.910418 37.781252 C 59.566668 36.341669 60.254168 34.916669 60.987502 33.514586 C 64.368752 27.054168 70.935419 16.635418 79.635419 21.102085 C 80.97917 21.791668 82.189586 22.722918 83.293753 23.745835 C 85.145837 25.466668 86.731253 27.464585 88.17292 29.535419 C 90.59792 33.018752 92.645837 36.762502 94.533337 40.558336 C 97.652087 46.83542 100.331254 53.327087 102.847921 59.864587 C 107.931255 73.062505 112.341672 86.512506 116.725005 99.956257 " stroke="#ffffff" stroke-width="3" stroke-opacity="1" stroke-miterlimit="4"/></svg>