<svg xmlns="http://www.w3.org/2000/svg" xmlns:xlink="http://www.w3.org/1999/xlink" width="500" zoomAndPan="magnify" viewBox="0 0 375 374.999991" height="500" preserveAspectRatio="xMidYMid meet" version="1.0"><defs><clipPath id="31093e6785"><rect x="0" width="375" y="0" height="375"/></clipPath></defs><g transform="matrix(1, 0, 0, 1, 0, 0)"><g clip-path="url(#31093e6785)"><path stroke-linecap="square" transform="matrix(-1.875, 0, 0, -1.875, 374.99998, 374.999975)" fill="none" stroke-linejoin="round" d="M 140.497915 99.999993 C 137.791665 112.510411 135.027081 125.018745 131.799998 137.406246 C 130.143748 143.766663 128.370831 150.10208 126.285414 156.335414 C 125.006247 160.166664 123.612497 163.968748 121.939581 167.647915 C 120.924997 169.879165 119.806247 172.079165 118.456247 174.127082 C 117.656247 175.339582 116.768747 176.510415 115.72083 177.518749 C 115.08333 178.131249 114.381247 178.687499 113.597913 179.102082 C 108.068746 182.018749 103.672913 174.843748 101.504163 170.868748 C 100.997913 169.943748 100.520829 169.002081 100.064579 168.049998 C 99.472912 166.818748 98.916662 165.572914 98.383329 164.314581 C 97.708329 162.722914 97.072912 161.112497 96.464579 159.493747 C 95.737496 157.560414 95.049996 155.612497 94.387495 153.654164 C 83.777078 122.247912 77.935411 89.395826 69.199994 57.458324 C 66.424994 47.308323 63.681243 36.677073 58.787493 27.295822 C 57.44166 24.716655 54.637493 19.283321 50.874993 20.341655 C 48.135409 21.110405 46.531242 24.539572 45.456242 26.881239 C 42.385409 33.583322 40.743742 40.991656 39.206242 48.164573 C 32.870825 77.716659 29.904158 108.029161 26.522908 138.027079 C 25.479158 147.272913 24.470824 156.524997 23.308324 165.758331 C 22.847907 169.418748 22.399991 173.093748 21.716657 176.720832 C 21.677074 176.933332 21.166657 179.958332 20.722907 179.774999 C 20.281241 179.589582 20.297907 178.108332 20.266657 177.754165 C 20.066657 175.554165 20.041657 173.337498 20.016657 171.131248 C 19.908324 161.564581 20.199991 151.991664 20.522907 142.431246 C 21.508324 113.268744 22.991657 83.989576 26.454158 55.002074 C 27.397908 47.095823 28.443741 39.137489 30.314575 31.389572 C 31.112491 28.081239 31.947908 23.854155 34.310408 21.231238 C 37.402075 17.797905 40.308325 24.224988 41.268742 26.404155 C 45.158326 35.224989 47.270826 44.93124 49.485409 54.270824 C 57.23541 86.935409 62.439577 120.377078 72.464577 152.46458 C 74.808328 159.970831 77.329161 167.968748 81.810411 174.522915 C 83.516661 177.018748 86.137495 180.118749 89.518745 179.754165 C 93.477079 179.327082 96.193746 174.897915 97.968746 171.810415 C 103.041663 162.989581 106.037496 152.88333 108.910413 143.185413 C 117.868747 112.945828 123.712497 81.885409 132.445831 51.58749 C 134.699998 43.76874 137.045832 35.802073 140.622915 28.466655 C 141.972915 25.699989 143.779165 21.883322 146.783332 20.545822 C 149.947916 19.135405 152.339583 22.670822 153.622916 25.033322 C 157.310416 31.812489 158.979166 39.831239 160.60625 47.29999 C 167.635417 79.547909 170.61875 112.720828 174.316667 145.472913 C 175.322917 154.37708 176.266668 163.299998 177.547918 172.170832 C 177.835418 174.160415 178.116668 176.164582 178.572918 178.122915 C 178.629168 178.362499 178.841668 179.779165 179.237501 179.783332 C 179.764584 179.787499 179.795834 176.970832 179.814584 176.683332 C 180.033334 173.143748 180.012501 169.587498 179.995834 166.043748 C 179.918751 150.322913 179.270834 134.597912 178.487501 118.897911 C 177.247918 94.093743 175.850001 69.106241 172.145834 44.527073 C 171.239584 38.506239 170.264584 32.368739 168.335417 26.574989 C 167.672917 24.589572 166.766667 21.529155 164.745833 20.460405 C 162.866667 19.466655 161.252083 21.754155 160.416666 23.108322 C 157.852083 27.272905 156.4375 32.229156 155.054166 36.877073 C 148.912499 57.533324 145.058332 78.897909 140.510415 99.94166 " stroke="#ffffff" stroke-width="3" stroke-opacity="1" stroke-miterlimit="4"/></g></g></svg>