<svg xmlns="http://www.w3.org/2000/svg" xmlns:xlink="http://www.w3.org/1999/xlink" width="500" zoomAndPan="magnify" viewBox="0 0 375 374.999991" height="500" preserveAspectRatio="xMidYMid meet" version="1.0"><path stroke-linecap="square" transform="matrix(1.875, 0, 0, 1.875, 0.0000045, 0)" fill="none" stroke-linejoin="round" d="M 180.000009 100.000007 C 179.997926 111.714591 179.737509 123.435425 179.077093 135.133342 C 178.418759 146.81876 177.725009 158.847927 174.900009 170.252095 C 174.722926 170.968761 174.531259 171.683345 174.322926 172.393761 C 173.683342 174.564595 172.283342 179.968762 169.145842 179.779178 C 166.327092 179.608345 164.387508 175.477095 163.297925 173.385428 C 159.414591 165.929178 156.906258 157.697927 154.402091 149.70626 C 144.05209 116.670841 136.72709 82.491672 123.625006 50.368753 C 122.650006 47.975003 121.631256 45.595836 120.550006 43.24792 C 119.689589 41.370836 118.787505 39.512503 117.833339 37.683336 C 117.087505 36.254169 116.308339 34.841669 115.485422 33.458336 C 112.077088 27.725002 106.202088 18.877085 98.304171 20.379168 C 94.41667 21.118751 91.31042 24.120835 88.900003 27.072918 C 83.693753 33.452086 80.181253 41.233336 77.031253 48.775003 C 64.520835 78.729172 57.277085 110.720841 48.022917 141.756259 C 44.943751 152.08126 41.966667 162.760427 37.175 172.454178 C 36.877083 173.054178 36.56875 173.652095 36.245833 174.239595 C 35.20625 176.125012 32.8 180.706262 29.93125 179.639595 C 26.945833 178.529178 25.906249 173.389595 25.229166 170.766678 C 22.854166 161.537511 22.081249 151.83751 21.389582 142.364593 C 19.427082 115.554174 19.414582 88.418756 21.118749 61.593754 C 21.631249 53.52292 22.308332 45.43542 23.583332 37.443752 C 24.327083 32.768752 25.114583 27.739585 27.229166 23.447918 C 27.541666 22.816668 27.893749 22.200001 28.331249 21.645835 C 31.510416 17.612501 35.027083 23.493752 36.429167 26.100002 C 41.233334 35.022919 44.05625 45.150003 46.985417 54.795837 C 56.689585 86.739589 63.989585 119.718758 76.787503 150.63751 C 80.00417 158.408344 83.587503 166.454178 88.964587 173.004178 C 91.406254 175.981262 94.577087 179.008345 98.529171 179.660428 C 106.377088 180.956262 112.166672 172.145845 115.550005 166.435428 C 116.372922 165.043761 117.150005 163.629177 117.895839 162.195844 C 118.850005 160.360427 119.752089 158.495844 120.614589 156.614594 C 121.693756 154.260427 122.712506 151.879177 123.687506 149.479176 C 136.73959 117.408341 144.06459 83.300005 154.391674 50.32917 C 156.895841 42.331253 159.404175 34.093752 163.287508 26.633335 C 164.379175 24.535418 166.318759 20.402085 169.137509 20.222918 C 172.304176 20.018751 173.710426 25.506252 174.347926 27.689585 C 174.554176 28.402085 174.745842 29.120835 174.922926 29.841669 C 177.737509 41.275003 178.431259 53.32917 179.087509 65.041671 C 179.737509 76.666672 179.997926 88.314589 180.000009 99.956257 " stroke="#ffffff" stroke-width="3" stroke-opacity="1" stroke-miterlimit="4"/></svg>