<svg xmlns="http://www.w3.org/2000/svg" class="canvas svelte-gfhzhs" viewBox="0 0 200 200"><g class="lissajous" fill="none" stroke="hsl(23, 0%, 100%)" stroke-width="3" stroke-linecap="square" stroke-linejoin="round"><path d="M180,100c-0.03863,38.63418 -28.73968,72.57392 -66.87589,78.91614c-8.73615,1.45286 -17.70554,1.44207 -26.43817,-0.03182c-9.47016,-1.59837 -18.63541,-4.91493 -26.93544,-9.74693c-8.80816,-5.12782 -16.60994,-11.94575 -22.87169,-19.98745c-6.59029,-8.46363 -11.44495,-18.24756 -14.19839,-28.61499c-2.61617,-9.85058 -3.32631,-20.18729 -2.08184,-30.3031c1.17268,-9.53224 4.07548,-18.83681 8.53095,-27.3449c4.13326,-7.8928 9.59067,-15.08051 16.08297,-21.18216c28.06389,-26.37523 72.33512,-28.74108 103.05011,-5.50697c8.55495,6.47132 15.77476,14.66688 21.11574,23.96951c4.62233,8.05093 7.82516,16.90238 9.4249,26.047c1.46168,8.3554 1.58341,16.93689 0.35934,25.3304c-4.9426,33.8916 -31.87299,61.50841 -65.62947,67.3023c-9.78174,1.67892 -19.86196,1.51744 -29.5849,-0.47394c-10.24672,-2.09865 -20.05617,-6.22313 -28.72388,-12.07722c-9.15532,-6.18342 -16.99202,-14.26885 -22.88645,-23.61284c-6.35141,-10.06839 -10.40603,-21.53876 -11.79304,-33.36201c-1.23735,-10.54754 -0.34955,-21.32072 2.59778,-31.52341c2.81377,-9.74033 7.49203,-18.92233 13.71797,-26.92415c5.86489,-7.53779 13.08279,-14.00468 21.2171,-19.0095c7.49729,-4.61288 15.75352,-7.97363 24.34104,-9.90817c36.53678,-8.23075 74.92993,10.85931 90.41908,44.95869c4.70456,10.35708 7.14659,21.68249 7.16217,33.05588"/></g></svg>