<svg xmlns="http://www.w3.org/2000/svg" class="canvas svelte-gfhzhs" viewBox="0 0 200 200"><g class="lissajous" fill="none" stroke="hsl(33, 22%, 92%)" stroke-width="3" stroke-linecap="square" stroke-linejoin="round"><path d="M100.06371,100c8.83935,13.25902 17.65262,26.54653 26.97669,39.47239c9.07734,12.58382 18.68767,26.38961 31.27612,35.76492c1.77084,1.31884 3.64321,2.53358 5.65953,3.44433c1.26419,0.57102 2.59645,1.02435 3.9738,1.21919c9.58248,1.35557 11.4554,-11.45619 11.89644,-18.26249c0.30379,-4.68826 0.14125,-9.40335 -0.24596,-14.08162c-0.61344,-7.41156 -1.81469,-14.77262 -3.36499,-22.0429c-5.34372,-25.05993 -14.56403,-50.13463 -28.66552,-71.63177c-7.33557,-11.18277 -16.47032,-22.04883 -28.33639,-28.60084c-3.56005,-1.96573 -7.36965,-3.49888 -11.34257,-4.39019c-25.34976,-5.68708 -45.54035,16.74986 -57.51978,36.06071c-2.26675,3.654 -4.37921,7.40302 -6.36,11.21931c-2.4749,4.76827 -4.74483,9.64226 -6.83622,14.59041c-2.7056,6.40135 -5.11411,12.92823 -7.24321,19.54341c-2.6761,8.31474 -4.92037,16.77484 -6.646,25.33838c-2.33326,11.57893 -4.08541,23.72599 -3.00083,35.55704c0.44394,4.84269 1.31582,10.726 4.85493,14.39162c4.30429,4.45817 10.60223,1.74226 14.94888,-1.16542c10.64044,-7.1179 18.89216,-18.15221 26.53344,-28.21702c25.24258,-33.24862 45.64257,-69.99531 71.70468,-102.6364c6.25911,-7.83913 12.98423,-16.04543 21.33066,-21.77013c3.32976,-2.28383 7.8144,-4.75883 11.98466,-3.46147c5.21308,1.62177 6.8929,8.22118 7.64946,12.93622c2.06814,12.88896 -0.07602,26.61207 -2.65067,39.26265c-3.74562,18.40415 -9.72589,36.48134 -17.82377,53.43075c-5.82067,12.18305 -12.83864,24.02098 -21.87605,34.11179c-10.78532,12.04244 -25.80073,22.17062 -42.69752,19.46104c-14.9426,-2.3962 -26.96316,-13.49338 -35.92325,-25.01495c-18.81967,-24.19975 -30.0506,-55.26249 -35.61543,-85.16858c-2.16869,-11.65484 -3.88638,-24.15978 -1.99595,-35.9795c0.71238,-4.4541 2.14698,-10.31018 6.54794,-12.56704c5.41391,-2.77631 11.88957,1.80802 15.9389,5.04952c11.76516,9.41805 20.95214,22.3038 29.70532,34.41707c9.3847,12.98722 18.24645,26.34527 27.13302,39.6751"/></g></svg>