<svg xmlns="http://www.w3.org/2000/svg" xmlns:xlink="http://www.w3.org/1999/xlink" width="500" zoomAndPan="magnify" viewBox="0 0 375 374.999991" height="500" preserveAspectRatio="xMidYMid meet" version="1.0"><defs><clipPath id="3089aad446"><path d="M 37.5 37.5 L 337.5 37.5 L 337.5 337.5 L 37.5 337.5 Z M 37.5 37.5 " clip-rule="nonzero"/></clipPath></defs><g clip-path="url(#3089aad446)"><path fill="#ffffff" d="M 187.480469 37.535156 C 149.066406 37.53125 110.652344 52.171875 81.390625 81.433594 C 22.863281 139.960938 22.863281 235.121094 81.390625 293.648438 C 139.917969 352.171875 235.046875 352.140625 293.570312 293.617188 C 352.097656 235.089844 352.097656 139.960938 293.570312 81.433594 C 264.308594 52.171875 225.894531 37.542969 187.480469 37.535156 Z M 187.480469 53.238281 C 221.820312 53.242188 256.15625 66.359375 282.402344 92.601562 C 334.894531 145.089844 334.890625 229.957031 282.402344 282.449219 C 229.914062 334.9375 145.046875 334.96875 92.558594 282.480469 C 40.066406 229.988281 40.066406 145.09375 92.558594 92.601562 C 118.800781 66.355469 153.140625 53.234375 187.480469 53.238281 Z M 187.324219 100.683594 C 186.808594 100.691406 186.292969 100.75 185.789062 100.859375 C 185.28125 100.96875 184.789062 101.128906 184.3125 101.332031 C 183.835938 101.539062 183.386719 101.789062 182.960938 102.085938 C 182.53125 102.378906 182.140625 102.710938 181.777344 103.085938 C 181.417969 103.457031 181.097656 103.863281 180.8125 104.296875 C 180.53125 104.734375 180.296875 105.191406 180.105469 105.675781 C 179.914062 106.15625 179.773438 106.652344 179.679688 107.164062 C 179.585938 107.671875 179.542969 108.1875 179.550781 108.707031 L 179.550781 179.628906 L 108.476562 179.628906 C 107.953125 179.621094 107.433594 179.664062 106.917969 179.761719 C 106.40625 179.855469 105.90625 180 105.417969 180.195312 C 104.933594 180.390625 104.472656 180.632812 104.035156 180.917969 C 103.597656 181.207031 103.191406 181.535156 102.820312 181.902344 C 102.445312 182.269531 102.113281 182.667969 101.820312 183.101562 C 101.527344 183.535156 101.28125 183.996094 101.078125 184.476562 C 100.875 184.960938 100.722656 185.457031 100.621094 185.972656 C 100.515625 186.484375 100.464844 187.003906 100.464844 187.523438 C 100.464844 188.046875 100.515625 188.566406 100.621094 189.078125 C 100.722656 189.59375 100.875 190.089844 101.078125 190.574219 C 101.28125 191.054688 101.527344 191.515625 101.820312 191.949219 C 102.113281 192.382812 102.445312 192.78125 102.820312 193.148438 C 103.191406 193.515625 103.597656 193.84375 104.035156 194.128906 C 104.472656 194.417969 104.933594 194.660156 105.417969 194.855469 C 105.90625 195.050781 106.40625 195.195312 106.917969 195.289062 C 107.433594 195.386719 107.953125 195.429688 108.476562 195.421875 L 179.550781 195.421875 L 179.550781 267.023438 C 179.542969 267.546875 179.589844 268.066406 179.683594 268.582031 C 179.78125 269.09375 179.925781 269.59375 180.121094 270.082031 C 180.316406 270.566406 180.558594 271.027344 180.84375 271.464844 C 181.128906 271.902344 181.457031 272.308594 181.824219 272.679688 C 182.191406 273.054688 182.59375 273.386719 183.027344 273.679688 C 183.460938 273.972656 183.917969 274.21875 184.402344 274.421875 C 184.882812 274.625 185.382812 274.777344 185.894531 274.878906 C 186.40625 274.980469 186.925781 275.03125 187.449219 275.03125 C 187.972656 275.03125 188.492188 274.980469 189.003906 274.878906 C 189.515625 274.777344 190.015625 274.625 190.496094 274.421875 C 190.980469 274.21875 191.4375 273.972656 191.871094 273.679688 C 192.304688 273.386719 192.707031 273.054688 193.074219 272.679688 C 193.441406 272.308594 193.769531 271.902344 194.054688 271.464844 C 194.339844 271.027344 194.582031 270.566406 194.777344 270.082031 C 194.972656 269.59375 195.117188 269.09375 195.214844 268.582031 C 195.308594 268.066406 195.355469 267.546875 195.347656 267.023438 L 195.347656 195.421875 L 266.085938 195.421875 C 266.605469 195.429688 267.125 195.386719 267.640625 195.289062 C 268.15625 195.195312 268.65625 195.050781 269.140625 194.855469 C 269.625 194.660156 270.085938 194.417969 270.523438 194.128906 C 270.964844 193.84375 271.367188 193.515625 271.742188 193.148438 C 272.113281 192.78125 272.445312 192.382812 272.738281 191.949219 C 273.03125 191.515625 273.28125 191.054688 273.480469 190.574219 C 273.683594 190.089844 273.835938 189.59375 273.9375 189.078125 C 274.042969 188.566406 274.09375 188.046875 274.09375 187.523438 C 274.09375 187.003906 274.042969 186.484375 273.9375 185.972656 C 273.835938 185.457031 273.683594 184.960938 273.480469 184.476562 C 273.28125 183.996094 273.03125 183.535156 272.738281 183.101562 C 272.445312 182.667969 272.113281 182.269531 271.742188 181.902344 C 271.367188 181.535156 270.964844 181.207031 270.523438 180.917969 C 270.085938 180.632812 269.625 180.390625 269.140625 180.195312 C 268.65625 180 268.15625 179.855469 267.640625 179.761719 C 267.125 179.664062 266.605469 179.621094 266.085938 179.628906 L 195.347656 179.628906 L 195.347656 108.707031 C 195.355469 108.175781 195.3125 107.652344 195.214844 107.132812 C 195.117188 106.613281 194.96875 106.105469 194.769531 105.617188 C 194.570312 105.125 194.324219 104.660156 194.035156 104.21875 C 193.742188 103.777344 193.410156 103.371094 193.035156 102.996094 C 192.660156 102.621094 192.253906 102.289062 191.8125 101.996094 C 191.371094 101.707031 190.90625 101.460938 190.414062 101.261719 C 189.925781 101.0625 189.417969 100.914062 188.898438 100.816406 C 188.378906 100.722656 187.855469 100.675781 187.324219 100.683594 Z M 187.324219 100.683594 " fill-opacity="1" fill-rule="nonzero"/></g></svg>