<svg xmlns="http://www.w3.org/2000/svg" xmlns:xlink="http://www.w3.org/1999/xlink" width="500" zoomAndPan="magnify" viewBox="0 0 375 374.999991" height="500" preserveAspectRatio="xMidYMid meet" version="1.0"><defs><clipPath id="cf4f186144"><path d="M 37.5 87.410156 L 337.5 87.410156 L 337.5 287.660156 L 37.5 287.660156 Z M 37.5 87.410156 " clip-rule="nonzero"/></clipPath></defs><g clip-path="url(#cf4f186144)"><path fill="#ffffff" d="M 37.5 217.5 L 37.5 277.5 C 37.5 283.019531 41.980469 287.5 47.5 287.5 L 327.5 287.5 C 333.019531 287.5 337.5 283.019531 337.5 277.5 L 337.5 217.5 C 337.5 211.980469 333.019531 207.5 327.5 207.5 C 321.980469 207.5 317.5 211.980469 317.5 217.5 L 317.5 267.5 C 317.5 267.5 57.5 267.5 57.5 267.5 C 57.5 267.5 57.5 217.5 57.5 217.5 C 57.5 211.980469 53.019531 207.5 47.5 207.5 C 41.980469 207.5 37.5 211.980469 37.5 217.5 Z M 177.5 194.660156 L 164.28125 182.457031 C 160.230469 178.71875 153.898438 178.96875 150.148438 183.019531 C 146.410156 187.078125 146.660156 193.410156 150.71875 197.160156 L 180.71875 224.847656 C 184.550781 228.378906 190.449219 228.378906 194.28125 224.847656 L 224.28125 197.160156 C 228.339844 193.410156 228.589844 187.078125 224.851562 183.019531 C 221.101562 178.96875 214.769531 178.71875 210.71875 182.457031 L 197.5 194.660156 L 197.5 97.5 C 197.5 91.980469 193.019531 87.5 187.5 87.5 C 181.980469 87.5 177.5 91.980469 177.5 97.5 Z M 177.5 194.660156 " fill-opacity="1" fill-rule="evenodd"/></g></svg>