<svg xmlns="http://www.w3.org/2000/svg" xmlns:xlink="http://www.w3.org/1999/xlink" width="500" zoomAndPan="magnify" viewBox="0 0 375 374.999991" height="500" preserveAspectRatio="xMidYMid meet" version="1.0"><defs><clipPath id="04b5f1b4f9"><path d="M 37.5 89.4375 L 337.5 89.4375 L 337.5 285.9375 L 37.5 285.9375 Z M 37.5 89.4375 " clip-rule="nonzero"/></clipPath></defs><g clip-path="url(#04b5f1b4f9)"><path fill="#ffffff" d="M 37.5 187.480469 C 49.398438 186.796875 61.300781 186.1875 73.199219 185.609375 C 85.097656 185.023438 97 184.480469 108.898438 183.957031 L 113.359375 183.761719 L 114.585938 183.710938 C 115.09375 183.699219 115.609375 183.710938 116.117188 183.753906 C 117.140625 183.835938 118.152344 184.035156 119.128906 184.324219 C 121.082031 184.910156 122.855469 185.871094 124.390625 187.027344 C 125.9375 188.179688 127.265625 189.527344 128.414062 190.964844 C 129.5625 192.402344 130.527344 193.9375 131.351562 195.527344 C 131.757812 196.320312 132.136719 197.128906 132.472656 197.945312 C 132.816406 198.765625 133.125 199.589844 133.378906 200.429688 C 133.636719 201.269531 133.847656 202.121094 134.011719 202.976562 L 134.070312 203.296875 L 134.121094 203.589844 L 134.214844 204.136719 C 134.273438 204.5 134.332031 204.871094 134.386719 205.238281 C 134.605469 206.707031 134.800781 208.171875 135.039062 209.636719 C 135.277344 211.097656 135.546875 212.554688 135.804688 214.007812 L 136.605469 218.371094 C 137.144531 221.277344 137.699219 224.175781 138.273438 227.066406 C 139.429688 232.84375 140.667969 238.589844 142.078125 244.242188 C 142.789062 247.070312 143.539062 249.875 144.355469 252.640625 C 145.175781 255.398438 146.058594 258.121094 147.046875 260.753906 C 148.03125 263.378906 149.125 265.929688 150.371094 268.226562 C 150.996094 269.375 151.660156 270.453125 152.355469 271.40625 C 153.050781 272.351562 153.785156 273.171875 154.46875 273.734375 C 154.8125 274.015625 155.136719 274.238281 155.425781 274.386719 C 155.714844 274.542969 155.964844 274.636719 156.1875 274.683594 C 156.410156 274.730469 156.632812 274.753906 156.863281 274.734375 C 157.085938 274.71875 157.300781 274.671875 157.550781 274.578125 C 157.800781 274.480469 158.09375 274.332031 158.410156 274.113281 C 158.734375 273.898438 159.078125 273.613281 159.429688 273.277344 C 160.136719 272.597656 160.859375 271.695312 161.539062 270.6875 C 162.21875 269.675781 162.867188 268.554688 163.46875 267.375 C 164.074219 266.195312 164.644531 264.960938 165.179688 263.6875 C 166.25 261.144531 167.203125 258.46875 168.074219 255.75 C 169.816406 250.296875 171.265625 244.648438 172.582031 238.945312 C 173.890625 233.238281 175.066406 227.464844 176.167969 221.664062 C 178.371094 210.058594 180.308594 198.347656 182.265625 186.617188 C 184.222656 174.878906 186.167969 163.105469 188.40625 151.324219 C 189.53125 145.433594 190.726562 139.542969 192.078125 133.652344 C 193.4375 127.761719 194.941406 121.871094 196.820312 115.984375 C 197.761719 113.042969 198.804688 110.101562 200.042969 107.164062 C 200.664062 105.695312 201.335938 104.222656 202.085938 102.757812 C 202.84375 101.289062 203.671875 99.820312 204.65625 98.363281 C 205.636719 96.910156 206.761719 95.457031 208.195312 94.066406 C 208.917969 93.375 209.714844 92.703125 210.628906 92.082031 C 211.539062 91.464844 212.566406 90.90625 213.707031 90.472656 C 214.847656 90.046875 216.09375 89.757812 217.359375 89.671875 C 218.617188 89.578125 219.890625 89.679688 221.121094 89.953125 C 222.347656 90.226562 223.496094 90.683594 224.519531 91.226562 C 225.546875 91.769531 226.441406 92.402344 227.253906 93.070312 C 228.863281 94.402344 230.09375 95.851562 231.160156 97.300781 C 232.21875 98.753906 233.109375 100.214844 233.90625 101.679688 C 235.496094 104.613281 236.738281 107.554688 237.84375 110.492188 C 238.949219 113.433594 239.898438 116.375 240.773438 119.320312 C 241.644531 122.261719 242.429688 125.207031 243.167969 128.152344 C 244.640625 134.042969 245.90625 139.933594 247.085938 145.824219 C 248.261719 151.714844 249.335938 157.605469 250.378906 163.492188 C 250.65625 164.960938 250.96875 166.421875 251.257812 167.886719 C 251.328125 168.253906 251.398438 168.621094 251.460938 168.988281 L 251.554688 169.539062 L 251.632812 170.023438 L 251.933594 171.84375 C 252.335938 174.261719 253.097656 176.605469 254.230469 178.609375 C 255.359375 180.613281 256.875 182.246094 258.589844 183.121094 C 259.019531 183.339844 259.460938 183.515625 259.914062 183.636719 C 260.140625 183.699219 260.375 183.746094 260.613281 183.785156 L 260.789062 183.808594 C 260.867188 183.816406 260.96875 183.816406 261.058594 183.820312 L 261.617188 183.84375 L 266.078125 184.035156 L 283.929688 184.832031 L 301.78125 185.660156 C 313.679688 186.226562 325.582031 186.820312 337.480469 187.476562 C 325.582031 188.132812 313.679688 188.726562 301.78125 189.292969 L 283.929688 190.121094 L 266.078125 190.917969 L 261.617188 191.109375 L 260.390625 191.160156 C 259.882812 191.175781 259.375 191.160156 258.867188 191.121094 C 257.847656 191.039062 256.84375 190.84375 255.871094 190.554688 C 253.929688 189.972656 252.160156 189.019531 250.628906 187.867188 C 249.085938 186.71875 247.761719 185.378906 246.617188 183.945312 C 244.328125 181.070312 242.742188 177.839844 241.644531 174.511719 C 241.375 173.675781 241.152344 172.828125 240.984375 171.972656 L 240.921875 171.652344 L 240.867188 171.359375 L 240.773438 170.8125 C 240.710938 170.445312 240.65625 170.078125 240.601562 169.710938 C 240.382812 168.242188 240.1875 166.777344 239.945312 165.3125 C 238.925781 159.476562 237.855469 153.660156 236.703125 147.882812 C 235.546875 142.105469 234.308594 136.359375 232.898438 130.707031 C 232.1875 127.878906 231.4375 125.074219 230.621094 122.308594 C 229.800781 119.550781 228.917969 116.828125 227.929688 114.195312 C 226.945312 111.570312 225.851562 109.019531 224.605469 106.722656 C 223.980469 105.574219 223.316406 104.492188 222.621094 103.542969 C 221.925781 102.597656 221.191406 101.777344 220.503906 101.214844 C 220.164062 100.933594 219.839844 100.710938 219.550781 100.5625 C 219.261719 100.40625 219.011719 100.3125 218.789062 100.265625 C 218.566406 100.21875 218.34375 100.195312 218.113281 100.214844 C 217.890625 100.230469 217.675781 100.277344 217.425781 100.371094 C 217.175781 100.464844 216.882812 100.617188 216.566406 100.835938 C 216.242188 101.050781 215.898438 101.335938 215.546875 101.671875 C 214.839844 102.351562 214.117188 103.253906 213.4375 104.261719 C 212.757812 105.273438 212.109375 106.394531 211.507812 107.574219 C 210.902344 108.753906 210.332031 109.988281 209.796875 111.261719 C 208.726562 113.804688 207.773438 116.476562 206.902344 119.199219 C 205.160156 124.652344 203.710938 130.300781 202.394531 136.003906 C 201.085938 141.710938 199.910156 147.484375 198.808594 153.285156 C 196.605469 164.890625 194.667969 176.601562 192.710938 188.332031 C 190.753906 200.070312 188.808594 211.84375 186.570312 223.625 C 185.445312 229.515625 184.25 235.40625 182.898438 241.296875 C 181.539062 247.1875 180.035156 253.078125 178.15625 258.964844 C 177.214844 261.90625 176.171875 264.847656 174.933594 267.785156 C 174.3125 269.253906 173.640625 270.726562 172.890625 272.191406 C 172.132812 273.660156 171.304688 275.128906 170.320312 276.585938 C 169.339844 278.039062 168.214844 279.492188 166.78125 280.882812 C 166.058594 281.574219 165.261719 282.246094 164.347656 282.867188 C 163.4375 283.484375 162.410156 284.042969 161.269531 284.472656 C 160.128906 284.902344 158.882812 285.191406 157.617188 285.277344 C 156.359375 285.371094 155.085938 285.269531 153.855469 284.996094 C 152.628906 284.722656 151.480469 284.265625 150.453125 283.722656 C 149.425781 283.179688 148.53125 282.546875 147.71875 281.878906 C 146.109375 280.546875 144.878906 279.097656 143.8125 277.648438 C 142.753906 276.195312 141.863281 274.734375 141.066406 273.269531 C 139.476562 270.335938 138.234375 267.394531 137.128906 264.453125 C 136.023438 261.515625 135.074219 258.574219 134.199219 255.628906 C 133.328125 252.6875 132.542969 249.742188 131.804688 246.796875 C 128.878906 235.015625 126.695312 223.226562 124.589844 211.457031 C 124.308594 209.988281 123.992188 208.53125 123.703125 207.0625 C 123.632812 206.695312 123.5625 206.328125 123.496094 205.960938 L 123.316406 204.925781 C 123.214844 204.316406 123.101562 203.714844 122.988281 203.113281 C 122.871094 202.515625 122.75 201.914062 122.605469 201.324219 C 122.457031 200.734375 122.289062 200.15625 122.101562 199.589844 C 121.722656 198.457031 121.246094 197.375 120.6875 196.375 C 119.566406 194.378906 118.054688 192.761719 116.359375 191.894531 C 115.9375 191.679688 115.5 191.503906 115.050781 191.386719 C 114.824219 191.324219 114.597656 191.277344 114.359375 191.238281 L 114.183594 191.214844 C 114.105469 191.207031 114.003906 191.207031 113.914062 191.203125 L 113.355469 191.179688 L 108.894531 190.984375 C 96.996094 190.460938 85.09375 189.921875 73.195312 189.332031 C 61.300781 188.773438 49.398438 188.164062 37.5 187.480469 Z M 37.5 187.480469 " fill-opacity="1" fill-rule="nonzero"/></g></svg>