<svg xmlns="http://www.w3.org/2000/svg" xmlns:xlink="http://www.w3.org/1999/xlink" width="500" zoomAndPan="magnify" viewBox="0 0 375 374.999991" height="500" preserveAspectRatio="xMidYMid meet" version="1.0"><defs><clipPath id="327fd8538c"><path d="M 37.5 38 L 337 38 L 337 336.75 L 37.5 336.75 Z M 37.5 38 " clip-rule="nonzero"/></clipPath></defs><g clip-path="url(#327fd8538c)"><path fill="#ffffff" d="M 230.925781 336.710938 C 228.125 336.710938 225.523438 335.183594 224.164062 332.695312 L 159.875 214.828125 L 42.003906 150.535156 C 39.328125 149.074219 37.765625 146.171875 38.015625 143.132812 C 38.269531 140.09375 40.292969 137.488281 43.175781 136.492188 L 326.472656 38.425781 C 329.261719 37.460938 332.355469 38.171875 334.441406 40.257812 C 336.527344 42.34375 337.238281 45.441406 336.273438 48.226562 L 238.210938 331.527344 C 237.210938 334.40625 234.605469 336.429688 231.566406 336.683594 C 231.351562 336.699219 231.136719 336.710938 230.925781 336.710938 Z M 64.683594 145.351562 L 169.242188 202.382812 C 170.539062 203.09375 171.609375 204.160156 172.316406 205.460938 L 229.347656 310.015625 L 316.523438 58.175781 Z M 64.683594 145.351562 " fill-opacity="1" fill-rule="nonzero"/></g><path fill="#ffffff" d="M 165.550781 216.851562 C 163.578125 216.851562 161.609375 216.101562 160.105469 214.597656 C 157.09375 211.585938 157.09375 206.707031 160.105469 203.699219 L 318.097656 45.707031 C 321.105469 42.699219 325.984375 42.699219 328.992188 45.707031 C 332.003906 48.714844 332.003906 53.59375 328.992188 56.605469 L 171 214.597656 C 169.496094 216.101562 167.523438 216.851562 165.550781 216.851562 Z M 165.550781 216.851562 " fill-opacity="1" fill-rule="nonzero"/></svg>