<svg xmlns="http://www.w3.org/2000/svg" xmlns:xlink="http://www.w3.org/1999/xlink" width="500" zoomAndPan="magnify" viewBox="0 0 375 374.999991" height="500" preserveAspectRatio="xMidYMid meet" version="1.0"><defs><clipPath id="549ca35905"><path d="M 70.875 37.5 L 304.125 37.5 L 304.125 337.5 L 70.875 337.5 Z M 70.875 37.5 " clip-rule="nonzero"/></clipPath></defs><g clip-path="url(#549ca35905)"><path fill="#ffffff" d="M 290.519531 93.121094 C 290.242188 92.96875 290.027344 92.917969 289.875 92.960938 C 288.832031 93.273438 285.699219 94.277344 280.484375 95.976562 C 275.789062 97.507812 272.664062 98.503906 271.105469 98.957031 C 262.914062 101.351562 254.40625 104.285156 245.929688 106.828125 C 238.757812 108.980469 230.769531 111.792969 223.085938 114.046875 C 221.972656 114.375 218.542969 115.449219 212.800781 117.277344 C 204.101562 120.046875 192.132812 123.722656 182.132812 127.105469 C 180.773438 127.566406 179.015625 127.925781 177.578125 128.386719 C 169.988281 130.835938 162.929688 133.097656 156.398438 135.160156 C 156.214844 135.21875 156.066406 135.328125 155.953125 135.480469 C 155.839844 135.636719 155.78125 135.808594 155.78125 136.003906 C 155.734375 190.78125 155.757812 243.015625 155.84375 292.710938 C 155.851562 296.769531 155.644531 299.777344 155.222656 301.746094 C 152.824219 313.019531 144.910156 321.855469 135.496094 328.0625 C 128.933594 332.390625 121.585938 335.269531 113.164062 336.65625 C 102.609375 338.390625 91.363281 336.660156 82.386719 330.460938 C 72.691406 323.769531 68.683594 311.527344 72.089844 300.355469 C 73.691406 295.089844 76.917969 289.742188 80.910156 285.433594 C 89.199219 276.488281 99.242188 270.8125 111.03125 268.402344 C 121.203125 266.324219 132.59375 266.957031 141.878906 272.027344 C 141.941406 272.0625 142.007812 272.078125 142.078125 272.074219 C 142.152344 272.074219 142.214844 272.054688 142.277344 272.019531 C 142.339844 271.984375 142.386719 271.933594 142.421875 271.875 C 142.457031 271.8125 142.472656 271.746094 142.472656 271.679688 L 142.472656 88.824219 C 142.472656 88.65625 142.554688 88.542969 142.714844 88.492188 L 303.453125 37.765625 C 303.523438 37.746094 303.59375 37.742188 303.664062 37.75 C 303.734375 37.761719 303.796875 37.789062 303.855469 37.832031 C 303.914062 37.875 303.957031 37.929688 303.988281 37.992188 C 304.023438 38.054688 304.039062 38.125 304.039062 38.195312 C 304.023438 113.976562 304.023438 176.285156 304.039062 225.121094 C 304.039062 237.585938 304.066406 244.789062 304.121094 246.730469 C 304.386719 256.222656 299.976562 265.25 293.457031 271.933594 C 290.015625 275.464844 286.402344 278.371094 282.617188 280.648438 C 281.425781 281.367188 279.410156 282.394531 276.574219 283.730469 C 274.074219 284.902344 271.972656 285.742188 270.273438 286.25 C 263.710938 288.210938 257.613281 289.082031 251.980469 288.863281 C 243.675781 288.542969 235.351562 285.898438 228.921875 280.601562 C 218.25 271.804688 216.992188 257.550781 223.242188 245.867188 C 229.054688 234.992188 239.382812 227.039062 250.898438 222.589844 C 259.058594 219.433594 267.453125 218.332031 276.082031 219.277344 C 281.378906 219.855469 285.375 221.152344 289.847656 223.53125 C 289.941406 223.582031 290.042969 223.605469 290.148438 223.601562 C 290.253906 223.597656 290.351562 223.570312 290.445312 223.515625 C 290.535156 223.460938 290.605469 223.386719 290.660156 223.292969 C 290.710938 223.203125 290.738281 223.101562 290.738281 222.996094 L 290.738281 93.492188 C 290.738281 93.324219 290.664062 93.203125 290.519531 93.121094 Z M 290.519531 93.121094 " fill-opacity="1" fill-rule="nonzero"/></g></svg>