<svg xmlns="http://www.w3.org/2000/svg" version="1.1" xmlns:xlink="http://www.w3.org/1999/xlink" width="1920" height="100" viewBox="0 0 1920 100"><polygon points="17,-20 17,0 0,10 -17,0 -17,-20 0,-30" fill="#a19d9b" stroke-width="1" stroke="#a19d9b"></polygon><polygon points="52,-20 52,0 35,10 17,0 17,-20 35,-30" fill="#daf6f2" stroke-width="1" stroke="#daf6f2"></polygon><polygon points="87,-20 87,0 69,10 52,0 52,-20 69,-30" fill="#fffbdb" stroke-width="1" stroke="#fffbdb"></polygon><polygon points="121,-20 121,0 104,10 87,0 87,-20 104,-30" fill="#fffbdb" stroke-width="1" stroke="#fffbdb"></polygon><polygon points="156,-20 156,0 139,10 121,0 121,-20 139,-30" fill="#7a7775" stroke-width="1" stroke="#7a7775"></polygon><polygon points="191,-20 191,0 173,10 156,0 156,-20 173,-30" fill="#daf6f2" stroke-width="1" stroke="#daf6f2"></polygon><polygon points="225,-20 225,0 208,10 191,0 191,-20 208,-30" fill="#7a7775" stroke-width="1" stroke="#7a7775"></polygon><polygon points="260,-20 260,0 242,10 225,0 225,-20 242,-30" fill="#ffd6d6" stroke-width="1" stroke="#ffd6d6"></polygon><polygon points="294,-20 294,0 277,10 260,0 260,-20 277,-30" fill="#ffd6d6" stroke-width="1" stroke="#ffd6d6"></polygon><polygon points="329,-20 329,0 312,10 294,0 294,-20 312,-30" fill="#7a7775" stroke-width="1" stroke="#7a7775"></polygon><polygon points="364,-20 364,0 346,10 329,0 329,-20 346,-30" fill="#daf6f2" stroke-width="1" stroke="#daf6f2"></polygon><polygon points="398,-20 398,0 381,10 364,0 364,-20 381,-30" fill="#a19d9b" stroke-width="1" stroke="#a19d9b"></polygon><polygon points="433,-20 433,0 416,10 398,0 398,-20 416,-30" fill="#ffd6d6" stroke-width="1" stroke="#ffd6d6"></polygon><polygon points="468,-20 468,0 450,10 433,0 433,-20 450,-30" fill="#ffd6d6" stroke-width="1" stroke="#ffd6d6"></polygon><polygon points="502,-20 502,0 485,10 468,0 468,-20 485,-30" fill="#ffd6d6" stroke-width="1" stroke="#ffd6d6"></polygon><polygon points="537,-20 537,0 520,10 502,0 502,-20 520,-30" fill="#fffbdb" stroke-width="1" stroke="#fffbdb"></polygon><polygon points="572,-20 572,0 554,10 537,0 537,-20 554,-30" fill="#ffd6d6" stroke-width="1" stroke="#ffd6d6"></polygon><polygon points="606,-20 606,0 589,10 572,0 572,-20 589,-30" fill="#ffd6d6" stroke-width="1" stroke="#ffd6d6"></polygon><polygon points="641,-20 641,0 624,10 606,0 606,-20 624,-30" fill="#fffbdb" stroke-width="1" stroke="#fffbdb"></polygon><polygon points="675,-20 675,0 658,10 641,0 641,-20 658,-30" fill="#ffd6d6" stroke-width="1" stroke="#ffd6d6"></polygon><polygon points="710,-20 710,0 693,10 675,0 675,-20 693,-30" fill="#f49f9f" stroke-width="1" stroke="#f49f9f"></polygon><polygon points="745,-20 745,0 727,10 710,0 710,-20 727,-30" fill="#f49f9f" stroke-width="1" stroke="#f49f9f"></polygon><polygon points="779,-20 779,0 762,10 745,0 745,-20 762,-30" fill="#d69999" stroke-width="1" stroke="#d69999"></polygon><polygon points="814,-20 814,0 797,10 779,0 779,-20 797,-30" fill="#d69999" stroke-width="1" stroke="#d69999"></polygon><polygon points="849,-20 849,0 831,10 814,0 814,-20 831,-30" fill="#d69999" stroke-width="1" stroke="#d69999"></polygon><polygon points="883,-20 883,0 866,10 849,0 849,-20 866,-30" fill="#f49f9f" stroke-width="1" stroke="#f49f9f"></polygon><polygon points="918,-20 918,0 901,10 883,0 883,-20 901,-30" fill="#ffd6d6" stroke-width="1" stroke="#ffd6d6"></polygon><polygon points="953,-20 953,0 935,10 918,0 918,-20 935,-30" fill="#ffd6d6" stroke-width="1" stroke="#ffd6d6"></polygon><polygon points="987,-20 987,0 970,10 953,0 953,-20 970,-30" fill="#d69999" stroke-width="1" stroke="#d69999"></polygon><polygon points="1022,-20 1022,0 1005,10 987,0 987,-20 1005,-30" fill="#ffd6d6" stroke-width="1" stroke="#ffd6d6"></polygon><polygon points="1057,-20 1057,0 1039,10 1022,0 1022,-20 1039,-30" fill="#d69999" stroke-width="1" stroke="#d69999"></polygon><polygon points="1091,-20 1091,0 1074,10 1057,0 1057,-20 1074,-30" fill="#d69999" stroke-width="1" stroke="#d69999"></polygon><polygon points="1126,-20 1126,0 1109,10 1091,0 1091,-20 1109,-30" fill="#d69999" stroke-width="1" stroke="#d69999"></polygon><polygon points="1160,-20 1160,0 1143,10 1126,0 1126,-20 1143,-30" fill="#f49f9f" stroke-width="1" stroke="#f49f9f"></polygon><polygon points="1195,-20 1195,0 1178,10 1160,0 1160,-20 1178,-30" fill="#fffbdb" stroke-width="1" stroke="#fffbdb"></polygon><polygon points="1230,-20 1230,0 1212,10 1195,0 1195,-20 1212,-30" fill="#d69999" stroke-width="1" stroke="#d69999"></polygon><polygon points="1264,-20 1264,0 1247,10 1230,0 1230,-20 1247,-30" fill="#daf6f2" stroke-width="1" stroke="#daf6f2"></polygon><polygon points="1299,-20 1299,0 1282,10 1264,0 1264,-20 1282,-30" fill="#f49f9f" stroke-width="1" stroke="#f49f9f"></polygon><polygon points="1334,-20 1334,0 1316,10 1299,0 1299,-20 1316,-30" fill="#f49f9f" stroke-width="1" stroke="#f49f9f"></polygon><polygon points="1368,-20 1368,0 1351,10 1334,0 1334,-20 1351,-30" fill="#daf6f2" stroke-width="1" stroke="#daf6f2"></polygon><polygon points="1403,-20 1403,0 1386,10 1368,0 1368,-20 1386,-30" fill="#fffbdb" stroke-width="1" stroke="#fffbdb"></polygon><polygon points="1438,-20 1438,0 1420,10 1403,0 1403,-20 1420,-30" fill="#a19d9b" stroke-width="1" stroke="#a19d9b"></polygon><polygon points="1472,-20 1472,0 1455,10 1438,0 1438,-20 1455,-30" fill="#daf6f2" stroke-width="1" stroke="#daf6f2"></polygon><polygon points="1507,-20 1507,0 1490,10 1472,0 1472,-20 1490,-30" fill="#a19d9b" stroke-width="1" stroke="#a19d9b"></polygon><polygon points="1542,-20 1542,0 1524,10 1507,0 1507,-20 1524,-30" fill="#7a7775" stroke-width="1" stroke="#7a7775"></polygon><polygon points="1576,-20 1576,0 1559,10 1542,0 1542,-20 1559,-30" fill="#daf6f2" stroke-width="1" stroke="#daf6f2"></polygon><polygon points="1611,-20 1611,0 1593,10 1576,0 1576,-20 1593,-30" fill="#daf6f2" stroke-width="1" stroke="#daf6f2"></polygon><polygon points="1645,-20 1645,0 1628,10 1611,0 1611,-20 1628,-30" fill="#fffbdb" stroke-width="1" stroke="#fffbdb"></polygon><polygon points="1680,-20 1680,0 1663,10 1645,0 1645,-20 1663,-30" fill="#a19d9b" stroke-width="1" stroke="#a19d9b"></polygon><polygon points="1715,-20 1715,0 1697,10 1680,0 1680,-20 1697,-30" fill="#7a7775" stroke-width="1" stroke="#7a7775"></polygon><polygon points="1749,-20 1749,0 1732,10 1715,0 1715,-20 1732,-30" fill="#a19d9b" stroke-width="1" stroke="#a19d9b"></polygon><polygon points="1784,-20 1784,0 1767,10 1749,0 1749,-20 1767,-30" fill="#fffbdb" stroke-width="1" stroke="#fffbdb"></polygon><polygon points="1819,-20 1819,0 1801,10 1784,0 1784,-20 1801,-30" fill="#7a7775" stroke-width="1" stroke="#7a7775"></polygon><polygon points="1853,-20 1853,0 1836,10 1819,0 1819,-20 1836,-30" fill="#fffbdb" stroke-width="1" stroke="#fffbdb"></polygon><polygon points="1888,-20 1888,0 1871,10 1853,0 1853,-20 1871,-30" fill="#f49f9f" stroke-width="1" stroke="#f49f9f"></polygon><polygon points="1923,-20 1923,0 1905,10 1888,0 1888,-20 1905,-30" fill="#ffd6d6" stroke-width="1" stroke="#ffd6d6"></polygon><polygon points="1957,-20 1957,0 1940,10 1923,0 1923,-20 1940,-30" fill="#ffd6d6" stroke-width="1" stroke="#ffd6d6"></polygon><polygon points="35,10 35,30 17,40 0,30 0,10 17,0" fill="#7a7775" stroke-width="1" stroke="#7a7775"></polygon><polygon points="69,10 69,30 52,40 35,30 35,10 52,0" fill="#daf6f2" stroke-width="1" stroke="#daf6f2"></polygon><polygon points="104,10 104,30 87,40 69,30 69,10 87,0" fill="#fffbdb" stroke-width="1" stroke="#fffbdb"></polygon><polygon points="139,10 139,30 121,40 104,30 104,10 121,0" fill="#a19d9b" stroke-width="1" stroke="#a19d9b"></polygon><polygon points="173,10 173,30 156,40 139,30 139,10 156,0" fill="#fffbdb" stroke-width="1" stroke="#fffbdb"></polygon><polygon points="208,10 208,30 191,40 173,30 173,10 191,0" fill="#a19d9b" stroke-width="1" stroke="#a19d9b"></polygon><polygon points="242,10 242,30 225,40 208,30 208,10 225,0" fill="#a19d9b" stroke-width="1" stroke="#a19d9b"></polygon><polygon points="277,10 277,30 260,40 242,30 242,10 260,0" fill="#daf6f2" stroke-width="1" stroke="#daf6f2"></polygon><polygon points="312,10 312,30 294,40 277,30 277,10 294,0" fill="#7a7775" stroke-width="1" stroke="#7a7775"></polygon><polygon points="346,10 346,30 329,40 312,30 312,10 329,0" fill="#a19d9b" stroke-width="1" stroke="#a19d9b"></polygon><polygon points="381,10 381,30 364,40 346,30 346,10 364,0" fill="#7a7775" stroke-width="1" stroke="#7a7775"></polygon><polygon points="416,10 416,30 398,40 381,30 381,10 398,0" fill="#ffd6d6" stroke-width="1" stroke="#ffd6d6"></polygon><polygon points="450,10 450,30 433,40 416,30 416,10 433,0" fill="#fffbdb" stroke-width="1" stroke="#fffbdb"></polygon><polygon points="485,10 485,30 468,40 450,30 450,10 468,0" fill="#f49f9f" stroke-width="1" stroke="#f49f9f"></polygon><polygon points="520,10 520,30 502,40 485,30 485,10 502,0" fill="#daf6f2" stroke-width="1" stroke="#daf6f2"></polygon><polygon points="554,10 554,30 537,40 520,30 520,10 537,0" fill="#f49f9f" stroke-width="1" stroke="#f49f9f"></polygon><polygon points="589,10 589,30 572,40 554,30 554,10 572,0" fill="#fffbdb" stroke-width="1" stroke="#fffbdb"></polygon><polygon points="624,10 624,30 606,40 589,30 589,10 606,0" fill="#f49f9f" stroke-width="1" stroke="#f49f9f"></polygon><polygon points="658,10 658,30 641,40 624,30 624,10 641,0" fill="#daf6f2" stroke-width="1" stroke="#daf6f2"></polygon><polygon points="693,10 693,30 675,40 658,30 658,10 675,0" fill="#ffd6d6" stroke-width="1" stroke="#ffd6d6"></polygon><polygon points="727,10 727,30 710,40 693,30 693,10 710,0" fill="#fffbdb" stroke-width="1" stroke="#fffbdb"></polygon><polygon points="762,10 762,30 745,40 727,30 727,10 745,0" fill="#f49f9f" stroke-width="1" stroke="#f49f9f"></polygon><polygon points="797,10 797,30 779,40 762,30 762,10 779,0" fill="#d69999" stroke-width="1" stroke="#d69999"></polygon><polygon points="831,10 831,30 814,40 797,30 797,10 814,0" fill="#d69999" stroke-width="1" stroke="#d69999"></polygon><polygon points="866,10 866,30 849,40 831,30 831,10 849,0" fill="#d69999" stroke-width="1" stroke="#d69999"></polygon><polygon points="901,10 901,30 883,40 866,30 866,10 883,0" fill="#f49f9f" stroke-width="1" stroke="#f49f9f"></polygon><polygon points="935,10 935,30 918,40 901,30 901,10 918,0" fill="#f49f9f" stroke-width="1" stroke="#f49f9f"></polygon><polygon points="970,10 970,30 953,40 935,30 935,10 953,0" fill="#d69999" stroke-width="1" stroke="#d69999"></polygon><polygon points="1005,10 1005,30 987,40 970,30 970,10 987,0" fill="#d69999" stroke-width="1" stroke="#d69999"></polygon><polygon points="1039,10 1039,30 1022,40 1005,30 1005,10 1022,0" fill="#d69999" stroke-width="1" stroke="#d69999"></polygon><polygon points="1074,10 1074,30 1057,40 1039,30 1039,10 1057,0" fill="#d69999" stroke-width="1" stroke="#d69999"></polygon><polygon points="1109,10 1109,30 1091,40 1074,30 1074,10 1091,0" fill="#fffbdb" stroke-width="1" stroke="#fffbdb"></polygon><polygon points="1143,10 1143,30 1126,40 1109,30 1109,10 1126,0" fill="#ffd6d6" stroke-width="1" stroke="#ffd6d6"></polygon><polygon points="1178,10 1178,30 1160,40 1143,30 1143,10 1160,0" fill="#f49f9f" stroke-width="1" stroke="#f49f9f"></polygon><polygon points="1212,10 1212,30 1195,40 1178,30 1178,10 1195,0" fill="#d69999" stroke-width="1" stroke="#d69999"></polygon><polygon points="1247,10 1247,30 1230,40 1212,30 1212,10 1230,0" fill="#d69999" stroke-width="1" stroke="#d69999"></polygon><polygon points="1282,10 1282,30 1264,40 1247,30 1247,10 1264,0" fill="#fffbdb" stroke-width="1" stroke="#fffbdb"></polygon><polygon points="1316,10 1316,30 1299,40 1282,30 1282,10 1299,0" fill="#7a7775" stroke-width="1" stroke="#7a7775"></polygon><polygon points="1351,10 1351,30 1334,40 1316,30 1316,10 1334,0" fill="#fffbdb" stroke-width="1" stroke="#fffbdb"></polygon><polygon points="1386,10 1386,30 1368,40 1351,30 1351,10 1368,0" fill="#daf6f2" stroke-width="1" stroke="#daf6f2"></polygon><polygon points="1420,10 1420,30 1403,40 1386,30 1386,10 1403,0" fill="#fffbdb" stroke-width="1" stroke="#fffbdb"></polygon><polygon points="1455,10 1455,30 1438,40 1420,30 1420,10 1438,0" fill="#7a7775" stroke-width="1" stroke="#7a7775"></polygon><polygon points="1490,10 1490,30 1472,40 1455,30 1455,10 1472,0" fill="#daf6f2" stroke-width="1" stroke="#daf6f2"></polygon><polygon points="1524,10 1524,30 1507,40 1490,30 1490,10 1507,0" fill="#daf6f2" stroke-width="1" stroke="#daf6f2"></polygon><polygon points="1559,10 1559,30 1542,40 1524,30 1524,10 1542,0" fill="#daf6f2" stroke-width="1" stroke="#daf6f2"></polygon><polygon points="1593,10 1593,30 1576,40 1559,30 1559,10 1576,0" fill="#7a7775" stroke-width="1" stroke="#7a7775"></polygon><polygon points="1628,10 1628,30 1611,40 1593,30 1593,10 1611,0" fill="#fffbdb" stroke-width="1" stroke="#fffbdb"></polygon><polygon points="1663,10 1663,30 1645,40 1628,30 1628,10 1645,0" fill="#daf6f2" stroke-width="1" stroke="#daf6f2"></polygon><polygon points="1697,10 1697,30 1680,40 1663,30 1663,10 1680,0" fill="#ffd6d6" stroke-width="1" stroke="#ffd6d6"></polygon><polygon points="1732,10 1732,30 1715,40 1697,30 1697,10 1715,0" fill="#daf6f2" stroke-width="1" stroke="#daf6f2"></polygon><polygon points="1767,10 1767,30 1749,40 1732,30 1732,10 1749,0" fill="#ffd6d6" stroke-width="1" stroke="#ffd6d6"></polygon><polygon points="1801,10 1801,30 1784,40 1767,30 1767,10 1784,0" fill="#7a7775" stroke-width="1" stroke="#7a7775"></polygon><polygon points="1836,10 1836,30 1819,40 1801,30 1801,10 1819,0" fill="#7a7775" stroke-width="1" stroke="#7a7775"></polygon><polygon points="1871,10 1871,30 1853,40 1836,30 1836,10 1853,0" fill="#fffbdb" stroke-width="1" stroke="#fffbdb"></polygon><polygon points="1905,10 1905,30 1888,40 1871,30 1871,10 1888,0" fill="#ffd6d6" stroke-width="1" stroke="#ffd6d6"></polygon><polygon points="1940,10 1940,30 1923,40 1905,30 1905,10 1923,0" fill="#fffbdb" stroke-width="1" stroke="#fffbdb"></polygon><polygon points="1975,10 1975,30 1957,40 1940,30 1940,10 1957,0" fill="#f49f9f" stroke-width="1" stroke="#f49f9f"></polygon><polygon points="17,40 17,60 0,70 -17,60 -17,40 0,30" fill="#7a7775" stroke-width="1" stroke="#7a7775"></polygon><polygon points="52,40 52,60 35,70 17,60 17,40 35,30" fill="#a19d9b" stroke-width="1" stroke="#a19d9b"></polygon><polygon points="87,40 87,60 69,70 52,60 52,40 69,30" fill="#fffbdb" stroke-width="1" stroke="#fffbdb"></polygon><polygon points="121,40 121,60 104,70 87,60 87,40 104,30" fill="#7a7775" stroke-width="1" stroke="#7a7775"></polygon><polygon points="156,40 156,60 139,70 121,60 121,40 139,30" fill="#daf6f2" stroke-width="1" stroke="#daf6f2"></polygon><polygon points="191,40 191,60 173,70 156,60 156,40 173,30" fill="#a19d9b" stroke-width="1" stroke="#a19d9b"></polygon><polygon points="225,40 225,60 208,70 191,60 191,40 208,30" fill="#fffbdb" stroke-width="1" stroke="#fffbdb"></polygon><polygon points="260,40 260,60 242,70 225,60 225,40 242,30" fill="#daf6f2" stroke-width="1" stroke="#daf6f2"></polygon><polygon points="294,40 294,60 277,70 260,60 260,40 277,30" fill="#fffbdb" stroke-width="1" stroke="#fffbdb"></polygon><polygon points="329,40 329,60 312,70 294,60 294,40 312,30" fill="#a19d9b" stroke-width="1" stroke="#a19d9b"></polygon><polygon points="364,40 364,60 346,70 329,60 329,40 346,30" fill="#7a7775" stroke-width="1" stroke="#7a7775"></polygon><polygon points="398,40 398,60 381,70 364,60 364,40 381,30" fill="#a19d9b" stroke-width="1" stroke="#a19d9b"></polygon><polygon points="433,40 433,60 416,70 398,60 398,40 416,30" fill="#ffd6d6" stroke-width="1" stroke="#ffd6d6"></polygon><polygon points="468,40 468,60 450,70 433,60 433,40 450,30" fill="#ffd6d6" stroke-width="1" stroke="#ffd6d6"></polygon><polygon points="502,40 502,60 485,70 468,60 468,40 485,30" fill="#ffd6d6" stroke-width="1" stroke="#ffd6d6"></polygon><polygon points="537,40 537,60 520,70 502,60 502,40 520,30" fill="#7a7775" stroke-width="1" stroke="#7a7775"></polygon><polygon points="572,40 572,60 554,70 537,60 537,40 554,30" fill="#ffd6d6" stroke-width="1" stroke="#ffd6d6"></polygon><polygon points="606,40 606,60 589,70 572,60 572,40 589,30" fill="#daf6f2" stroke-width="1" stroke="#daf6f2"></polygon><polygon points="641,40 641,60 624,70 606,60 606,40 624,30" fill="#d69999" stroke-width="1" stroke="#d69999"></polygon><polygon points="675,40 675,60 658,70 641,60 641,40 658,30" fill="#daf6f2" stroke-width="1" stroke="#daf6f2"></polygon><polygon points="710,40 710,60 693,70 675,60 675,40 693,30" fill="#f49f9f" stroke-width="1" stroke="#f49f9f"></polygon><polygon points="745,40 745,60 727,70 710,60 710,40 727,30" fill="#d69999" stroke-width="1" stroke="#d69999"></polygon><polygon points="779,40 779,60 762,70 745,60 745,40 762,30" fill="#fffbdb" stroke-width="1" stroke="#fffbdb"></polygon><polygon points="814,40 814,60 797,70 779,60 779,40 797,30" fill="#ffd6d6" stroke-width="1" stroke="#ffd6d6"></polygon><polygon points="849,40 849,60 831,70 814,60 814,40 831,30" fill="#ffd6d6" stroke-width="1" stroke="#ffd6d6"></polygon><polygon points="883,40 883,60 866,70 849,60 849,40 866,30" fill="#d69999" stroke-width="1" stroke="#d69999"></polygon><polygon points="918,40 918,60 901,70 883,60 883,40 901,30" fill="#fffbdb" stroke-width="1" stroke="#fffbdb"></polygon><polygon points="953,40 953,60 935,70 918,60 918,40 935,30" fill="#ffd6d6" stroke-width="1" stroke="#ffd6d6"></polygon><polygon points="987,40 987,60 970,70 953,60 953,40 970,30" fill="#d69999" stroke-width="1" stroke="#d69999"></polygon><polygon points="1022,40 1022,60 1005,70 987,60 987,40 1005,30" fill="#fffbdb" stroke-width="1" stroke="#fffbdb"></polygon><polygon points="1057,40 1057,60 1039,70 1022,60 1022,40 1039,30" fill="#d69999" stroke-width="1" stroke="#d69999"></polygon><polygon points="1091,40 1091,60 1074,70 1057,60 1057,40 1074,30" fill="#d69999" stroke-width="1" stroke="#d69999"></polygon><polygon points="1126,40 1126,60 1109,70 1091,60 1091,40 1109,30" fill="#f49f9f" stroke-width="1" stroke="#f49f9f"></polygon><polygon points="1160,40 1160,60 1143,70 1126,60 1126,40 1143,30" fill="#fffbdb" stroke-width="1" stroke="#fffbdb"></polygon><polygon points="1195,40 1195,60 1178,70 1160,60 1160,40 1178,30" fill="#f49f9f" stroke-width="1" stroke="#f49f9f"></polygon><polygon points="1230,40 1230,60 1212,70 1195,60 1195,40 1212,30" fill="#daf6f2" stroke-width="1" stroke="#daf6f2"></polygon><polygon points="1264,40 1264,60 1247,70 1230,60 1230,40 1247,30" fill="#f49f9f" stroke-width="1" stroke="#f49f9f"></polygon><polygon points="1299,40 1299,60 1282,70 1264,60 1264,40 1282,30" fill="#fffbdb" stroke-width="1" stroke="#fffbdb"></polygon><polygon points="1334,40 1334,60 1316,70 1299,60 1299,40 1316,30" fill="#fffbdb" stroke-width="1" stroke="#fffbdb"></polygon><polygon points="1368,40 1368,60 1351,70 1334,60 1334,40 1351,30" fill="#daf6f2" stroke-width="1" stroke="#daf6f2"></polygon><polygon points="1403,40 1403,60 1386,70 1368,60 1368,40 1386,30" fill="#fffbdb" stroke-width="1" stroke="#fffbdb"></polygon><polygon points="1438,40 1438,60 1420,70 1403,60 1403,40 1420,30" fill="#daf6f2" stroke-width="1" stroke="#daf6f2"></polygon><polygon points="1472,40 1472,60 1455,70 1438,60 1438,40 1455,30" fill="#7a7775" stroke-width="1" stroke="#7a7775"></polygon><polygon points="1507,40 1507,60 1490,70 1472,60 1472,40 1490,30" fill="#a19d9b" stroke-width="1" stroke="#a19d9b"></polygon><polygon points="1542,40 1542,60 1524,70 1507,60 1507,40 1524,30" fill="#fffbdb" stroke-width="1" stroke="#fffbdb"></polygon><polygon points="1576,40 1576,60 1559,70 1542,60 1542,40 1559,30" fill="#a19d9b" stroke-width="1" stroke="#a19d9b"></polygon><polygon points="1611,40 1611,60 1593,70 1576,60 1576,40 1593,30" fill="#fffbdb" stroke-width="1" stroke="#fffbdb"></polygon><polygon points="1645,40 1645,60 1628,70 1611,60 1611,40 1628,30" fill="#fffbdb" stroke-width="1" stroke="#fffbdb"></polygon><polygon points="1680,40 1680,60 1663,70 1645,60 1645,40 1663,30" fill="#fffbdb" stroke-width="1" stroke="#fffbdb"></polygon><polygon points="1715,40 1715,60 1697,70 1680,60 1680,40 1697,30" fill="#a19d9b" stroke-width="1" stroke="#a19d9b"></polygon><polygon points="1749,40 1749,60 1732,70 1715,60 1715,40 1732,30" fill="#ffd6d6" stroke-width="1" stroke="#ffd6d6"></polygon><polygon points="1784,40 1784,60 1767,70 1749,60 1749,40 1767,30" fill="#daf6f2" stroke-width="1" stroke="#daf6f2"></polygon><polygon points="1819,40 1819,60 1801,70 1784,60 1784,40 1801,30" fill="#ffd6d6" stroke-width="1" stroke="#ffd6d6"></polygon><polygon points="1853,40 1853,60 1836,70 1819,60 1819,40 1836,30" fill="#fffbdb" stroke-width="1" stroke="#fffbdb"></polygon><polygon points="1888,40 1888,60 1871,70 1853,60 1853,40 1871,30" fill="#daf6f2" stroke-width="1" stroke="#daf6f2"></polygon><polygon points="1923,40 1923,60 1905,70 1888,60 1888,40 1905,30" fill="#7a7775" stroke-width="1" stroke="#7a7775"></polygon><polygon points="1957,40 1957,60 1940,70 1923,60 1923,40 1940,30" fill="#fffbdb" stroke-width="1" stroke="#fffbdb"></polygon><polygon points="35,70 35,90 17,100 0,90 0,70 17,60" fill="#a19d9b" stroke-width="1" stroke="#a19d9b"></polygon><polygon points="69,70 69,90 52,100 35,90 35,70 52,60" fill="#7a7775" stroke-width="1" stroke="#7a7775"></polygon><polygon points="104,70 104,90 87,100 69,90 69,70 87,60" fill="#a19d9b" stroke-width="1" stroke="#a19d9b"></polygon><polygon points="139,70 139,90 121,100 104,90 104,70 121,60" fill="#fffbdb" stroke-width="1" stroke="#fffbdb"></polygon><polygon points="173,70 173,90 156,100 139,90 139,70 156,60" fill="#7a7775" stroke-width="1" stroke="#7a7775"></polygon><polygon points="208,70 208,90 191,100 173,90 173,70 191,60" fill="#a19d9b" stroke-width="1" stroke="#a19d9b"></polygon><polygon points="242,70 242,90 225,100 208,90 208,70 225,60" fill="#daf6f2" stroke-width="1" stroke="#daf6f2"></polygon><polygon points="277,70 277,90 260,100 242,90 242,70 260,60" fill="#daf6f2" stroke-width="1" stroke="#daf6f2"></polygon><polygon points="312,70 312,90 294,100 277,90 277,70 294,60" fill="#a19d9b" stroke-width="1" stroke="#a19d9b"></polygon><polygon points="346,70 346,90 329,100 312,90 312,70 329,60" fill="#fffbdb" stroke-width="1" stroke="#fffbdb"></polygon><polygon points="381,70 381,90 364,100 346,90 346,70 364,60" fill="#ffd6d6" stroke-width="1" stroke="#ffd6d6"></polygon><polygon points="416,70 416,90 398,100 381,90 381,70 398,60" fill="#a19d9b" stroke-width="1" stroke="#a19d9b"></polygon><polygon points="450,70 450,90 433,100 416,90 416,70 433,60" fill="#ffd6d6" stroke-width="1" stroke="#ffd6d6"></polygon><polygon points="485,70 485,90 468,100 450,90 450,70 468,60" fill="#ffd6d6" stroke-width="1" stroke="#ffd6d6"></polygon><polygon points="520,70 520,90 502,100 485,90 485,70 502,60" fill="#7a7775" stroke-width="1" stroke="#7a7775"></polygon><polygon points="554,70 554,90 537,100 520,90 520,70 537,60" fill="#7a7775" stroke-width="1" stroke="#7a7775"></polygon><polygon points="589,70 589,90 572,100 554,90 554,70 572,60" fill="#daf6f2" stroke-width="1" stroke="#daf6f2"></polygon><polygon points="624,70 624,90 606,100 589,90 589,70 606,60" fill="#daf6f2" stroke-width="1" stroke="#daf6f2"></polygon><polygon points="658,70 658,90 641,100 624,90 624,70 641,60" fill="#daf6f2" stroke-width="1" stroke="#daf6f2"></polygon><polygon points="693,70 693,90 675,100 658,90 658,70 675,60" fill="#f49f9f" stroke-width="1" stroke="#f49f9f"></polygon><polygon points="727,70 727,90 710,100 693,90 693,70 710,60" fill="#d69999" stroke-width="1" stroke="#d69999"></polygon><polygon points="762,70 762,90 745,100 727,90 727,70 745,60" fill="#fffbdb" stroke-width="1" stroke="#fffbdb"></polygon><polygon points="797,70 797,90 779,100 762,90 762,70 779,60" fill="#fffbdb" stroke-width="1" stroke="#fffbdb"></polygon><polygon points="831,70 831,90 814,100 797,90 797,70 814,60" fill="#f49f9f" stroke-width="1" stroke="#f49f9f"></polygon><polygon points="866,70 866,90 849,100 831,90 831,70 849,60" fill="#f49f9f" stroke-width="1" stroke="#f49f9f"></polygon><polygon points="901,70 901,90 883,100 866,90 866,70 883,60" fill="#ffd6d6" stroke-width="1" stroke="#ffd6d6"></polygon><polygon points="935,70 935,90 918,100 901,90 901,70 918,60" fill="#ffd6d6" stroke-width="1" stroke="#ffd6d6"></polygon><polygon points="970,70 970,90 953,100 935,90 935,70 953,60" fill="#d69999" stroke-width="1" stroke="#d69999"></polygon><polygon points="1005,70 1005,90 987,100 970,90 970,70 987,60" fill="#ffd6d6" stroke-width="1" stroke="#ffd6d6"></polygon><polygon points="1039,70 1039,90 1022,100 1005,90 1005,70 1022,60" fill="#ffd6d6" stroke-width="1" stroke="#ffd6d6"></polygon><polygon points="1074,70 1074,90 1057,100 1039,90 1039,70 1057,60" fill="#f49f9f" stroke-width="1" stroke="#f49f9f"></polygon><polygon points="1109,70 1109,90 1091,100 1074,90 1074,70 1091,60" fill="#ffd6d6" stroke-width="1" stroke="#ffd6d6"></polygon><polygon points="1143,70 1143,90 1126,100 1109,90 1109,70 1126,60" fill="#fffbdb" stroke-width="1" stroke="#fffbdb"></polygon><polygon points="1178,70 1178,90 1160,100 1143,90 1143,70 1160,60" fill="#ffd6d6" stroke-width="1" stroke="#ffd6d6"></polygon><polygon points="1212,70 1212,90 1195,100 1178,90 1178,70 1195,60" fill="#daf6f2" stroke-width="1" stroke="#daf6f2"></polygon><polygon points="1247,70 1247,90 1230,100 1212,90 1212,70 1230,60" fill="#daf6f2" stroke-width="1" stroke="#daf6f2"></polygon><polygon points="1282,70 1282,90 1264,100 1247,90 1247,70 1264,60" fill="#7a7775" stroke-width="1" stroke="#7a7775"></polygon><polygon points="1316,70 1316,90 1299,100 1282,90 1282,70 1299,60" fill="#7a7775" stroke-width="1" stroke="#7a7775"></polygon><polygon points="1351,70 1351,90 1334,100 1316,90 1316,70 1334,60" fill="#7a7775" stroke-width="1" stroke="#7a7775"></polygon><polygon points="1386,70 1386,90 1368,100 1351,90 1351,70 1368,60" fill="#fffbdb" stroke-width="1" stroke="#fffbdb"></polygon><polygon points="1420,70 1420,90 1403,100 1386,90 1386,70 1403,60" fill="#ffd6d6" stroke-width="1" stroke="#ffd6d6"></polygon><polygon points="1455,70 1455,90 1438,100 1420,90 1420,70 1438,60" fill="#a19d9b" stroke-width="1" stroke="#a19d9b"></polygon><polygon points="1490,70 1490,90 1472,100 1455,90 1455,70 1472,60" fill="#daf6f2" stroke-width="1" stroke="#daf6f2"></polygon><polygon points="1524,70 1524,90 1507,100 1490,90 1490,70 1507,60" fill="#fffbdb" stroke-width="1" stroke="#fffbdb"></polygon><polygon points="1559,70 1559,90 1542,100 1524,90 1524,70 1542,60" fill="#fffbdb" stroke-width="1" stroke="#fffbdb"></polygon><polygon points="1593,70 1593,90 1576,100 1559,90 1559,70 1576,60" fill="#daf6f2" stroke-width="1" stroke="#daf6f2"></polygon><polygon points="1628,70 1628,90 1611,100 1593,90 1593,70 1611,60" fill="#7a7775" stroke-width="1" stroke="#7a7775"></polygon><polygon points="1663,70 1663,90 1645,100 1628,90 1628,70 1645,60" fill="#fffbdb" stroke-width="1" stroke="#fffbdb"></polygon><polygon points="1697,70 1697,90 1680,100 1663,90 1663,70 1680,60" fill="#fffbdb" stroke-width="1" stroke="#fffbdb"></polygon><polygon points="1732,70 1732,90 1715,100 1697,90 1697,70 1715,60" fill="#fffbdb" stroke-width="1" stroke="#fffbdb"></polygon><polygon points="1767,70 1767,90 1749,100 1732,90 1732,70 1749,60" fill="#daf6f2" stroke-width="1" stroke="#daf6f2"></polygon><polygon points="1801,70 1801,90 1784,100 1767,90 1767,70 1784,60" fill="#fffbdb" stroke-width="1" stroke="#fffbdb"></polygon><polygon points="1836,70 1836,90 1819,100 1801,90 1801,70 1819,60" fill="#ffd6d6" stroke-width="1" stroke="#ffd6d6"></polygon><polygon points="1871,70 1871,90 1853,100 1836,90 1836,70 1853,60" fill="#ffd6d6" stroke-width="1" stroke="#ffd6d6"></polygon><polygon points="1905,70 1905,90 1888,100 1871,90 1871,70 1888,60" fill="#fffbdb" stroke-width="1" stroke="#fffbdb"></polygon><polygon points="1940,70 1940,90 1923,100 1905,90 1905,70 1923,60" fill="#d69999" stroke-width="1" stroke="#d69999"></polygon><polygon points="1975,70 1975,90 1957,100 1940,90 1940,70 1957,60" fill="#f49f9f" stroke-width="1" stroke="#f49f9f"></polygon><polygon points="17,100 17,120 0,130 -17,120 -17,100 0,90" fill="#a19d9b" stroke-width="1" stroke="#a19d9b"></polygon><polygon points="52,100 52,120 35,130 17,120 17,100 35,90" fill="#fffbdb" stroke-width="1" stroke="#fffbdb"></polygon><polygon points="87,100 87,120 69,130 52,120 52,100 69,90" fill="#a19d9b" stroke-width="1" stroke="#a19d9b"></polygon><polygon points="121,100 121,120 104,130 87,120 87,100 104,90" fill="#a19d9b" stroke-width="1" stroke="#a19d9b"></polygon><polygon points="156,100 156,120 139,130 121,120 121,100 139,90" fill="#fffbdb" stroke-width="1" stroke="#fffbdb"></polygon><polygon points="191,100 191,120 173,130 156,120 156,100 173,90" fill="#fffbdb" stroke-width="1" stroke="#fffbdb"></polygon><polygon points="225,100 225,120 208,130 191,120 191,100 208,90" fill="#a19d9b" stroke-width="1" stroke="#a19d9b"></polygon><polygon points="260,100 260,120 242,130 225,120 225,100 242,90" fill="#daf6f2" stroke-width="1" stroke="#daf6f2"></polygon><polygon points="294,100 294,120 277,130 260,120 260,100 277,90" fill="#daf6f2" stroke-width="1" stroke="#daf6f2"></polygon><polygon points="329,100 329,120 312,130 294,120 294,100 312,90" fill="#7a7775" stroke-width="1" stroke="#7a7775"></polygon><polygon points="364,100 364,120 346,130 329,120 329,100 346,90" fill="#a19d9b" stroke-width="1" stroke="#a19d9b"></polygon><polygon points="398,100 398,120 381,130 364,120 364,100 381,90" fill="#a19d9b" stroke-width="1" stroke="#a19d9b"></polygon><polygon points="433,100 433,120 416,130 398,120 398,100 416,90" fill="#7a7775" stroke-width="1" stroke="#7a7775"></polygon><polygon points="468,100 468,120 450,130 433,120 433,100 450,90" fill="#7a7775" stroke-width="1" stroke="#7a7775"></polygon><polygon points="502,100 502,120 485,130 468,120 468,100 485,90" fill="#7a7775" stroke-width="1" stroke="#7a7775"></polygon><polygon points="537,100 537,120 520,130 502,120 502,100 520,90" fill="#fffbdb" stroke-width="1" stroke="#fffbdb"></polygon><polygon points="572,100 572,120 554,130 537,120 537,100 554,90" fill="#fffbdb" stroke-width="1" stroke="#fffbdb"></polygon><polygon points="606,100 606,120 589,130 572,120 572,100 589,90" fill="#daf6f2" stroke-width="1" stroke="#daf6f2"></polygon><polygon points="641,100 641,120 624,130 606,120 606,100 624,90" fill="#ffd6d6" stroke-width="1" stroke="#ffd6d6"></polygon><polygon points="675,100 675,120 658,130 641,120 641,100 658,90" fill="#ffd6d6" stroke-width="1" stroke="#ffd6d6"></polygon><polygon points="710,100 710,120 693,130 675,120 675,100 693,90" fill="#ffd6d6" stroke-width="1" stroke="#ffd6d6"></polygon><polygon points="745,100 745,120 727,130 710,120 710,100 727,90" fill="#f49f9f" stroke-width="1" stroke="#f49f9f"></polygon><polygon points="779,100 779,120 762,130 745,120 745,100 762,90" fill="#ffd6d6" stroke-width="1" stroke="#ffd6d6"></polygon><polygon points="814,100 814,120 797,130 779,120 779,100 797,90" fill="#f49f9f" stroke-width="1" stroke="#f49f9f"></polygon><polygon points="849,100 849,120 831,130 814,120 814,100 831,90" fill="#f49f9f" stroke-width="1" stroke="#f49f9f"></polygon><polygon points="883,100 883,120 866,130 849,120 849,100 866,90" fill="#f49f9f" stroke-width="1" stroke="#f49f9f"></polygon><polygon points="918,100 918,120 901,130 883,120 883,100 901,90" fill="#f49f9f" stroke-width="1" stroke="#f49f9f"></polygon><polygon points="953,100 953,120 935,130 918,120 918,100 935,90" fill="#d69999" stroke-width="1" stroke="#d69999"></polygon><polygon points="987,100 987,120 970,130 953,120 953,100 970,90" fill="#fffbdb" stroke-width="1" stroke="#fffbdb"></polygon><polygon points="1022,100 1022,120 1005,130 987,120 987,100 1005,90" fill="#f49f9f" stroke-width="1" stroke="#f49f9f"></polygon><polygon points="1057,100 1057,120 1039,130 1022,120 1022,100 1039,90" fill="#f49f9f" stroke-width="1" stroke="#f49f9f"></polygon><polygon points="1091,100 1091,120 1074,130 1057,120 1057,100 1074,90" fill="#d69999" stroke-width="1" stroke="#d69999"></polygon><polygon points="1126,100 1126,120 1109,130 1091,120 1091,100 1109,90" fill="#f49f9f" stroke-width="1" stroke="#f49f9f"></polygon><polygon points="1160,100 1160,120 1143,130 1126,120 1126,100 1143,90" fill="#d69999" stroke-width="1" stroke="#d69999"></polygon><polygon points="1195,100 1195,120 1178,130 1160,120 1160,100 1178,90" fill="#f49f9f" stroke-width="1" stroke="#f49f9f"></polygon><polygon points="1230,100 1230,120 1212,130 1195,120 1195,100 1212,90" fill="#fffbdb" stroke-width="1" stroke="#fffbdb"></polygon><polygon points="1264,100 1264,120 1247,130 1230,120 1230,100 1247,90" fill="#ffd6d6" stroke-width="1" stroke="#ffd6d6"></polygon><polygon points="1299,100 1299,120 1282,130 1264,120 1264,100 1282,90" fill="#daf6f2" stroke-width="1" stroke="#daf6f2"></polygon><polygon points="1334,100 1334,120 1316,130 1299,120 1299,100 1316,90" fill="#ffd6d6" stroke-width="1" stroke="#ffd6d6"></polygon><polygon points="1368,100 1368,120 1351,130 1334,120 1334,100 1351,90" fill="#daf6f2" stroke-width="1" stroke="#daf6f2"></polygon><polygon points="1403,100 1403,120 1386,130 1368,120 1368,100 1386,90" fill="#a19d9b" stroke-width="1" stroke="#a19d9b"></polygon><polygon points="1438,100 1438,120 1420,130 1403,120 1403,100 1420,90" fill="#7a7775" stroke-width="1" stroke="#7a7775"></polygon><polygon points="1472,100 1472,120 1455,130 1438,120 1438,100 1455,90" fill="#7a7775" stroke-width="1" stroke="#7a7775"></polygon><polygon points="1507,100 1507,120 1490,130 1472,120 1472,100 1490,90" fill="#a19d9b" stroke-width="1" stroke="#a19d9b"></polygon><polygon points="1542,100 1542,120 1524,130 1507,120 1507,100 1524,90" fill="#a19d9b" stroke-width="1" stroke="#a19d9b"></polygon><polygon points="1576,100 1576,120 1559,130 1542,120 1542,100 1559,90" fill="#daf6f2" stroke-width="1" stroke="#daf6f2"></polygon><polygon points="1611,100 1611,120 1593,130 1576,120 1576,100 1593,90" fill="#a19d9b" stroke-width="1" stroke="#a19d9b"></polygon><polygon points="1645,100 1645,120 1628,130 1611,120 1611,100 1628,90" fill="#7a7775" stroke-width="1" stroke="#7a7775"></polygon><polygon points="1680,100 1680,120 1663,130 1645,120 1645,100 1663,90" fill="#7a7775" stroke-width="1" stroke="#7a7775"></polygon><polygon points="1715,100 1715,120 1697,130 1680,120 1680,100 1697,90" fill="#fffbdb" stroke-width="1" stroke="#fffbdb"></polygon><polygon points="1749,100 1749,120 1732,130 1715,120 1715,100 1732,90" fill="#ffd6d6" stroke-width="1" stroke="#ffd6d6"></polygon><polygon points="1784,100 1784,120 1767,130 1749,120 1749,100 1767,90" fill="#daf6f2" stroke-width="1" stroke="#daf6f2"></polygon><polygon points="1819,100 1819,120 1801,130 1784,120 1784,100 1801,90" fill="#ffd6d6" stroke-width="1" stroke="#ffd6d6"></polygon><polygon points="1853,100 1853,120 1836,130 1819,120 1819,100 1836,90" fill="#fffbdb" stroke-width="1" stroke="#fffbdb"></polygon><polygon points="1888,100 1888,120 1871,130 1853,120 1853,100 1871,90" fill="#ffd6d6" stroke-width="1" stroke="#ffd6d6"></polygon><polygon points="1923,100 1923,120 1905,130 1888,120 1888,100 1905,90" fill="#ffd6d6" stroke-width="1" stroke="#ffd6d6"></polygon><polygon points="1957,100 1957,120 1940,130 1923,120 1923,100 1940,90" fill="#fffbdb" stroke-width="1" stroke="#fffbdb"></polygon></svg>