<svg xmlns="http://www.w3.org/2000/svg" version="1.1" xmlns:xlink="http://www.w3.org/1999/xlink" width="2160" height="2160" viewBox="0 0 2160 2160"><polygon points="56,-65 56,0 0,32 -56,0 -56,-65 0,-97" fill="#c4455c" stroke-width="1" stroke="#c4455c"></polygon><polygon points="168,-65 168,0 112,32 56,0 56,-65 112,-97" fill="#8b76b2" stroke-width="1" stroke="#8b76b2"></polygon><polygon points="281,-65 281,0 224,32 168,0 168,-65 224,-97" fill="#ebc656" stroke-width="1" stroke="#ebc656"></polygon><polygon points="393,-65 393,0 337,32 281,0 281,-65 337,-97" fill="#e5c461" stroke-width="1" stroke="#e5c461"></polygon><polygon points="505,-65 505,0 449,32 393,0 393,-65 449,-97" fill="#a9989d" stroke-width="1" stroke="#a9989d"></polygon><polygon points="617,-65 617,0 561,32 505,0 505,-65 561,-97" fill="#e3c363" stroke-width="1" stroke="#e3c363"></polygon><polygon points="730,-65 730,0 673,32 617,0 617,-65 673,-97" fill="#c9ae83" stroke-width="1" stroke="#c9ae83"></polygon><polygon points="842,-65 842,0 786,32 730,0 730,-65 786,-97" fill="#7877b6" stroke-width="1" stroke="#7877b6"></polygon><polygon points="954,-65 954,0 898,32 842,0 842,-65 898,-97" fill="#867fad" stroke-width="1" stroke="#867fad"></polygon><polygon points="1066,-65 1066,0 1010,32 954,0 954,-65 1010,-97" fill="#7b77b6" stroke-width="1" stroke="#7b77b6"></polygon><polygon points="1178,-65 1178,0 1122,32 1066,0 1066,-65 1122,-97" fill="#c1719d" stroke-width="1" stroke="#c1719d"></polygon><polygon points="1291,-65 1291,0 1235,32 1178,0 1178,-65 1235,-97" fill="#c58c94" stroke-width="1" stroke="#c58c94"></polygon><polygon points="1403,-65 1403,0 1347,32 1291,0 1291,-65 1347,-97" fill="#bf4057" stroke-width="1" stroke="#bf4057"></polygon><polygon points="1515,-65 1515,0 1459,32 1403,0 1403,-65 1459,-97" fill="#b1485a" stroke-width="1" stroke="#b1485a"></polygon><polygon points="1627,-65 1627,0 1571,32 1515,0 1515,-65 1571,-97" fill="#c2848c" stroke-width="1" stroke="#c2848c"></polygon><polygon points="1740,-65 1740,0 1684,32 1627,0 1627,-65 1684,-97" fill="#e7dadd" stroke-width="1" stroke="#e7dadd"></polygon><polygon points="1852,-65 1852,0 1796,32 1740,0 1740,-65 1796,-97" fill="#c78f97" stroke-width="1" stroke="#c78f97"></polygon><polygon points="1964,-65 1964,0 1908,32 1852,0 1852,-65 1908,-97" fill="#b86572" stroke-width="1" stroke="#b86572"></polygon><polygon points="2076,-65 2076,0 2020,32 1964,0 1964,-65 2020,-97" fill="#e5d7da" stroke-width="1" stroke="#e5d7da"></polygon><polygon points="2189,-65 2189,0 2133,32 2076,0 2076,-65 2133,-97" fill="#d8bac0" stroke-width="1" stroke="#d8bac0"></polygon><polygon points="2301,-65 2301,0 2245,32 2189,0 2189,-65 2245,-97" fill="#d1a9af" stroke-width="1" stroke="#d1a9af"></polygon><polygon points="112,32 112,97 56,130 0,97 0,32 56,0" fill="#ab73a5" stroke-width="1" stroke="#ab73a5"></polygon><polygon points="224,32 224,97 168,130 112,97 112,32 168,0" fill="#d1b47b" stroke-width="1" stroke="#d1b47b"></polygon><polygon points="337,32 337,97 281,130 224,97 224,32 281,0" fill="#c4ab87" stroke-width="1" stroke="#c4ab87"></polygon><polygon points="449,32 449,97 393,130 337,97 337,32 393,0" fill="#d4b777" stroke-width="1" stroke="#d4b777"></polygon><polygon points="561,32 561,97 505,130 449,97 449,32 505,0" fill="#b6a190" stroke-width="1" stroke="#b6a190"></polygon><polygon points="673,32 673,97 617,130 561,97 561,32 617,0" fill="#7d75b3" stroke-width="1" stroke="#7d75b3"></polygon><polygon points="786,32 786,97 730,130 673,97 673,32 730,0" fill="#9b8ea4" stroke-width="1" stroke="#9b8ea4"></polygon><polygon points="898,32 898,97 842,130 786,97 786,32 842,0" fill="#e4c262" stroke-width="1" stroke="#e4c262"></polygon><polygon points="1010,32 1010,97 954,130 898,97 898,32 954,0" fill="#c36f9c" stroke-width="1" stroke="#c36f9c"></polygon><polygon points="1122,32 1122,97 1066,130 1010,97 1010,32 1066,0" fill="#958ba7" stroke-width="1" stroke="#958ba7"></polygon><polygon points="1235,32 1235,97 1178,130 1122,97 1122,32 1178,0" fill="#ba73a1" stroke-width="1" stroke="#ba73a1"></polygon><polygon points="1347,32 1347,97 1291,130 1235,97 1235,32 1291,0" fill="#b1354e" stroke-width="1" stroke="#b1354e"></polygon><polygon points="1459,32 1459,97 1403,130 1347,97 1347,32 1403,0" fill="#ebe5e7" stroke-width="1" stroke="#ebe5e7"></polygon><polygon points="1571,32 1571,97 1515,130 1459,97 1459,32 1515,0" fill="#ebe5e7" stroke-width="1" stroke="#ebe5e7"></polygon><polygon points="1684,32 1684,97 1627,130 1571,97 1571,32 1627,0" fill="#ab364d" stroke-width="1" stroke="#ab364d"></polygon><polygon points="1796,32 1796,97 1740,130 1684,97 1684,32 1740,0" fill="#ebe5e7" stroke-width="1" stroke="#ebe5e7"></polygon><polygon points="1908,32 1908,97 1852,130 1796,97 1796,32 1852,0" fill="#cb4d64" stroke-width="1" stroke="#cb4d64"></polygon><polygon points="2020,32 2020,97 1964,130 1908,97 1908,32 1964,0" fill="#d6576e" stroke-width="1" stroke="#d6576e"></polygon><polygon points="2133,32 2133,97 2076,130 2020,97 2020,32 2076,0" fill="#ebe5e7" stroke-width="1" stroke="#ebe5e7"></polygon><polygon points="2245,32 2245,97 2189,130 2133,97 2133,32 2189,0" fill="#d7b7bc" stroke-width="1" stroke="#d7b7bc"></polygon><polygon points="2357,32 2357,97 2301,130 2245,97 2245,32 2301,0" fill="#ebe5e7" stroke-width="1" stroke="#ebe5e7"></polygon><polygon points="56,130 56,194 0,227 -56,194 -56,130 0,97" fill="#e9677f" stroke-width="1" stroke="#e9677f"></polygon><polygon points="168,130 168,194 112,227 56,194 56,130 112,97" fill="#df5d75" stroke-width="1" stroke="#df5d75"></polygon><polygon points="281,130 281,194 224,227 168,194 168,130 224,97" fill="#8b74af" stroke-width="1" stroke="#8b74af"></polygon><polygon points="393,130 393,194 337,227 281,194 281,130 337,97" fill="#b39e94" stroke-width="1" stroke="#b39e94"></polygon><polygon points="505,130 505,194 449,227 393,194 393,130 449,97" fill="#e3c163" stroke-width="1" stroke="#e3c163"></polygon><polygon points="617,130 617,194 561,227 505,194 505,130 561,97" fill="#ddbc69" stroke-width="1" stroke="#ddbc69"></polygon><polygon points="730,130 730,194 673,227 617,194 617,130 673,97" fill="#8676b2" stroke-width="1" stroke="#8676b2"></polygon><polygon points="842,130 842,194 786,227 730,194 730,130 786,97" fill="#d4b777" stroke-width="1" stroke="#d4b777"></polygon><polygon points="954,130 954,194 898,227 842,194 842,130 898,97" fill="#8375b3" stroke-width="1" stroke="#8375b3"></polygon><polygon points="1066,130 1066,194 1010,227 954,194 954,130 1010,97" fill="#e7c55f" stroke-width="1" stroke="#e7c55f"></polygon><polygon points="1178,130 1178,194 1122,227 1066,194 1066,130 1122,97" fill="#e16078" stroke-width="1" stroke="#e16078"></polygon><polygon points="1291,130 1291,194 1235,227 1178,194 1178,130 1235,97" fill="#d0536a" stroke-width="1" stroke="#d0536a"></polygon><polygon points="1403,130 1403,194 1347,227 1291,194 1291,130 1347,97" fill="#c94a64" stroke-width="1" stroke="#c94a64"></polygon><polygon points="1515,130 1515,194 1459,227 1403,194 1403,130 1459,97" fill="#c8929a" stroke-width="1" stroke="#c8929a"></polygon><polygon points="1627,130 1627,194 1571,227 1515,194 1515,130 1571,97" fill="#d4b0b5" stroke-width="1" stroke="#d4b0b5"></polygon><polygon points="1740,130 1740,194 1684,227 1627,194 1627,130 1684,97" fill="#d5b4b9" stroke-width="1" stroke="#d5b4b9"></polygon><polygon points="1852,130 1852,194 1796,227 1740,194 1740,130 1796,97" fill="#bb3e57" stroke-width="1" stroke="#bb3e57"></polygon><polygon points="1964,130 1964,194 1908,227 1852,194 1852,130 1908,97" fill="#cf4f66" stroke-width="1" stroke="#cf4f66"></polygon><polygon points="2076,130 2076,194 2020,227 1964,194 1964,130 2020,97" fill="#ebe5e7" stroke-width="1" stroke="#ebe5e7"></polygon><polygon points="2189,130 2189,194 2133,227 2076,194 2076,130 2133,97" fill="#b1354e" stroke-width="1" stroke="#b1354e"></polygon><polygon points="2301,130 2301,194 2245,227 2189,194 2189,130 2245,97" fill="#ebe5e7" stroke-width="1" stroke="#ebe5e7"></polygon><polygon points="112,227 112,292 56,324 0,292 0,227 56,194" fill="#e5617c" stroke-width="1" stroke="#e5617c"></polygon><polygon points="224,227 224,292 168,324 112,292 112,227 168,194" fill="#867fad" stroke-width="1" stroke="#867fad"></polygon><polygon points="337,227 337,292 281,324 224,292 224,227 281,194" fill="#a092a0" stroke-width="1" stroke="#a092a0"></polygon><polygon points="449,227 449,292 393,324 337,292 337,227 393,194" fill="#b573a3" stroke-width="1" stroke="#b573a3"></polygon><polygon points="561,227 561,292 505,324 449,292 449,227 505,194" fill="#9d90a2" stroke-width="1" stroke="#9d90a2"></polygon><polygon points="673,227 673,292 617,324 561,292 561,227 617,194" fill="#867fad" stroke-width="1" stroke="#867fad"></polygon><polygon points="786,227 786,292 730,324 673,292 673,227 730,194" fill="#b6a190" stroke-width="1" stroke="#b6a190"></polygon><polygon points="898,227 898,292 842,324 786,292 786,227 842,194" fill="#948aa8" stroke-width="1" stroke="#948aa8"></polygon><polygon points="1010,227 1010,292 954,324 898,292 898,227 954,194" fill="#7877b6" stroke-width="1" stroke="#7877b6"></polygon><polygon points="1122,227 1122,292 1066,324 1010,292 1010,227 1066,194" fill="#988da5" stroke-width="1" stroke="#988da5"></polygon><polygon points="1235,227 1235,292 1178,324 1122,292 1122,227 1178,194" fill="#b33750" stroke-width="1" stroke="#b33750"></polygon><polygon points="1347,227 1347,292 1291,324 1235,292 1235,227 1291,194" fill="#be4158" stroke-width="1" stroke="#be4158"></polygon><polygon points="1459,227 1459,292 1403,324 1347,292 1347,227 1403,194" fill="#ebe5e7" stroke-width="1" stroke="#ebe5e7"></polygon><polygon points="1571,227 1571,292 1515,324 1459,292 1459,227 1515,194" fill="#ebe5e7" stroke-width="1" stroke="#ebe5e7"></polygon><polygon points="1684,227 1684,292 1627,324 1571,292 1571,227 1627,194" fill="#ebe5e7" stroke-width="1" stroke="#ebe5e7"></polygon><polygon points="1796,227 1796,292 1740,324 1684,292 1684,227 1740,194" fill="#c69098" stroke-width="1" stroke="#c69098"></polygon><polygon points="1908,227 1908,292 1852,324 1796,292 1796,227 1852,194" fill="#d95970" stroke-width="1" stroke="#d95970"></polygon><polygon points="2020,227 2020,292 1964,324 1908,292 1908,227 1964,194" fill="#ce5067" stroke-width="1" stroke="#ce5067"></polygon><polygon points="2133,227 2133,292 2076,324 2020,292 2020,227 2076,194" fill="#d3b1b6" stroke-width="1" stroke="#d3b1b6"></polygon><polygon points="2245,227 2245,292 2189,324 2133,292 2133,227 2189,194" fill="#ebe5e7" stroke-width="1" stroke="#ebe5e7"></polygon><polygon points="2357,227 2357,292 2301,324 2245,292 2245,227 2301,194" fill="#ebe5e7" stroke-width="1" stroke="#ebe5e7"></polygon><polygon points="56,324 56,389 0,421 -56,389 -56,324 0,292" fill="#ea667f" stroke-width="1" stroke="#ea667f"></polygon><polygon points="168,324 168,389 112,421 56,389 56,324 112,292" fill="#ab73a5" stroke-width="1" stroke="#ab73a5"></polygon><polygon points="281,324 281,389 224,421 168,389 168,324 224,292" fill="#c9af82" stroke-width="1" stroke="#c9af82"></polygon><polygon points="393,324 393,389 337,421 281,389 281,324 337,292" fill="#c1a98a" stroke-width="1" stroke="#c1a98a"></polygon><polygon points="505,324 505,389 449,421 393,389 393,324 449,292" fill="#b672a3" stroke-width="1" stroke="#b672a3"></polygon><polygon points="617,324 617,389 561,421 505,389 505,324 561,292" fill="#c5ac87" stroke-width="1" stroke="#c5ac87"></polygon><polygon points="730,324 730,389 673,421 617,389 617,324 673,292" fill="#d7b875" stroke-width="1" stroke="#d7b875"></polygon><polygon points="842,324 842,389 786,421 730,389 730,324 786,292" fill="#988da5" stroke-width="1" stroke="#988da5"></polygon><polygon points="954,324 954,389 898,421 842,389 842,324 898,292" fill="#8b84ae" stroke-width="1" stroke="#8b84ae"></polygon><polygon points="1066,324 1066,389 1010,421 954,389 954,324 1010,292" fill="#9489a9" stroke-width="1" stroke="#9489a9"></polygon><polygon points="1178,324 1178,389 1122,421 1066,389 1066,324 1122,292" fill="#cf4f66" stroke-width="1" stroke="#cf4f66"></polygon><polygon points="1291,324 1291,389 1235,421 1178,389 1178,324 1235,292" fill="#d7566d" stroke-width="1" stroke="#d7566d"></polygon><polygon points="1403,324 1403,389 1347,421 1291,389 1291,324 1347,292" fill="#ddc6ca" stroke-width="1" stroke="#ddc6ca"></polygon><polygon points="1515,324 1515,389 1459,421 1403,389 1403,324 1459,292" fill="#d6b8bc" stroke-width="1" stroke="#d6b8bc"></polygon><polygon points="1627,324 1627,389 1571,421 1515,389 1515,324 1571,292" fill="#ebe5e7" stroke-width="1" stroke="#ebe5e7"></polygon><polygon points="1740,324 1740,389 1684,421 1627,389 1627,324 1684,292" fill="#cb9aa1" stroke-width="1" stroke="#cb9aa1"></polygon><polygon points="1852,324 1852,389 1796,421 1740,389 1740,324 1796,292" fill="#ba6975" stroke-width="1" stroke="#ba6975"></polygon><polygon points="1964,324 1964,389 1908,421 1852,389 1852,324 1908,292" fill="#b96a76" stroke-width="1" stroke="#b96a76"></polygon><polygon points="2076,324 2076,389 2020,421 1964,389 1964,324 2020,292" fill="#d7b7bc" stroke-width="1" stroke="#d7b7bc"></polygon><polygon points="2189,324 2189,389 2133,421 2076,389 2076,324 2133,292" fill="#b8616e" stroke-width="1" stroke="#b8616e"></polygon><polygon points="2301,324 2301,389 2245,421 2189,389 2189,324 2245,292" fill="#e0cdd0" stroke-width="1" stroke="#e0cdd0"></polygon><polygon points="112,421 112,486 56,518 0,486 0,421 56,389" fill="#b29e95" stroke-width="1" stroke="#b29e95"></polygon><polygon points="224,421 224,486 168,518 112,486 112,421 168,389" fill="#8c76b2" stroke-width="1" stroke="#8c76b2"></polygon><polygon points="337,421 337,486 281,518 224,486 224,421 281,389" fill="#d5b776" stroke-width="1" stroke="#d5b776"></polygon><polygon points="449,421 449,486 393,518 337,486 337,421 393,389" fill="#8b76b2" stroke-width="1" stroke="#8b76b2"></polygon><polygon points="561,421 561,486 505,518 449,486 449,421 505,389" fill="#847eae" stroke-width="1" stroke="#847eae"></polygon><polygon points="673,421 673,486 617,518 561,486 561,421 617,389" fill="#e9c558" stroke-width="1" stroke="#e9c558"></polygon><polygon points="786,421 786,486 730,518 673,486 673,421 730,389" fill="#c7ac85" stroke-width="1" stroke="#c7ac85"></polygon><polygon points="898,421 898,486 842,518 786,486 786,421 842,389" fill="#cfb27d" stroke-width="1" stroke="#cfb27d"></polygon><polygon points="1010,421 1010,486 954,518 898,486 898,421 954,389" fill="#e6c35c" stroke-width="1" stroke="#e6c35c"></polygon><polygon points="1122,421 1122,486 1066,518 1010,486 1010,421 1066,389" fill="#c86f9a" stroke-width="1" stroke="#c86f9a"></polygon><polygon points="1235,421 1235,486 1178,518 1122,486 1122,421 1178,389" fill="#c68b94" stroke-width="1" stroke="#c68b94"></polygon><polygon points="1347,421 1347,486 1291,518 1235,486 1235,421 1291,389" fill="#d5586f" stroke-width="1" stroke="#d5586f"></polygon><polygon points="1459,421 1459,486 1403,518 1347,486 1347,421 1403,389" fill="#e0ccd0" stroke-width="1" stroke="#e0ccd0"></polygon><polygon points="1571,421 1571,486 1515,518 1459,486 1459,421 1515,389" fill="#c4878f" stroke-width="1" stroke="#c4878f"></polygon><polygon points="1684,421 1684,486 1627,518 1571,486 1571,421 1627,389" fill="#ebe5e7" stroke-width="1" stroke="#ebe5e7"></polygon><polygon points="1796,421 1796,486 1740,518 1684,486 1684,421 1740,389" fill="#d4546b" stroke-width="1" stroke="#d4546b"></polygon><polygon points="1908,421 1908,486 1852,518 1796,486 1796,421 1852,389" fill="#b63a52" stroke-width="1" stroke="#b63a52"></polygon><polygon points="2020,421 2020,486 1964,518 1908,486 1908,421 1964,389" fill="#d95970" stroke-width="1" stroke="#d95970"></polygon><polygon points="2133,421 2133,486 2076,518 2020,486 2020,421 2076,389" fill="#ebe5e7" stroke-width="1" stroke="#ebe5e7"></polygon><polygon points="2245,421 2245,486 2189,518 2133,486 2133,421 2189,389" fill="#ebe5e7" stroke-width="1" stroke="#ebe5e7"></polygon><polygon points="2357,421 2357,486 2301,518 2245,486 2245,421 2301,389" fill="#ebe5e7" stroke-width="1" stroke="#ebe5e7"></polygon><polygon points="56,518 56,583 0,616 -56,583 -56,518 0,486" fill="#b172a4" stroke-width="1" stroke="#b172a4"></polygon><polygon points="168,518 168,583 112,616 56,583 56,518 112,486" fill="#b29d95" stroke-width="1" stroke="#b29d95"></polygon><polygon points="281,518 281,583 224,616 168,583 168,518 224,486" fill="#e8c559" stroke-width="1" stroke="#e8c559"></polygon><polygon points="393,518 393,583 337,616 281,583 281,518 337,486" fill="#b172a3" stroke-width="1" stroke="#b172a3"></polygon><polygon points="505,518 505,583 449,616 393,583 393,518 449,486" fill="#eac857" stroke-width="1" stroke="#eac857"></polygon><polygon points="617,518 617,583 561,616 505,583 505,518 561,486" fill="#8976b2" stroke-width="1" stroke="#8976b2"></polygon><polygon points="730,518 730,583 673,616 617,583 617,518 673,486" fill="#877fad" stroke-width="1" stroke="#877fad"></polygon><polygon points="842,518 842,583 786,616 730,583 730,518 786,486" fill="#7a78b5" stroke-width="1" stroke="#7a78b5"></polygon><polygon points="954,518 954,583 898,616 842,583 842,518 898,486" fill="#e4c262" stroke-width="1" stroke="#e4c262"></polygon><polygon points="1066,518 1066,583 1010,616 954,583 954,518 1010,486" fill="#e3c363" stroke-width="1" stroke="#e3c363"></polygon><polygon points="1178,518 1178,583 1122,616 1066,583 1066,518 1122,486" fill="#d65770" stroke-width="1" stroke="#d65770"></polygon><polygon points="1291,518 1291,583 1235,616 1178,583 1178,518 1235,486" fill="#b2344d" stroke-width="1" stroke="#b2344d"></polygon><polygon points="1403,518 1403,583 1347,616 1291,583 1291,518 1347,486" fill="#ebe5e8" stroke-width="1" stroke="#ebe5e8"></polygon><polygon points="1515,518 1515,583 1459,616 1403,583 1403,518 1459,486" fill="#b86572" stroke-width="1" stroke="#b86572"></polygon><polygon points="1627,518 1627,583 1571,616 1515,583 1515,518 1571,486" fill="#ebe5e7" stroke-width="1" stroke="#ebe5e7"></polygon><polygon points="1740,518 1740,583 1684,616 1627,583 1627,518 1684,486" fill="#ebe5e7" stroke-width="1" stroke="#ebe5e7"></polygon><polygon points="1852,518 1852,583 1796,616 1740,583 1740,518 1796,486" fill="#d3556c" stroke-width="1" stroke="#d3556c"></polygon><polygon points="1964,518 1964,583 1908,616 1852,583 1852,518 1908,486" fill="#ebe5e7" stroke-width="1" stroke="#ebe5e7"></polygon><polygon points="2076,518 2076,583 2020,616 1964,583 1964,518 2020,486" fill="#d4546b" stroke-width="1" stroke="#d4546b"></polygon><polygon points="2189,518 2189,583 2133,616 2076,583 2076,518 2133,486" fill="#c8939b" stroke-width="1" stroke="#c8939b"></polygon><polygon points="2301,518 2301,583 2245,616 2189,583 2189,518 2245,486" fill="#dec9cd" stroke-width="1" stroke="#dec9cd"></polygon><polygon points="112,616 112,680 56,713 0,680 0,616 56,583" fill="#dc5b73" stroke-width="1" stroke="#dc5b73"></polygon><polygon points="224,616 224,680 168,713 112,680 112,616 168,583" fill="#a4949d" stroke-width="1" stroke="#a4949d"></polygon><polygon points="337,616 337,680 281,713 224,680 224,616 281,583" fill="#cc719b" stroke-width="1" stroke="#cc719b"></polygon><polygon points="449,616 449,680 393,713 337,680 337,616 393,583" fill="#e0bf67" stroke-width="1" stroke="#e0bf67"></polygon><polygon points="561,616 561,680 505,713 449,680 449,616 505,583" fill="#c2ab89" stroke-width="1" stroke="#c2ab89"></polygon><polygon points="673,616 673,680 617,713 561,680 561,616 617,583" fill="#e3c164" stroke-width="1" stroke="#e3c164"></polygon><polygon points="786,616 786,680 730,713 673,680 673,616 730,583" fill="#e9c558" stroke-width="1" stroke="#e9c558"></polygon><polygon points="898,616 898,680 842,713 786,680 786,616 842,583" fill="#d5b776" stroke-width="1" stroke="#d5b776"></polygon><polygon points="1010,616 1010,680 954,713 898,680 898,616 954,583" fill="#b6a091" stroke-width="1" stroke="#b6a091"></polygon><polygon points="1122,616 1122,680 1066,713 1010,680 1010,616 1066,583" fill="#cf6e96" stroke-width="1" stroke="#cf6e96"></polygon><polygon points="1235,616 1235,680 1178,713 1122,680 1122,616 1178,583" fill="#cfa5ac" stroke-width="1" stroke="#cfa5ac"></polygon><polygon points="1347,616 1347,680 1291,713 1235,680 1235,616 1291,583" fill="#c4455c" stroke-width="1" stroke="#c4455c"></polygon><polygon points="1459,616 1459,680 1403,713 1347,680 1347,616 1403,583" fill="#ebe5e7" stroke-width="1" stroke="#ebe5e7"></polygon><polygon points="1571,616 1571,680 1515,713 1459,680 1459,616 1515,583" fill="#c18189" stroke-width="1" stroke="#c18189"></polygon><polygon points="1684,616 1684,680 1627,713 1571,680 1571,616 1627,583" fill="#b63a52" stroke-width="1" stroke="#b63a52"></polygon><polygon points="1796,616 1796,680 1740,713 1684,680 1684,616 1740,583" fill="#d65770" stroke-width="1" stroke="#d65770"></polygon><polygon points="1908,616 1908,680 1852,713 1796,680 1796,616 1852,583" fill="#e7dadd" stroke-width="1" stroke="#e7dadd"></polygon><polygon points="2020,616 2020,680 1964,713 1908,680 1908,616 1964,583" fill="#d3556c" stroke-width="1" stroke="#d3556c"></polygon><polygon points="2133,616 2133,680 2076,713 2020,680 2020,616 2076,583" fill="#ddc6ca" stroke-width="1" stroke="#ddc6ca"></polygon><polygon points="2245,616 2245,680 2189,713 2133,680 2133,616 2189,583" fill="#ad2e4a" stroke-width="1" stroke="#ad2e4a"></polygon><polygon points="2357,616 2357,680 2301,713 2245,680 2245,616 2301,583" fill="#d3b1b6" stroke-width="1" stroke="#d3b1b6"></polygon><polygon points="56,713 56,778 0,810 -56,778 -56,713 0,680" fill="#c54960" stroke-width="1" stroke="#c54960"></polygon><polygon points="168,713 168,778 112,810 56,778 56,713 112,680" fill="#d95972" stroke-width="1" stroke="#d95972"></polygon><polygon points="281,713 281,778 224,810 168,778 168,713 224,680" fill="#b474a4" stroke-width="1" stroke="#b474a4"></polygon><polygon points="393,713 393,778 337,810 281,778 281,713 337,680" fill="#cc719a" stroke-width="1" stroke="#cc719a"></polygon><polygon points="505,713 505,778 449,810 393,778 393,713 449,680" fill="#e3c164" stroke-width="1" stroke="#e3c164"></polygon><polygon points="617,713 617,778 561,810 505,778 505,713 561,680" fill="#988da5" stroke-width="1" stroke="#988da5"></polygon><polygon points="730,713 730,778 673,810 617,778 617,713 673,680" fill="#8f87ab" stroke-width="1" stroke="#8f87ab"></polygon><polygon points="842,713 842,778 786,810 730,778 730,713 786,680" fill="#d4b777" stroke-width="1" stroke="#d4b777"></polygon><polygon points="954,713 954,778 898,810 842,778 842,713 898,680" fill="#807bb2" stroke-width="1" stroke="#807bb2"></polygon><polygon points="1066,713 1066,778 1010,810 954,778 954,713 1010,680" fill="#d8b86f" stroke-width="1" stroke="#d8b86f"></polygon><polygon points="1178,713 1178,778 1122,810 1066,778 1066,713 1122,680" fill="#a472a7" stroke-width="1" stroke="#a472a7"></polygon><polygon points="1291,713 1291,778 1235,810 1178,778 1178,713 1235,680" fill="#ab3049" stroke-width="1" stroke="#ab3049"></polygon><polygon points="1403,713 1403,778 1347,810 1291,778 1291,713 1347,680" fill="#c74861" stroke-width="1" stroke="#c74861"></polygon><polygon points="1515,713 1515,778 1459,810 1403,778 1403,713 1459,680" fill="#b63a52" stroke-width="1" stroke="#b63a52"></polygon><polygon points="1627,713 1627,778 1571,810 1515,778 1515,713 1571,680" fill="#ebe5e7" stroke-width="1" stroke="#ebe5e7"></polygon><polygon points="1740,713 1740,778 1684,810 1627,778 1627,713 1684,680" fill="#bb3e55" stroke-width="1" stroke="#bb3e55"></polygon><polygon points="1852,713 1852,778 1796,810 1740,778 1740,713 1796,680" fill="#bb3e57" stroke-width="1" stroke="#bb3e57"></polygon><polygon points="1964,713 1964,778 1908,810 1852,778 1852,713 1908,680" fill="#ebe5e7" stroke-width="1" stroke="#ebe5e7"></polygon><polygon points="2076,713 2076,778 2020,810 1964,778 1964,713 2020,680" fill="#ebe5e7" stroke-width="1" stroke="#ebe5e7"></polygon><polygon points="2189,713 2189,778 2133,810 2076,778 2076,713 2133,680" fill="#ebe5e7" stroke-width="1" stroke="#ebe5e7"></polygon><polygon points="2301,713 2301,778 2245,810 2189,778 2189,713 2245,680" fill="#ebe5e7" stroke-width="1" stroke="#ebe5e7"></polygon><polygon points="112,810 112,875 56,907 0,875 0,810 56,778" fill="#e26077" stroke-width="1" stroke="#e26077"></polygon><polygon points="224,810 224,875 168,907 112,875 112,810 168,778" fill="#958ba7" stroke-width="1" stroke="#958ba7"></polygon><polygon points="337,810 337,875 281,907 224,875 224,810 281,778" fill="#eac857" stroke-width="1" stroke="#eac857"></polygon><polygon points="449,810 449,875 393,907 337,875 337,810 393,778" fill="#ad71a4" stroke-width="1" stroke="#ad71a4"></polygon><polygon points="561,810 561,875 505,907 449,875 449,810 505,778" fill="#8475b3" stroke-width="1" stroke="#8475b3"></polygon><polygon points="673,810 673,875 617,907 561,875 561,810 617,778" fill="#debd68" stroke-width="1" stroke="#debd68"></polygon><polygon points="786,810 786,875 730,907 673,875 673,810 730,778" fill="#d9b96d" stroke-width="1" stroke="#d9b96d"></polygon><polygon points="898,810 898,875 842,907 786,875 786,810 842,778" fill="#998da5" stroke-width="1" stroke="#998da5"></polygon><polygon points="1010,810 1010,875 954,907 898,875 898,810 954,778" fill="#a772a7" stroke-width="1" stroke="#a772a7"></polygon><polygon points="1122,810 1122,875 1066,907 1010,875 1010,810 1066,778" fill="#7a77b6" stroke-width="1" stroke="#7a77b6"></polygon><polygon points="1235,810 1235,875 1178,907 1122,875 1122,810 1178,778" fill="#b63a52" stroke-width="1" stroke="#b63a52"></polygon><polygon points="1347,810 1347,875 1291,907 1235,875 1235,810 1291,778" fill="#ddc6ca" stroke-width="1" stroke="#ddc6ca"></polygon><polygon points="1459,810 1459,875 1403,907 1347,875 1347,810 1403,778" fill="#e0ccd0" stroke-width="1" stroke="#e0ccd0"></polygon><polygon points="1571,810 1571,875 1515,907 1459,875 1459,810 1515,778" fill="#ebe5e7" stroke-width="1" stroke="#ebe5e7"></polygon><polygon points="1684,810 1684,875 1627,907 1571,875 1571,810 1627,778" fill="#ebe5e7" stroke-width="1" stroke="#ebe5e7"></polygon><polygon points="1796,810 1796,875 1740,907 1684,875 1684,810 1740,778" fill="#c9979e" stroke-width="1" stroke="#c9979e"></polygon><polygon points="1908,810 1908,875 1852,907 1796,875 1796,810 1852,778" fill="#e9e2e4" stroke-width="1" stroke="#e9e2e4"></polygon><polygon points="2020,810 2020,875 1964,907 1908,875 1908,810 1964,778" fill="#e8dee1" stroke-width="1" stroke="#e8dee1"></polygon><polygon points="2133,810 2133,875 2076,907 2020,875 2020,810 2076,778" fill="#ebe5e7" stroke-width="1" stroke="#ebe5e7"></polygon><polygon points="2245,810 2245,875 2189,907 2133,875 2133,810 2189,778" fill="#ebe5e7" stroke-width="1" stroke="#ebe5e7"></polygon><polygon points="2357,810 2357,875 2301,907 2245,875 2245,810 2301,778" fill="#ebe5e7" stroke-width="1" stroke="#ebe5e7"></polygon><polygon points="56,907 56,972 0,1004 -56,972 -56,907 0,875" fill="#c36f9c" stroke-width="1" stroke="#c36f9c"></polygon><polygon points="168,907 168,972 112,1004 56,972 56,907 112,875" fill="#b9a28d" stroke-width="1" stroke="#b9a28d"></polygon><polygon points="281,907 281,972 224,1004 168,972 168,907 224,875" fill="#f06a83" stroke-width="1" stroke="#f06a83"></polygon><polygon points="393,907 393,972 337,1004 281,972 281,907 337,875" fill="#e4c262" stroke-width="1" stroke="#e4c262"></polygon><polygon points="505,907 505,972 449,1004 393,972 393,907 449,875" fill="#af9c97" stroke-width="1" stroke="#af9c97"></polygon><polygon points="617,907 617,972 561,1004 505,972 505,907 561,875" fill="#a6969d" stroke-width="1" stroke="#a6969d"></polygon><polygon points="730,907 730,972 673,1004 617,972 617,907 673,875" fill="#d5b776" stroke-width="1" stroke="#d5b776"></polygon><polygon points="842,907 842,972 786,1004 730,972 730,907 786,875" fill="#e0bf67" stroke-width="1" stroke="#e0bf67"></polygon><polygon points="954,907 954,972 898,1004 842,972 842,907 898,875" fill="#af9c97" stroke-width="1" stroke="#af9c97"></polygon><polygon points="1066,907 1066,972 1010,1004 954,972 954,907 1010,875" fill="#e7c55f" stroke-width="1" stroke="#e7c55f"></polygon><polygon points="1178,907 1178,972 1122,1004 1066,972 1066,907 1122,875" fill="#8175b3" stroke-width="1" stroke="#8175b3"></polygon><polygon points="1291,907 1291,972 1235,1004 1178,972 1178,907 1235,875" fill="#dc5b73" stroke-width="1" stroke="#dc5b73"></polygon><polygon points="1403,907 1403,972 1347,1004 1291,972 1291,907 1347,875" fill="#b93c55" stroke-width="1" stroke="#b93c55"></polygon><polygon points="1515,907 1515,972 1459,1004 1403,972 1403,907 1459,875" fill="#c69097" stroke-width="1" stroke="#c69097"></polygon><polygon points="1627,907 1627,972 1571,1004 1515,972 1515,907 1571,875" fill="#d6b8bd" stroke-width="1" stroke="#d6b8bd"></polygon><polygon points="1740,907 1740,972 1684,1004 1627,972 1627,907 1684,875" fill="#d7b7bb" stroke-width="1" stroke="#d7b7bb"></polygon><polygon points="1852,907 1852,972 1796,1004 1740,972 1740,907 1796,875" fill="#d3556c" stroke-width="1" stroke="#d3556c"></polygon><polygon points="1964,907 1964,972 1908,1004 1852,972 1852,907 1908,875" fill="#c94a62" stroke-width="1" stroke="#c94a62"></polygon><polygon points="2076,907 2076,972 2020,1004 1964,972 1964,907 2020,875" fill="#eae1e3" stroke-width="1" stroke="#eae1e3"></polygon><polygon points="2189,907 2189,972 2133,1004 2076,972 2076,907 2133,875" fill="#b63a52" stroke-width="1" stroke="#b63a52"></polygon><polygon points="2301,907 2301,972 2245,1004 2189,972 2189,907 2245,875" fill="#ebe5e7" stroke-width="1" stroke="#ebe5e7"></polygon><polygon points="112,1004 112,1069 56,1102 0,1069 0,1004 56,972" fill="#d85a71" stroke-width="1" stroke="#d85a71"></polygon><polygon points="224,1004 224,1069 168,1102 112,1069 112,1004 168,972" fill="#e8c559" stroke-width="1" stroke="#e8c559"></polygon><polygon points="337,1004 337,1069 281,1102 224,1069 224,1004 281,972" fill="#ccb07f" stroke-width="1" stroke="#ccb07f"></polygon><polygon points="449,1004 449,1069 393,1102 337,1069 337,1004 393,972" fill="#7a78b5" stroke-width="1" stroke="#7a78b5"></polygon><polygon points="561,1004 561,1069 505,1102 449,1069 449,1004 505,972" fill="#e3c163" stroke-width="1" stroke="#e3c163"></polygon><polygon points="673,1004 673,1069 617,1102 561,1069 561,1004 617,972" fill="#c1a98a" stroke-width="1" stroke="#c1a98a"></polygon><polygon points="786,1004 786,1069 730,1102 673,1069 673,1004 730,972" fill="#dab96c" stroke-width="1" stroke="#dab96c"></polygon><polygon points="898,1004 898,1069 842,1102 786,1069 786,1004 842,972" fill="#9a8ea4" stroke-width="1" stroke="#9a8ea4"></polygon><polygon points="1010,1004 1010,1069 954,1102 898,1069 898,1004 954,972" fill="#ba73a1" stroke-width="1" stroke="#ba73a1"></polygon><polygon points="1122,1004 1122,1069 1066,1102 1010,1069 1010,1004 1066,972" fill="#e96d8a" stroke-width="1" stroke="#e96d8a"></polygon><polygon points="1235,1004 1235,1069 1178,1102 1122,1069 1122,1004 1178,972" fill="#b34d5e" stroke-width="1" stroke="#b34d5e"></polygon><polygon points="1347,1004 1347,1069 1291,1102 1235,1069 1235,1004 1291,972" fill="#ebe5e7" stroke-width="1" stroke="#ebe5e7"></polygon><polygon points="1459,1004 1459,1069 1403,1102 1347,1069 1347,1004 1403,972" fill="#dec9cd" stroke-width="1" stroke="#dec9cd"></polygon><polygon points="1571,1004 1571,1069 1515,1102 1459,1069 1459,1004 1515,972" fill="#ebe5e7" stroke-width="1" stroke="#ebe5e7"></polygon><polygon points="1684,1004 1684,1069 1627,1102 1571,1069 1571,1004 1627,972" fill="#ebe5e7" stroke-width="1" stroke="#ebe5e7"></polygon><polygon points="1796,1004 1796,1069 1740,1102 1684,1069 1684,1004 1740,972" fill="#b0304a" stroke-width="1" stroke="#b0304a"></polygon><polygon points="1908,1004 1908,1069 1852,1102 1796,1069 1796,1004 1852,972" fill="#c2848c" stroke-width="1" stroke="#c2848c"></polygon><polygon points="2020,1004 2020,1069 1964,1102 1908,1069 1908,1004 1964,972" fill="#d5b4b8" stroke-width="1" stroke="#d5b4b8"></polygon><polygon points="2133,1004 2133,1069 2076,1102 2020,1069 2020,1004 2076,972" fill="#d0a9b0" stroke-width="1" stroke="#d0a9b0"></polygon><polygon points="2245,1004 2245,1069 2189,1102 2133,1069 2133,1004 2189,972" fill="#ebe5e7" stroke-width="1" stroke="#ebe5e7"></polygon><polygon points="2357,1004 2357,1069 2301,1102 2245,1069 2245,1004 2301,972" fill="#e2d0d4" stroke-width="1" stroke="#e2d0d4"></polygon><polygon points="56,1102 56,1166 0,1199 -56,1166 -56,1102 0,1069" fill="#e26077" stroke-width="1" stroke="#e26077"></polygon><polygon points="168,1102 168,1166 112,1199 56,1166 56,1102 112,1069" fill="#d27097" stroke-width="1" stroke="#d27097"></polygon><polygon points="281,1102 281,1166 224,1199 168,1166 168,1102 224,1069" fill="#8d74af" stroke-width="1" stroke="#8d74af"></polygon><polygon points="393,1102 393,1166 337,1199 281,1166 281,1102 337,1069" fill="#c8ae84" stroke-width="1" stroke="#c8ae84"></polygon><polygon points="505,1102 505,1166 449,1199 393,1166 393,1102 449,1069" fill="#9775ae" stroke-width="1" stroke="#9775ae"></polygon><polygon points="617,1102 617,1166 561,1199 505,1166 505,1102 561,1069" fill="#e8c559" stroke-width="1" stroke="#e8c559"></polygon><polygon points="730,1102 730,1166 673,1199 617,1166 617,1102 673,1069" fill="#dfbd68" stroke-width="1" stroke="#dfbd68"></polygon><polygon points="842,1102 842,1166 786,1199 730,1166 730,1102 786,1069" fill="#a9989c" stroke-width="1" stroke="#a9989c"></polygon><polygon points="954,1102 954,1166 898,1199 842,1166 842,1102 898,1069" fill="#bca48a" stroke-width="1" stroke="#bca48a"></polygon><polygon points="1066,1102 1066,1166 1010,1199 954,1166 954,1102 1010,1069" fill="#d8b86e" stroke-width="1" stroke="#d8b86e"></polygon><polygon points="1178,1102 1178,1166 1122,1199 1066,1166 1066,1102 1122,1069" fill="#b6a190" stroke-width="1" stroke="#b6a190"></polygon><polygon points="1291,1102 1291,1166 1235,1199 1178,1166 1178,1102 1235,1069" fill="#ce5069" stroke-width="1" stroke="#ce5069"></polygon><polygon points="1403,1102 1403,1166 1347,1199 1291,1166 1291,1102 1347,1069" fill="#b33750" stroke-width="1" stroke="#b33750"></polygon><polygon points="1515,1102 1515,1166 1459,1199 1403,1166 1403,1102 1459,1069" fill="#ebe5e7" stroke-width="1" stroke="#ebe5e7"></polygon><polygon points="1627,1102 1627,1166 1571,1199 1515,1166 1515,1102 1571,1069" fill="#af4b5c" stroke-width="1" stroke="#af4b5c"></polygon><polygon points="1740,1102 1740,1166 1684,1199 1627,1166 1627,1102 1684,1069" fill="#cfa5ac" stroke-width="1" stroke="#cfa5ac"></polygon><polygon points="1852,1102 1852,1166 1796,1199 1740,1166 1740,1102 1796,1069" fill="#e1d0d4" stroke-width="1" stroke="#e1d0d4"></polygon><polygon points="1964,1102 1964,1166 1908,1199 1852,1166 1852,1102 1908,1069" fill="#b65d6c" stroke-width="1" stroke="#b65d6c"></polygon><polygon points="2076,1102 2076,1166 2020,1199 1964,1166 1964,1102 2020,1069" fill="#c2848c" stroke-width="1" stroke="#c2848c"></polygon><polygon points="2189,1102 2189,1166 2133,1199 2076,1166 2076,1102 2133,1069" fill="#e7dadc" stroke-width="1" stroke="#e7dadc"></polygon><polygon points="2301,1102 2301,1166 2245,1199 2189,1166 2189,1102 2245,1069" fill="#ebe5e7" stroke-width="1" stroke="#ebe5e7"></polygon><polygon points="112,1199 112,1264 56,1296 0,1264 0,1199 56,1166" fill="#7e7ab3" stroke-width="1" stroke="#7e7ab3"></polygon><polygon points="224,1199 224,1264 168,1296 112,1264 112,1199 168,1166" fill="#b073a6" stroke-width="1" stroke="#b073a6"></polygon><polygon points="337,1199 337,1264 281,1296 224,1264 224,1199 281,1166" fill="#a9989c" stroke-width="1" stroke="#a9989c"></polygon><polygon points="449,1199 449,1264 393,1296 337,1264 337,1199 393,1166" fill="#cfb27d" stroke-width="1" stroke="#cfb27d"></polygon><polygon points="561,1199 561,1264 505,1296 449,1264 449,1199 505,1166" fill="#9d90a2" stroke-width="1" stroke="#9d90a2"></polygon><polygon points="673,1199 673,1264 617,1296 561,1264 561,1199 617,1166" fill="#7c79b4" stroke-width="1" stroke="#7c79b4"></polygon><polygon points="786,1199 786,1264 730,1296 673,1264 673,1199 730,1166" fill="#e3c164" stroke-width="1" stroke="#e3c164"></polygon><polygon points="898,1199 898,1264 842,1296 786,1264 786,1199 842,1166" fill="#988da5" stroke-width="1" stroke="#988da5"></polygon><polygon points="1010,1199 1010,1264 954,1296 898,1264 898,1199 954,1166" fill="#c3aa88" stroke-width="1" stroke="#c3aa88"></polygon><polygon points="1122,1199 1122,1264 1066,1296 1010,1264 1010,1199 1066,1166" fill="#7877b6" stroke-width="1" stroke="#7877b6"></polygon><polygon points="1235,1199 1235,1264 1178,1296 1122,1264 1122,1199 1178,1166" fill="#dc5b73" stroke-width="1" stroke="#dc5b73"></polygon><polygon points="1347,1199 1347,1264 1291,1296 1235,1264 1235,1199 1291,1166" fill="#e4d3d6" stroke-width="1" stroke="#e4d3d6"></polygon><polygon points="1459,1199 1459,1264 1403,1296 1347,1264 1347,1199 1403,1166" fill="#ebe5e7" stroke-width="1" stroke="#ebe5e7"></polygon><polygon points="1571,1199 1571,1264 1515,1296 1459,1264 1459,1199 1515,1166" fill="#d0a9b0" stroke-width="1" stroke="#d0a9b0"></polygon><polygon points="1684,1199 1684,1264 1627,1296 1571,1264 1571,1199 1627,1166" fill="#b45565" stroke-width="1" stroke="#b45565"></polygon><polygon points="1796,1199 1796,1264 1740,1296 1684,1264 1684,1199 1740,1166" fill="#ebe5e7" stroke-width="1" stroke="#ebe5e7"></polygon><polygon points="1908,1199 1908,1264 1852,1296 1796,1264 1796,1199 1852,1166" fill="#e6dbde" stroke-width="1" stroke="#e6dbde"></polygon><polygon points="2020,1199 2020,1264 1964,1296 1908,1264 1908,1199 1964,1166" fill="#b34d5e" stroke-width="1" stroke="#b34d5e"></polygon><polygon points="2133,1199 2133,1264 2076,1296 2020,1264 2020,1199 2076,1166" fill="#b0304a" stroke-width="1" stroke="#b0304a"></polygon><polygon points="2245,1199 2245,1264 2189,1296 2133,1264 2133,1199 2189,1166" fill="#ebe5e7" stroke-width="1" stroke="#ebe5e7"></polygon><polygon points="2357,1199 2357,1264 2301,1296 2245,1264 2245,1199 2301,1166" fill="#ebe5e7" stroke-width="1" stroke="#ebe5e7"></polygon><polygon points="56,1296 56,1361 0,1393 -56,1361 -56,1296 0,1264" fill="#ea667f" stroke-width="1" stroke="#ea667f"></polygon><polygon points="168,1296 168,1361 112,1393 56,1361 56,1296 112,1264" fill="#ed6881" stroke-width="1" stroke="#ed6881"></polygon><polygon points="281,1296 281,1361 224,1393 168,1361 168,1296 224,1264" fill="#d1b47b" stroke-width="1" stroke="#d1b47b"></polygon><polygon points="393,1296 393,1361 337,1393 281,1361 281,1296 337,1264" fill="#d9bb6d" stroke-width="1" stroke="#d9bb6d"></polygon><polygon points="505,1296 505,1361 449,1393 393,1361 393,1296 449,1264" fill="#ac9c9a" stroke-width="1" stroke="#ac9c9a"></polygon><polygon points="617,1296 617,1361 561,1393 505,1361 505,1296 561,1264" fill="#eac857" stroke-width="1" stroke="#eac857"></polygon><polygon points="730,1296 730,1361 673,1393 617,1361 617,1296 673,1264" fill="#af9d97" stroke-width="1" stroke="#af9d97"></polygon><polygon points="842,1296 842,1361 786,1393 730,1361 730,1296 786,1264" fill="#c4ab87" stroke-width="1" stroke="#c4ab87"></polygon><polygon points="954,1296 954,1361 898,1393 842,1361 842,1296 898,1264" fill="#837db0" stroke-width="1" stroke="#837db0"></polygon><polygon points="1066,1296 1066,1361 1010,1393 954,1361 954,1296 1010,1264" fill="#c8ae84" stroke-width="1" stroke="#c8ae84"></polygon><polygon points="1178,1296 1178,1361 1122,1393 1066,1361 1066,1296 1122,1264" fill="#baa38c" stroke-width="1" stroke="#baa38c"></polygon><polygon points="1291,1296 1291,1361 1235,1393 1178,1361 1178,1296 1235,1264" fill="#d4546b" stroke-width="1" stroke="#d4546b"></polygon><polygon points="1403,1296 1403,1361 1347,1393 1291,1361 1291,1296 1347,1264" fill="#bb3e55" stroke-width="1" stroke="#bb3e55"></polygon><polygon points="1515,1296 1515,1361 1459,1393 1403,1361 1403,1296 1459,1264" fill="#c18189" stroke-width="1" stroke="#c18189"></polygon><polygon points="1627,1296 1627,1361 1571,1393 1515,1361 1515,1296 1571,1264" fill="#ebe5e7" stroke-width="1" stroke="#ebe5e7"></polygon><polygon points="1740,1296 1740,1361 1684,1393 1627,1361 1627,1296 1684,1264" fill="#e3d3d7" stroke-width="1" stroke="#e3d3d7"></polygon><polygon points="1852,1296 1852,1361 1796,1393 1740,1361 1740,1296 1796,1264" fill="#cea1a8" stroke-width="1" stroke="#cea1a8"></polygon><polygon points="1964,1296 1964,1361 1908,1393 1852,1361 1852,1296 1908,1264" fill="#cd4c64" stroke-width="1" stroke="#cd4c64"></polygon><polygon points="2076,1296 2076,1361 2020,1393 1964,1361 1964,1296 2020,1264" fill="#d9bfc3" stroke-width="1" stroke="#d9bfc3"></polygon><polygon points="2189,1296 2189,1361 2133,1393 2076,1361 2076,1296 2133,1264" fill="#b86572" stroke-width="1" stroke="#b86572"></polygon><polygon points="2301,1296 2301,1361 2245,1393 2189,1361 2189,1296 2245,1264" fill="#d7b7bc" stroke-width="1" stroke="#d7b7bc"></polygon><polygon points="112,1393 112,1458 56,1490 0,1458 0,1393 56,1361" fill="#a772a7" stroke-width="1" stroke="#a772a7"></polygon><polygon points="224,1393 224,1458 168,1490 112,1458 112,1393 168,1361" fill="#c0729f" stroke-width="1" stroke="#c0729f"></polygon><polygon points="337,1393 337,1458 281,1490 224,1458 224,1393 281,1361" fill="#debd68" stroke-width="1" stroke="#debd68"></polygon><polygon points="449,1393 449,1458 393,1490 337,1458 337,1393 393,1361" fill="#8976b2" stroke-width="1" stroke="#8976b2"></polygon><polygon points="561,1393 561,1458 505,1490 449,1458 449,1393 505,1361" fill="#dab96c" stroke-width="1" stroke="#dab96c"></polygon><polygon points="673,1393 673,1458 617,1490 561,1458 561,1393 617,1361" fill="#7a78b5" stroke-width="1" stroke="#7a78b5"></polygon><polygon points="786,1393 786,1458 730,1490 673,1458 673,1393 730,1361" fill="#bba38b" stroke-width="1" stroke="#bba38b"></polygon><polygon points="898,1393 898,1458 842,1490 786,1458 786,1393 842,1361" fill="#ebc856" stroke-width="1" stroke="#ebc856"></polygon><polygon points="1010,1393 1010,1458 954,1490 898,1458 898,1393 954,1361" fill="#e3c164" stroke-width="1" stroke="#e3c164"></polygon><polygon points="1122,1393 1122,1458 1066,1490 1010,1458 1010,1393 1066,1361" fill="#9b73ab" stroke-width="1" stroke="#9b73ab"></polygon><polygon points="1235,1393 1235,1458 1178,1490 1122,1458 1122,1393 1178,1361" fill="#e96d8a" stroke-width="1" stroke="#e96d8a"></polygon><polygon points="1347,1393 1347,1458 1291,1490 1235,1458 1235,1393 1291,1361" fill="#d8babf" stroke-width="1" stroke="#d8babf"></polygon><polygon points="1459,1393 1459,1458 1403,1490 1347,1458 1347,1393 1403,1361" fill="#ebe5e7" stroke-width="1" stroke="#ebe5e7"></polygon><polygon points="1571,1393 1571,1458 1515,1490 1459,1458 1459,1393 1515,1361" fill="#ebe5e7" stroke-width="1" stroke="#ebe5e7"></polygon><polygon points="1684,1393 1684,1458 1627,1490 1571,1458 1571,1393 1627,1361" fill="#ebe5e7" stroke-width="1" stroke="#ebe5e7"></polygon><polygon points="1796,1393 1796,1458 1740,1490 1684,1458 1684,1393 1740,1361" fill="#cc9ea4" stroke-width="1" stroke="#cc9ea4"></polygon><polygon points="1908,1393 1908,1458 1852,1490 1796,1458 1796,1393 1852,1361" fill="#ebe5e7" stroke-width="1" stroke="#ebe5e7"></polygon><polygon points="2020,1393 2020,1458 1964,1490 1908,1458 1908,1393 1964,1361" fill="#ebe5e7" stroke-width="1" stroke="#ebe5e7"></polygon><polygon points="2133,1393 2133,1458 2076,1490 2020,1458 2020,1393 2076,1361" fill="#ebe5e7" stroke-width="1" stroke="#ebe5e7"></polygon><polygon points="2245,1393 2245,1458 2189,1490 2133,1458 2133,1393 2189,1361" fill="#b63a52" stroke-width="1" stroke="#b63a52"></polygon><polygon points="2357,1393 2357,1458 2301,1490 2245,1458 2245,1393 2301,1361" fill="#ebe5e7" stroke-width="1" stroke="#ebe5e7"></polygon><polygon points="56,1490 56,1555 0,1588 -56,1555 -56,1490 0,1458" fill="#9675ae" stroke-width="1" stroke="#9675ae"></polygon><polygon points="168,1490 168,1555 112,1588 56,1555 56,1490 112,1458" fill="#d27097" stroke-width="1" stroke="#d27097"></polygon><polygon points="281,1490 281,1555 224,1588 168,1555 168,1490 224,1458" fill="#9a73ab" stroke-width="1" stroke="#9a73ab"></polygon><polygon points="393,1490 393,1555 337,1588 281,1555 281,1490 337,1458" fill="#9489a9" stroke-width="1" stroke="#9489a9"></polygon><polygon points="505,1490 505,1555 449,1588 393,1555 393,1490 449,1458" fill="#b073a5" stroke-width="1" stroke="#b073a5"></polygon><polygon points="617,1490 617,1555 561,1588 505,1555 505,1490 561,1458" fill="#9675ae" stroke-width="1" stroke="#9675ae"></polygon><polygon points="730,1490 730,1555 673,1588 617,1555 617,1490 673,1458" fill="#e1be66" stroke-width="1" stroke="#e1be66"></polygon><polygon points="842,1490 842,1555 786,1588 730,1555 730,1490 786,1458" fill="#968ba7" stroke-width="1" stroke="#968ba7"></polygon><polygon points="954,1490 954,1555 898,1588 842,1555 842,1490 898,1458" fill="#b7a18f" stroke-width="1" stroke="#b7a18f"></polygon><polygon points="1066,1490 1066,1555 1010,1588 954,1555 954,1490 1010,1458" fill="#c7709c" stroke-width="1" stroke="#c7709c"></polygon><polygon points="1178,1490 1178,1555 1122,1588 1066,1555 1066,1490 1122,1458" fill="#d4546d" stroke-width="1" stroke="#d4546d"></polygon><polygon points="1291,1490 1291,1555 1235,1588 1178,1555 1178,1490 1235,1458" fill="#be415a" stroke-width="1" stroke="#be415a"></polygon><polygon points="1403,1490 1403,1555 1347,1588 1291,1555 1291,1490 1347,1458" fill="#cfa5ac" stroke-width="1" stroke="#cfa5ac"></polygon><polygon points="1515,1490 1515,1555 1459,1588 1403,1555 1403,1490 1459,1458" fill="#ebe5e7" stroke-width="1" stroke="#ebe5e7"></polygon><polygon points="1627,1490 1627,1555 1571,1588 1515,1555 1515,1490 1571,1458" fill="#ebe5e7" stroke-width="1" stroke="#ebe5e7"></polygon><polygon points="1740,1490 1740,1555 1684,1588 1627,1555 1627,1490 1684,1458" fill="#e5d7da" stroke-width="1" stroke="#e5d7da"></polygon><polygon points="1852,1490 1852,1555 1796,1588 1740,1555 1740,1490 1796,1458" fill="#b2344d" stroke-width="1" stroke="#b2344d"></polygon><polygon points="1964,1490 1964,1555 1908,1588 1852,1555 1852,1490 1908,1458" fill="#cda2a9" stroke-width="1" stroke="#cda2a9"></polygon><polygon points="2076,1490 2076,1555 2020,1588 1964,1555 1964,1490 2020,1458" fill="#c7485f" stroke-width="1" stroke="#c7485f"></polygon><polygon points="2189,1490 2189,1555 2133,1588 2076,1555 2076,1490 2133,1458" fill="#ebe5e7" stroke-width="1" stroke="#ebe5e7"></polygon><polygon points="2301,1490 2301,1555 2245,1588 2189,1555 2189,1490 2245,1458" fill="#ebe5e7" stroke-width="1" stroke="#ebe5e7"></polygon><polygon points="112,1588 112,1652 56,1685 0,1652 0,1588 56,1555" fill="#d86e91" stroke-width="1" stroke="#d86e91"></polygon><polygon points="224,1588 224,1652 168,1685 112,1652 112,1588 168,1555" fill="#debd68" stroke-width="1" stroke="#debd68"></polygon><polygon points="337,1588 337,1652 281,1685 224,1652 224,1588 281,1555" fill="#b172a4" stroke-width="1" stroke="#b172a4"></polygon><polygon points="449,1588 449,1652 393,1685 337,1652 337,1588 393,1555" fill="#8676b2" stroke-width="1" stroke="#8676b2"></polygon><polygon points="561,1588 561,1652 505,1685 449,1652 449,1588 505,1555" fill="#877fad" stroke-width="1" stroke="#877fad"></polygon><polygon points="673,1588 673,1652 617,1685 561,1652 561,1588 617,1555" fill="#bfa788" stroke-width="1" stroke="#bfa788"></polygon><polygon points="786,1588 786,1652 730,1685 673,1652 673,1588 730,1555" fill="#cdb27e" stroke-width="1" stroke="#cdb27e"></polygon><polygon points="898,1588 898,1652 842,1685 786,1652 786,1588 842,1555" fill="#867fad" stroke-width="1" stroke="#867fad"></polygon><polygon points="1010,1588 1010,1652 954,1685 898,1652 898,1588 954,1555" fill="#d27097" stroke-width="1" stroke="#d27097"></polygon><polygon points="1122,1588 1122,1652 1066,1685 1010,1652 1010,1588 1066,1555" fill="#8776b2" stroke-width="1" stroke="#8776b2"></polygon><polygon points="1235,1588 1235,1652 1178,1685 1122,1652 1122,1588 1178,1555" fill="#e8647c" stroke-width="1" stroke="#e8647c"></polygon><polygon points="1347,1588 1347,1652 1291,1685 1235,1652 1235,1588 1291,1555" fill="#d15269" stroke-width="1" stroke="#d15269"></polygon><polygon points="1459,1588 1459,1652 1403,1685 1347,1652 1347,1588 1403,1555" fill="#ebe5e7" stroke-width="1" stroke="#ebe5e7"></polygon><polygon points="1571,1588 1571,1652 1515,1685 1459,1652 1459,1588 1515,1555" fill="#ebe5e7" stroke-width="1" stroke="#ebe5e7"></polygon><polygon points="1684,1588 1684,1652 1627,1685 1571,1652 1571,1588 1627,1555" fill="#c2848c" stroke-width="1" stroke="#c2848c"></polygon><polygon points="1796,1588 1796,1652 1740,1685 1684,1652 1684,1588 1740,1555" fill="#af314b" stroke-width="1" stroke="#af314b"></polygon><polygon points="1908,1588 1908,1652 1852,1685 1796,1652 1796,1588 1852,1555" fill="#d0536a" stroke-width="1" stroke="#d0536a"></polygon><polygon points="2020,1588 2020,1652 1964,1685 1908,1652 1908,1588 1964,1555" fill="#c2425c" stroke-width="1" stroke="#c2425c"></polygon><polygon points="2133,1588 2133,1652 2076,1685 2020,1652 2020,1588 2076,1555" fill="#ebe5e7" stroke-width="1" stroke="#ebe5e7"></polygon><polygon points="2245,1588 2245,1652 2189,1685 2133,1652 2133,1588 2189,1555" fill="#aa2c45" stroke-width="1" stroke="#aa2c45"></polygon><polygon points="2357,1588 2357,1652 2301,1685 2245,1652 2245,1588 2301,1555" fill="#ebe5e7" stroke-width="1" stroke="#ebe5e7"></polygon><polygon points="56,1685 56,1750 0,1782 -56,1750 -56,1685 0,1652" fill="#ed6881" stroke-width="1" stroke="#ed6881"></polygon><polygon points="168,1685 168,1750 112,1782 56,1750 56,1685 112,1652" fill="#817cb1" stroke-width="1" stroke="#817cb1"></polygon><polygon points="281,1685 281,1750 224,1782 168,1750 168,1685 224,1652" fill="#b672a2" stroke-width="1" stroke="#b672a2"></polygon><polygon points="393,1685 393,1750 337,1782 281,1750 281,1685 337,1652" fill="#dabb71" stroke-width="1" stroke="#dabb71"></polygon><polygon points="505,1685 505,1750 449,1782 393,1750 393,1685 449,1652" fill="#b6a091" stroke-width="1" stroke="#b6a091"></polygon><polygon points="617,1685 617,1750 561,1782 505,1750 505,1685 561,1652" fill="#9975ae" stroke-width="1" stroke="#9975ae"></polygon><polygon points="730,1685 730,1750 673,1782 617,1750 617,1685 673,1652" fill="#ab9b9b" stroke-width="1" stroke="#ab9b9b"></polygon><polygon points="842,1685 842,1750 786,1782 730,1750 730,1685 786,1652" fill="#e3c164" stroke-width="1" stroke="#e3c164"></polygon><polygon points="954,1685 954,1750 898,1782 842,1750 842,1685 898,1652" fill="#b7a28f" stroke-width="1" stroke="#b7a28f"></polygon><polygon points="1066,1685 1066,1750 1010,1782 954,1750 954,1685 1010,1652" fill="#e9c558" stroke-width="1" stroke="#e9c558"></polygon><polygon points="1178,1685 1178,1750 1122,1782 1066,1750 1066,1685 1122,1652" fill="#a4949f" stroke-width="1" stroke="#a4949f"></polygon><polygon points="1291,1685 1291,1750 1235,1782 1178,1750 1178,1685 1235,1652" fill="#e76e8d" stroke-width="1" stroke="#e76e8d"></polygon><polygon points="1403,1685 1403,1750 1347,1782 1291,1750 1291,1685 1347,1652" fill="#cb9aa1" stroke-width="1" stroke="#cb9aa1"></polygon><polygon points="1515,1685 1515,1750 1459,1782 1403,1750 1403,1685 1459,1652" fill="#b63a52" stroke-width="1" stroke="#b63a52"></polygon><polygon points="1627,1685 1627,1750 1571,1782 1515,1750 1515,1685 1571,1652" fill="#e2d0d3" stroke-width="1" stroke="#e2d0d3"></polygon><polygon points="1740,1685 1740,1750 1684,1782 1627,1750 1627,1685 1684,1652" fill="#ebe5e7" stroke-width="1" stroke="#ebe5e7"></polygon><polygon points="1852,1685 1852,1750 1796,1782 1740,1750 1740,1685 1796,1652" fill="#ebe5e7" stroke-width="1" stroke="#ebe5e7"></polygon><polygon points="1964,1685 1964,1750 1908,1782 1852,1750 1852,1685 1908,1652" fill="#ebe5e7" stroke-width="1" stroke="#ebe5e7"></polygon><polygon points="2076,1685 2076,1750 2020,1782 1964,1750 1964,1685 2020,1652" fill="#d6576e" stroke-width="1" stroke="#d6576e"></polygon><polygon points="2189,1685 2189,1750 2133,1782 2076,1750 2076,1685 2133,1652" fill="#cc9ea6" stroke-width="1" stroke="#cc9ea6"></polygon><polygon points="2301,1685 2301,1750 2245,1782 2189,1750 2189,1685 2245,1652" fill="#ad384e" stroke-width="1" stroke="#ad384e"></polygon><polygon points="112,1782 112,1847 56,1879 0,1847 0,1782 56,1750" fill="#c1719d" stroke-width="1" stroke="#c1719d"></polygon><polygon points="224,1782 224,1847 168,1879 112,1847 112,1782 168,1750" fill="#d77095" stroke-width="1" stroke="#d77095"></polygon><polygon points="337,1782 337,1847 281,1879 224,1847 224,1782 281,1750" fill="#d5b776" stroke-width="1" stroke="#d5b776"></polygon><polygon points="449,1782 449,1847 393,1879 337,1847 337,1782 393,1750" fill="#948aa8" stroke-width="1" stroke="#948aa8"></polygon><polygon points="561,1782 561,1847 505,1879 449,1847 449,1782 505,1750" fill="#d1b47a" stroke-width="1" stroke="#d1b47a"></polygon><polygon points="673,1782 673,1847 617,1879 561,1847 561,1782 617,1750" fill="#8f86ac" stroke-width="1" stroke="#8f86ac"></polygon><polygon points="786,1782 786,1847 730,1879 673,1847 673,1782 730,1750" fill="#9289a9" stroke-width="1" stroke="#9289a9"></polygon><polygon points="898,1782 898,1847 842,1879 786,1847 786,1782 842,1750" fill="#ecc955" stroke-width="1" stroke="#ecc955"></polygon><polygon points="1010,1782 1010,1847 954,1879 898,1847 898,1782 954,1750" fill="#cc719a" stroke-width="1" stroke="#cc719a"></polygon><polygon points="1122,1782 1122,1847 1066,1879 1010,1847 1010,1782 1066,1750" fill="#ea667f" stroke-width="1" stroke="#ea667f"></polygon><polygon points="1235,1782 1235,1847 1178,1879 1122,1847 1122,1782 1178,1750" fill="#c69098" stroke-width="1" stroke="#c69098"></polygon><polygon points="1347,1782 1347,1847 1291,1879 1235,1847 1235,1782 1291,1750" fill="#ebe5e7" stroke-width="1" stroke="#ebe5e7"></polygon><polygon points="1459,1782 1459,1847 1403,1879 1347,1847 1347,1782 1403,1750" fill="#ebe5e7" stroke-width="1" stroke="#ebe5e7"></polygon><polygon points="1571,1782 1571,1847 1515,1879 1459,1847 1459,1782 1515,1750" fill="#ebe5e7" stroke-width="1" stroke="#ebe5e7"></polygon><polygon points="1684,1782 1684,1847 1627,1879 1571,1847 1571,1782 1627,1750" fill="#b86572" stroke-width="1" stroke="#b86572"></polygon><polygon points="1796,1782 1796,1847 1740,1879 1684,1847 1684,1782 1740,1750" fill="#ebe5e7" stroke-width="1" stroke="#ebe5e7"></polygon><polygon points="1908,1782 1908,1847 1852,1879 1796,1847 1796,1782 1852,1750" fill="#c07c86" stroke-width="1" stroke="#c07c86"></polygon><polygon points="2020,1782 2020,1847 1964,1879 1908,1847 1908,1782 1964,1750" fill="#ebe5e7" stroke-width="1" stroke="#ebe5e7"></polygon><polygon points="2133,1782 2133,1847 2076,1879 2020,1847 2020,1782 2076,1750" fill="#ebe5e7" stroke-width="1" stroke="#ebe5e7"></polygon><polygon points="2245,1782 2245,1847 2189,1879 2133,1847 2133,1782 2189,1750" fill="#c2848c" stroke-width="1" stroke="#c2848c"></polygon><polygon points="2357,1782 2357,1847 2301,1879 2245,1847 2245,1782 2301,1750" fill="#e7dadc" stroke-width="1" stroke="#e7dadc"></polygon><polygon points="56,1879 56,1944 0,1976 -56,1944 -56,1879 0,1847" fill="#ea6c87" stroke-width="1" stroke="#ea6c87"></polygon><polygon points="168,1879 168,1944 112,1976 56,1944 56,1879 112,1847" fill="#8876b2" stroke-width="1" stroke="#8876b2"></polygon><polygon points="281,1879 281,1944 224,1976 168,1944 168,1879 224,1847" fill="#de6e8f" stroke-width="1" stroke="#de6e8f"></polygon><polygon points="393,1879 393,1944 337,1976 281,1944 281,1879 337,1847" fill="#aa74a7" stroke-width="1" stroke="#aa74a7"></polygon><polygon points="505,1879 505,1944 449,1976 393,1944 393,1879 449,1847" fill="#e6c35c" stroke-width="1" stroke="#e6c35c"></polygon><polygon points="617,1879 617,1944 561,1976 505,1944 505,1879 561,1847" fill="#b4a093" stroke-width="1" stroke="#b4a093"></polygon><polygon points="730,1879 730,1944 673,1976 617,1944 617,1879 673,1847" fill="#9188aa" stroke-width="1" stroke="#9188aa"></polygon><polygon points="842,1879 842,1944 786,1976 730,1944 730,1879 786,1847" fill="#dbbb6b" stroke-width="1" stroke="#dbbb6b"></polygon><polygon points="954,1879 954,1944 898,1976 842,1944 842,1879 898,1847" fill="#8e86ac" stroke-width="1" stroke="#8e86ac"></polygon><polygon points="1066,1879 1066,1944 1010,1976 954,1944 954,1879 1010,1847" fill="#ebc656" stroke-width="1" stroke="#ebc656"></polygon><polygon points="1178,1879 1178,1944 1122,1976 1066,1944 1066,1879 1122,1847" fill="#aa74a7" stroke-width="1" stroke="#aa74a7"></polygon><polygon points="1291,1879 1291,1944 1235,1976 1178,1944 1178,1879 1235,1847" fill="#b974a2" stroke-width="1" stroke="#b974a2"></polygon><polygon points="1403,1879 1403,1944 1347,1976 1291,1944 1291,1879 1347,1847" fill="#d1a9af" stroke-width="1" stroke="#d1a9af"></polygon><polygon points="1515,1879 1515,1944 1459,1976 1403,1944 1403,1879 1459,1847" fill="#ebe5e7" stroke-width="1" stroke="#ebe5e7"></polygon><polygon points="1627,1879 1627,1944 1571,1976 1515,1944 1515,1879 1571,1847" fill="#ca9ba1" stroke-width="1" stroke="#ca9ba1"></polygon><polygon points="1740,1879 1740,1944 1684,1976 1627,1944 1627,1879 1684,1847" fill="#cfa5ac" stroke-width="1" stroke="#cfa5ac"></polygon><polygon points="1852,1879 1852,1944 1796,1976 1740,1944 1740,1879 1796,1847" fill="#dec9cc" stroke-width="1" stroke="#dec9cc"></polygon><polygon points="1964,1879 1964,1944 1908,1976 1852,1944 1852,1879 1908,1847" fill="#ebe5e7" stroke-width="1" stroke="#ebe5e7"></polygon><polygon points="2076,1879 2076,1944 2020,1976 1964,1944 1964,1879 2020,1847" fill="#bc6c78" stroke-width="1" stroke="#bc6c78"></polygon><polygon points="2189,1879 2189,1944 2133,1976 2076,1944 2076,1879 2133,1847" fill="#c2848c" stroke-width="1" stroke="#c2848c"></polygon><polygon points="2301,1879 2301,1944 2245,1976 2189,1944 2189,1879 2245,1847" fill="#ebe5e7" stroke-width="1" stroke="#ebe5e7"></polygon><polygon points="112,1976 112,2041 56,2074 0,2041 0,1976 56,1944" fill="#db5c73" stroke-width="1" stroke="#db5c73"></polygon><polygon points="224,1976 224,2041 168,2074 112,2041 112,1976 168,1944" fill="#ab73a5" stroke-width="1" stroke="#ab73a5"></polygon><polygon points="337,1976 337,2041 281,2074 224,2041 224,1976 281,1944" fill="#988da5" stroke-width="1" stroke="#988da5"></polygon><polygon points="449,1976 449,2041 393,2074 337,2041 337,1976 393,1944" fill="#c3ac88" stroke-width="1" stroke="#c3ac88"></polygon><polygon points="561,1976 561,2041 505,2074 449,2041 449,1976 505,1944" fill="#9274af" stroke-width="1" stroke="#9274af"></polygon><polygon points="673,1976 673,2041 617,2074 561,2041 561,1976 617,1944" fill="#d9b96d" stroke-width="1" stroke="#d9b96d"></polygon><polygon points="786,1976 786,2041 730,2074 673,2041 673,1976 730,1944" fill="#d8b874" stroke-width="1" stroke="#d8b874"></polygon><polygon points="898,1976 898,2041 842,2074 786,2041 786,1976 842,1944" fill="#e3c163" stroke-width="1" stroke="#e3c163"></polygon><polygon points="1010,1976 1010,2041 954,2074 898,2041 898,1976 954,1944" fill="#aa74a7" stroke-width="1" stroke="#aa74a7"></polygon><polygon points="1122,1976 1122,2041 1066,2074 1010,2041 1010,1976 1066,1944" fill="#d86e91" stroke-width="1" stroke="#d86e91"></polygon><polygon points="1235,1976 1235,2041 1178,2074 1122,2041 1122,1976 1178,1944" fill="#be415a" stroke-width="1" stroke="#be415a"></polygon><polygon points="1347,1976 1347,2041 1291,2074 1235,2041 1235,1976 1291,1944" fill="#c8939a" stroke-width="1" stroke="#c8939a"></polygon><polygon points="1459,1976 1459,2041 1403,2074 1347,2041 1347,1976 1403,1944" fill="#e7dade" stroke-width="1" stroke="#e7dade"></polygon><polygon points="1571,1976 1571,2041 1515,2074 1459,2041 1459,1976 1515,1944" fill="#ebe5e7" stroke-width="1" stroke="#ebe5e7"></polygon><polygon points="1684,1976 1684,2041 1627,2074 1571,2041 1571,1976 1627,1944" fill="#b8616e" stroke-width="1" stroke="#b8616e"></polygon><polygon points="1796,1976 1796,2041 1740,2074 1684,2041 1684,1976 1740,1944" fill="#b65868" stroke-width="1" stroke="#b65868"></polygon><polygon points="1908,1976 1908,2041 1852,2074 1796,2041 1796,1976 1852,1944" fill="#a92d48" stroke-width="1" stroke="#a92d48"></polygon><polygon points="2020,1976 2020,2041 1964,2074 1908,2041 1908,1976 1964,1944" fill="#c9979e" stroke-width="1" stroke="#c9979e"></polygon><polygon points="2133,1976 2133,2041 2076,2074 2020,2041 2020,1976 2076,1944" fill="#ebe5e7" stroke-width="1" stroke="#ebe5e7"></polygon><polygon points="2245,1976 2245,2041 2189,2074 2133,2041 2133,1976 2189,1944" fill="#b2344d" stroke-width="1" stroke="#b2344d"></polygon><polygon points="2357,1976 2357,2041 2301,2074 2245,2041 2245,1976 2301,1944" fill="#dec9cc" stroke-width="1" stroke="#dec9cc"></polygon><polygon points="56,2074 56,2138 0,2171 -56,2138 -56,2074 0,2041" fill="#ef6c86" stroke-width="1" stroke="#ef6c86"></polygon><polygon points="168,2074 168,2138 112,2171 56,2138 56,2074 112,2041" fill="#d3556c" stroke-width="1" stroke="#d3556c"></polygon><polygon points="281,2074 281,2138 224,2171 168,2138 168,2074 224,2041" fill="#9188aa" stroke-width="1" stroke="#9188aa"></polygon><polygon points="393,2074 393,2138 337,2171 281,2138 281,2074 337,2041" fill="#9873ab" stroke-width="1" stroke="#9873ab"></polygon><polygon points="505,2074 505,2138 449,2171 393,2138 393,2074 449,2041" fill="#dbbb6b" stroke-width="1" stroke="#dbbb6b"></polygon><polygon points="617,2074 617,2138 561,2171 505,2138 505,2074 561,2041" fill="#caae81" stroke-width="1" stroke="#caae81"></polygon><polygon points="730,2074 730,2138 673,2171 617,2138 617,2074 673,2041" fill="#c6ac86" stroke-width="1" stroke="#c6ac86"></polygon><polygon points="842,2074 842,2138 786,2171 730,2138 730,2074 786,2041" fill="#e8c559" stroke-width="1" stroke="#e8c559"></polygon><polygon points="954,2074 954,2138 898,2171 842,2138 842,2074 898,2041" fill="#cfb37d" stroke-width="1" stroke="#cfb37d"></polygon><polygon points="1066,2074 1066,2138 1010,2171 954,2138 954,2074 1010,2041" fill="#9b74aa" stroke-width="1" stroke="#9b74aa"></polygon><polygon points="1178,2074 1178,2138 1122,2171 1066,2138 1066,2074 1122,2041" fill="#b29e95" stroke-width="1" stroke="#b29e95"></polygon><polygon points="1291,2074 1291,2138 1235,2171 1178,2138 1178,2074 1235,2041" fill="#cb4d64" stroke-width="1" stroke="#cb4d64"></polygon><polygon points="1403,2074 1403,2138 1347,2171 1291,2138 1291,2074 1347,2041" fill="#c4455e" stroke-width="1" stroke="#c4455e"></polygon><polygon points="1515,2074 1515,2138 1459,2171 1403,2138 1403,2074 1459,2041" fill="#cda2a9" stroke-width="1" stroke="#cda2a9"></polygon><polygon points="1627,2074 1627,2138 1571,2171 1515,2138 1515,2074 1571,2041" fill="#c8939b" stroke-width="1" stroke="#c8939b"></polygon><polygon points="1740,2074 1740,2138 1684,2171 1627,2138 1627,2074 1684,2041" fill="#be4158" stroke-width="1" stroke="#be4158"></polygon><polygon points="1852,2074 1852,2138 1796,2171 1740,2138 1740,2074 1796,2041" fill="#ebe5e7" stroke-width="1" stroke="#ebe5e7"></polygon><polygon points="1964,2074 1964,2138 1908,2171 1852,2138 1852,2074 1908,2041" fill="#ebe5e7" stroke-width="1" stroke="#ebe5e7"></polygon><polygon points="2076,2074 2076,2138 2020,2171 1964,2138 1964,2074 2020,2041" fill="#b63a52" stroke-width="1" stroke="#b63a52"></polygon><polygon points="2189,2074 2189,2138 2133,2171 2076,2138 2076,2074 2133,2041" fill="#ab3049" stroke-width="1" stroke="#ab3049"></polygon><polygon points="2301,2074 2301,2138 2245,2171 2189,2138 2189,2074 2245,2041" fill="#ebe5e7" stroke-width="1" stroke="#ebe5e7"></polygon><polygon points="112,2171 112,2236 56,2268 0,2236 0,2171 56,2138" fill="#9174af" stroke-width="1" stroke="#9174af"></polygon><polygon points="224,2171 224,2236 168,2268 112,2236 112,2171 168,2138" fill="#d06d96" stroke-width="1" stroke="#d06d96"></polygon><polygon points="337,2171 337,2236 281,2268 224,2236 224,2171 281,2138" fill="#d8b86f" stroke-width="1" stroke="#d8b86f"></polygon><polygon points="449,2171 449,2236 393,2268 337,2236 337,2171 393,2138" fill="#ad71a4" stroke-width="1" stroke="#ad71a4"></polygon><polygon points="561,2171 561,2236 505,2268 449,2236 449,2171 505,2138" fill="#dfbd68" stroke-width="1" stroke="#dfbd68"></polygon><polygon points="673,2171 673,2236 617,2268 561,2236 561,2171 617,2138" fill="#b9a28d" stroke-width="1" stroke="#b9a28d"></polygon><polygon points="786,2171 786,2236 730,2268 673,2236 673,2171 730,2138" fill="#d1b47b" stroke-width="1" stroke="#d1b47b"></polygon><polygon points="898,2171 898,2236 842,2268 786,2236 786,2171 842,2138" fill="#9f92a0" stroke-width="1" stroke="#9f92a0"></polygon><polygon points="1010,2171 1010,2236 954,2268 898,2236 898,2171 954,2138" fill="#c86f9a" stroke-width="1" stroke="#c86f9a"></polygon><polygon points="1122,2171 1122,2236 1066,2268 1010,2236 1010,2171 1066,2138" fill="#ea667f" stroke-width="1" stroke="#ea667f"></polygon><polygon points="1235,2171 1235,2236 1178,2268 1122,2236 1122,2171 1178,2138" fill="#d27097" stroke-width="1" stroke="#d27097"></polygon><polygon points="1347,2171 1347,2236 1291,2268 1235,2236 1235,2171 1291,2138" fill="#e2d0d3" stroke-width="1" stroke="#e2d0d3"></polygon><polygon points="1459,2171 1459,2236 1403,2268 1347,2236 1347,2171 1403,2138" fill="#e8dee0" stroke-width="1" stroke="#e8dee0"></polygon><polygon points="1571,2171 1571,2236 1515,2268 1459,2236 1459,2171 1515,2138" fill="#ebe5e7" stroke-width="1" stroke="#ebe5e7"></polygon><polygon points="1684,2171 1684,2236 1627,2268 1571,2236 1571,2171 1627,2138" fill="#b33750" stroke-width="1" stroke="#b33750"></polygon><polygon points="1796,2171 1796,2236 1740,2268 1684,2236 1684,2171 1740,2138" fill="#c48d94" stroke-width="1" stroke="#c48d94"></polygon><polygon points="1908,2171 1908,2236 1852,2268 1796,2236 1796,2171 1852,2138" fill="#c58c94" stroke-width="1" stroke="#c58c94"></polygon><polygon points="2020,2171 2020,2236 1964,2268 1908,2236 1908,2171 1964,2138" fill="#ebe5e7" stroke-width="1" stroke="#ebe5e7"></polygon><polygon points="2133,2171 2133,2236 2076,2268 2020,2236 2020,2171 2076,2138" fill="#bd7580" stroke-width="1" stroke="#bd7580"></polygon><polygon points="2245,2171 2245,2236 2189,2268 2133,2236 2133,2171 2189,2138" fill="#b45565" stroke-width="1" stroke="#b45565"></polygon><polygon points="2357,2171 2357,2236 2301,2268 2245,2236 2245,2171 2301,2138" fill="#ebe5e7" stroke-width="1" stroke="#ebe5e7"></polygon></svg>