<svg xmlns="http://www.w3.org/2000/svg" version="1.1" xmlns:xlink="http://www.w3.org/1999/xlink" width="2160" height="2160" viewBox="0 0 2160 2160"><polygon points="47,-54 47,0 0,27 -47,0 -47,-54 0,-81" fill="#d49e9b" stroke-width="1" stroke="#d49e9b"></polygon><polygon points="140,-54 140,0 94,27 47,0 47,-54 94,-81" fill="#dc7484" stroke-width="1" stroke="#dc7484"></polygon><polygon points="234,-54 234,0 187,27 140,0 140,-54 187,-81" fill="#b66d7f" stroke-width="1" stroke="#b66d7f"></polygon><polygon points="327,-54 327,0 281,27 234,0 234,-54 281,-81" fill="#da7181" stroke-width="1" stroke="#da7181"></polygon><polygon points="421,-54 421,0 374,27 327,0 327,-54 374,-81" fill="#aebaab" stroke-width="1" stroke="#aebaab"></polygon><polygon points="514,-54 514,0 468,27 421,0 421,-54 468,-81" fill="#d89997" stroke-width="1" stroke="#d89997"></polygon><polygon points="608,-54 608,0 561,27 514,0 514,-54 561,-81" fill="#98cdb3" stroke-width="1" stroke="#98cdb3"></polygon><polygon points="701,-54 701,0 655,27 608,0 608,-54 655,-81" fill="#f07585" stroke-width="1" stroke="#f07585"></polygon><polygon points="795,-54 795,0 748,27 701,0 701,-54 748,-81" fill="#f57586" stroke-width="1" stroke="#f57586"></polygon><polygon points="889,-54 889,0 842,27 795,0 795,-54 842,-81" fill="#a0cfa8" stroke-width="1" stroke="#a0cfa8"></polygon><polygon points="982,-54 982,0 935,27 889,0 889,-54 935,-81" fill="#98cdb3" stroke-width="1" stroke="#98cdb3"></polygon><polygon points="1076,-54 1076,0 1029,27 982,0 982,-54 1029,-81" fill="#b2d69a" stroke-width="1" stroke="#b2d69a"></polygon><polygon points="1169,-54 1169,0 1122,27 1076,0 1076,-54 1122,-81" fill="#d3a09c" stroke-width="1" stroke="#d3a09c"></polygon><polygon points="1263,-54 1263,0 1216,27 1169,0 1169,-54 1216,-81" fill="#ec838c" stroke-width="1" stroke="#ec838c"></polygon><polygon points="1356,-54 1356,0 1309,27 1263,0 1263,-54 1309,-81" fill="#ec838c" stroke-width="1" stroke="#ec838c"></polygon><polygon points="1450,-54 1450,0 1403,27 1356,0 1356,-54 1403,-81" fill="#b4b6aa" stroke-width="1" stroke="#b4b6aa"></polygon><polygon points="1543,-54 1543,0 1496,27 1450,0 1450,-54 1496,-81" fill="#e39294" stroke-width="1" stroke="#e39294"></polygon><polygon points="1637,-54 1637,0 1590,27 1543,0 1543,-54 1590,-81" fill="#f27384" stroke-width="1" stroke="#f27384"></polygon><polygon points="1730,-54 1730,0 1684,27 1637,0 1637,-54 1684,-81" fill="#e19396" stroke-width="1" stroke="#e19396"></polygon><polygon points="1824,-54 1824,0 1777,27 1730,0 1730,-54 1777,-81" fill="#d27080" stroke-width="1" stroke="#d27080"></polygon><polygon points="1917,-54 1917,0 1871,27 1824,0 1824,-54 1871,-81" fill="#9b697a" stroke-width="1" stroke="#9b697a"></polygon><polygon points="2011,-54 2011,0 1964,27 1917,0 1917,-54 1964,-81" fill="#a06a7b" stroke-width="1" stroke="#a06a7b"></polygon><polygon points="2104,-54 2104,0 2058,27 2011,0 2011,-54 2058,-81" fill="#9b697a" stroke-width="1" stroke="#9b697a"></polygon><polygon points="2198,-54 2198,0 2151,27 2104,0 2104,-54 2151,-81" fill="#9b697a" stroke-width="1" stroke="#9b697a"></polygon><polygon points="2292,-54 2292,0 2245,27 2198,0 2198,-54 2245,-81" fill="#9b697a" stroke-width="1" stroke="#9b697a"></polygon><polygon points="94,27 94,81 47,108 0,81 0,27 47,0" fill="#cca59e" stroke-width="1" stroke="#cca59e"></polygon><polygon points="187,27 187,81 140,108 94,81 94,27 140,0" fill="#9bcfad" stroke-width="1" stroke="#9bcfad"></polygon><polygon points="281,27 281,81 234,108 187,81 187,27 234,0" fill="#98cdad" stroke-width="1" stroke="#98cdad"></polygon><polygon points="374,27 374,81 327,108 281,81 281,27 327,0" fill="#c7a69e" stroke-width="1" stroke="#c7a69e"></polygon><polygon points="468,27 468,81 421,108 374,81 374,27 421,0" fill="#a7d2a7" stroke-width="1" stroke="#a7d2a7"></polygon><polygon points="561,27 561,81 514,108 468,81 468,27 514,0" fill="#f47c8a" stroke-width="1" stroke="#f47c8a"></polygon><polygon points="655,27 655,81 608,108 561,81 561,27 608,0" fill="#e67584" stroke-width="1" stroke="#e67584"></polygon><polygon points="748,27 748,81 701,108 655,81 655,27 701,0" fill="#d69b99" stroke-width="1" stroke="#d69b99"></polygon><polygon points="842,27 842,81 795,108 748,81 748,27 795,0" fill="#93ccb4" stroke-width="1" stroke="#93ccb4"></polygon><polygon points="935,27 935,81 889,108 842,81 842,27 889,0" fill="#a0cfa8" stroke-width="1" stroke="#a0cfa8"></polygon><polygon points="1029,27 1029,81 982,108 935,81 935,27 982,0" fill="#f27d8b" stroke-width="1" stroke="#f27d8b"></polygon><polygon points="1122,27 1122,81 1076,108 1029,81 1029,27 1076,0" fill="#a3d1a5" stroke-width="1" stroke="#a3d1a5"></polygon><polygon points="1216,27 1216,81 1169,108 1122,81 1122,27 1169,0" fill="#ec7484" stroke-width="1" stroke="#ec7484"></polygon><polygon points="1309,27 1309,81 1263,108 1216,81 1216,27 1263,0" fill="#c86f7f" stroke-width="1" stroke="#c86f7f"></polygon><polygon points="1403,27 1403,81 1356,108 1309,81 1309,27 1356,0" fill="#a7beac" stroke-width="1" stroke="#a7beac"></polygon><polygon points="1496,27 1496,81 1450,108 1403,81 1403,27 1450,0" fill="#df7282" stroke-width="1" stroke="#df7282"></polygon><polygon points="1590,27 1590,81 1543,108 1496,81 1496,27 1543,0" fill="#c0aea5" stroke-width="1" stroke="#c0aea5"></polygon><polygon points="1684,27 1684,81 1637,108 1590,81 1590,27 1637,0" fill="#c96e7f" stroke-width="1" stroke="#c96e7f"></polygon><polygon points="1777,27 1777,81 1730,108 1684,81 1684,27 1730,0" fill="#f07f8a" stroke-width="1" stroke="#f07f8a"></polygon><polygon points="1871,27 1871,81 1824,108 1777,81 1777,27 1824,0" fill="#c27081" stroke-width="1" stroke="#c27081"></polygon><polygon points="1964,27 1964,81 1917,108 1871,81 1871,27 1917,0" fill="#a36c7d" stroke-width="1" stroke="#a36c7d"></polygon><polygon points="2058,27 2058,81 2011,108 1964,81 1964,27 2011,0" fill="#9b697a" stroke-width="1" stroke="#9b697a"></polygon><polygon points="2151,27 2151,81 2104,108 2058,81 2058,27 2104,0" fill="#9b697a" stroke-width="1" stroke="#9b697a"></polygon><polygon points="2245,27 2245,81 2198,108 2151,81 2151,27 2198,0" fill="#d89897" stroke-width="1" stroke="#d89897"></polygon><polygon points="2338,27 2338,81 2292,108 2245,81 2245,27 2292,0" fill="#e77385" stroke-width="1" stroke="#e77385"></polygon><polygon points="47,108 47,162 0,189 -47,162 -47,108 0,81" fill="#94ccb1" stroke-width="1" stroke="#94ccb1"></polygon><polygon points="140,108 140,162 94,189 47,162 47,108 94,81" fill="#e27485" stroke-width="1" stroke="#e27485"></polygon><polygon points="234,108 234,162 187,189 140,162 140,108 187,81" fill="#98cdb1" stroke-width="1" stroke="#98cdb1"></polygon><polygon points="327,108 327,162 281,189 234,162 234,108 281,81" fill="#c6a79f" stroke-width="1" stroke="#c6a79f"></polygon><polygon points="421,108 421,162 374,189 327,162 327,108 374,81" fill="#ed7383" stroke-width="1" stroke="#ed7383"></polygon><polygon points="514,108 514,162 468,189 421,162 421,108 468,81" fill="#e8878e" stroke-width="1" stroke="#e8878e"></polygon><polygon points="608,108 608,162 561,189 514,162 514,108 561,81" fill="#dd9797" stroke-width="1" stroke="#dd9797"></polygon><polygon points="701,108 701,162 655,189 608,162 608,108 655,81" fill="#c3aba2" stroke-width="1" stroke="#c3aba2"></polygon><polygon points="795,108 795,162 748,189 701,162 701,108 748,81" fill="#f47c8a" stroke-width="1" stroke="#f47c8a"></polygon><polygon points="889,108 889,162 842,189 795,162 795,108 842,81" fill="#ed7383" stroke-width="1" stroke="#ed7383"></polygon><polygon points="982,108 982,162 935,189 889,162 889,108 935,81" fill="#a0cfa9" stroke-width="1" stroke="#a0cfa9"></polygon><polygon points="1076,108 1076,162 1029,189 982,162 982,108 1029,81" fill="#df7282" stroke-width="1" stroke="#df7282"></polygon><polygon points="1169,108 1169,162 1122,189 1076,162 1076,108 1122,81" fill="#9cceac" stroke-width="1" stroke="#9cceac"></polygon><polygon points="1263,108 1263,162 1216,189 1169,162 1169,108 1216,81" fill="#a8bdac" stroke-width="1" stroke="#a8bdac"></polygon><polygon points="1356,108 1356,162 1309,189 1263,162 1263,108 1309,81" fill="#f07585" stroke-width="1" stroke="#f07585"></polygon><polygon points="1450,108 1450,162 1403,189 1356,162 1356,108 1403,81" fill="#ec7484" stroke-width="1" stroke="#ec7484"></polygon><polygon points="1543,108 1543,162 1496,189 1450,162 1450,108 1496,81" fill="#c1aea4" stroke-width="1" stroke="#c1aea4"></polygon><polygon points="1637,108 1637,162 1590,189 1543,162 1543,108 1590,81" fill="#f27384" stroke-width="1" stroke="#f27384"></polygon><polygon points="1730,108 1730,162 1684,189 1637,162 1637,108 1684,81" fill="#9b697a" stroke-width="1" stroke="#9b697a"></polygon><polygon points="1824,108 1824,162 1777,189 1730,162 1730,108 1777,81" fill="#9b697a" stroke-width="1" stroke="#9b697a"></polygon><polygon points="1917,108 1917,162 1871,189 1824,162 1824,108 1871,81" fill="#9b697a" stroke-width="1" stroke="#9b697a"></polygon><polygon points="2011,108 2011,162 1964,189 1917,162 1917,108 1964,81" fill="#c56d7f" stroke-width="1" stroke="#c56d7f"></polygon><polygon points="2104,108 2104,162 2058,189 2011,162 2011,108 2058,81" fill="#9b697a" stroke-width="1" stroke="#9b697a"></polygon><polygon points="2198,108 2198,162 2151,189 2104,162 2104,108 2151,81" fill="#d77081" stroke-width="1" stroke="#d77081"></polygon><polygon points="2292,108 2292,162 2245,189 2198,162 2198,108 2245,81" fill="#9b697a" stroke-width="1" stroke="#9b697a"></polygon><polygon points="94,189 94,243 47,270 0,243 0,189 47,162" fill="#9cceab" stroke-width="1" stroke="#9cceab"></polygon><polygon points="187,189 187,243 140,270 94,243 94,189 140,162" fill="#9bc5b1" stroke-width="1" stroke="#9bc5b1"></polygon><polygon points="281,189 281,243 234,270 187,243 187,189 234,162" fill="#a8d3a7" stroke-width="1" stroke="#a8d3a7"></polygon><polygon points="374,189 374,243 327,270 281,243 281,189 327,162" fill="#bcb0a4" stroke-width="1" stroke="#bcb0a4"></polygon><polygon points="468,189 468,243 421,270 374,243 374,189 421,162" fill="#e87382" stroke-width="1" stroke="#e87382"></polygon><polygon points="561,189 561,243 514,270 468,243 468,189 514,162" fill="#eb7584" stroke-width="1" stroke="#eb7584"></polygon><polygon points="655,189 655,243 608,270 561,243 561,189 608,162" fill="#c7a69e" stroke-width="1" stroke="#c7a69e"></polygon><polygon points="748,189 748,243 701,270 655,243 655,189 701,162" fill="#94ccb3" stroke-width="1" stroke="#94ccb3"></polygon><polygon points="842,189 842,243 795,270 748,243 748,189 795,162" fill="#a2c3b1" stroke-width="1" stroke="#a2c3b1"></polygon><polygon points="935,189 935,243 889,270 842,243 842,189 889,162" fill="#e8878e" stroke-width="1" stroke="#e8878e"></polygon><polygon points="1029,189 1029,243 982,270 935,243 935,189 982,162" fill="#f47687" stroke-width="1" stroke="#f47687"></polygon><polygon points="1122,189 1122,243 1076,270 1029,243 1029,189 1076,162" fill="#bf6e7e" stroke-width="1" stroke="#bf6e7e"></polygon><polygon points="1216,189 1216,243 1169,270 1122,243 1122,189 1169,162" fill="#d67182" stroke-width="1" stroke="#d67182"></polygon><polygon points="1309,189 1309,243 1263,270 1216,243 1216,189 1263,162" fill="#c0b0a5" stroke-width="1" stroke="#c0b0a5"></polygon><polygon points="1403,189 1403,243 1356,270 1309,243 1309,189 1356,162" fill="#d97384" stroke-width="1" stroke="#d97384"></polygon><polygon points="1496,189 1496,243 1450,270 1403,243 1403,189 1450,162" fill="#9b697a" stroke-width="1" stroke="#9b697a"></polygon><polygon points="1590,189 1590,243 1543,270 1496,243 1496,189 1543,162" fill="#9b697a" stroke-width="1" stroke="#9b697a"></polygon><polygon points="1684,189 1684,243 1637,270 1590,243 1590,189 1637,162" fill="#9b697a" stroke-width="1" stroke="#9b697a"></polygon><polygon points="1777,189 1777,243 1730,270 1684,243 1684,189 1730,162" fill="#a86b7c" stroke-width="1" stroke="#a86b7c"></polygon><polygon points="1871,189 1871,243 1824,270 1777,243 1777,189 1824,162" fill="#f47687" stroke-width="1" stroke="#f47687"></polygon><polygon points="1964,189 1964,243 1917,270 1871,243 1871,189 1917,162" fill="#9b697a" stroke-width="1" stroke="#9b697a"></polygon><polygon points="2058,189 2058,243 2011,270 1964,243 1964,189 2011,162" fill="#c77080" stroke-width="1" stroke="#c77080"></polygon><polygon points="2151,189 2151,243 2104,270 2058,243 2058,189 2104,162" fill="#9b697a" stroke-width="1" stroke="#9b697a"></polygon><polygon points="2245,189 2245,243 2198,270 2151,243 2151,189 2198,162" fill="#dc7484" stroke-width="1" stroke="#dc7484"></polygon><polygon points="2338,189 2338,243 2292,270 2245,243 2245,189 2292,162" fill="#bf6e7e" stroke-width="1" stroke="#bf6e7e"></polygon><polygon points="47,270 47,324 0,351 -47,324 -47,270 0,243" fill="#df9092" stroke-width="1" stroke="#df9092"></polygon><polygon points="140,270 140,324 94,351 47,324 47,270 94,243" fill="#c6a79f" stroke-width="1" stroke="#c6a79f"></polygon><polygon points="234,270 234,324 187,351 140,324 140,270 187,243" fill="#9bc5b1" stroke-width="1" stroke="#9bc5b1"></polygon><polygon points="327,270 327,324 281,351 234,324 234,270 281,243" fill="#e58f94" stroke-width="1" stroke="#e58f94"></polygon><polygon points="421,270 421,324 374,351 327,324 327,270 374,243" fill="#bbb0a5" stroke-width="1" stroke="#bbb0a5"></polygon><polygon points="514,270 514,324 468,351 421,324 421,270 468,243" fill="#e77485" stroke-width="1" stroke="#e77485"></polygon><polygon points="608,270 608,324 561,351 514,324 514,270 561,243" fill="#abbaab" stroke-width="1" stroke="#abbaab"></polygon><polygon points="701,270 701,324 655,351 608,324 608,270 655,243" fill="#db7082" stroke-width="1" stroke="#db7082"></polygon><polygon points="795,270 795,324 748,351 701,324 701,270 748,243" fill="#94ccb3" stroke-width="1" stroke="#94ccb3"></polygon><polygon points="889,270 889,324 842,351 795,324 795,270 842,243" fill="#9bc5b1" stroke-width="1" stroke="#9bc5b1"></polygon><polygon points="982,270 982,324 935,351 889,324 889,270 935,243" fill="#f57586" stroke-width="1" stroke="#f57586"></polygon><polygon points="1076,270 1076,324 1029,351 982,324 982,270 1029,243" fill="#cd7081" stroke-width="1" stroke="#cd7081"></polygon><polygon points="1169,270 1169,324 1122,351 1076,324 1076,270 1122,243" fill="#ea7585" stroke-width="1" stroke="#ea7585"></polygon><polygon points="1263,270 1263,324 1216,351 1169,324 1169,270 1216,243" fill="#9b697a" stroke-width="1" stroke="#9b697a"></polygon><polygon points="1356,270 1356,324 1309,351 1263,324 1263,270 1309,243" fill="#c36f80" stroke-width="1" stroke="#c36f80"></polygon><polygon points="1450,270 1450,324 1403,351 1356,324 1356,270 1403,243" fill="#f27384" stroke-width="1" stroke="#f27384"></polygon><polygon points="1543,270 1543,324 1496,351 1450,324 1450,270 1496,243" fill="#9b697a" stroke-width="1" stroke="#9b697a"></polygon><polygon points="1637,270 1637,324 1590,351 1543,324 1543,270 1590,243" fill="#9b697a" stroke-width="1" stroke="#9b697a"></polygon><polygon points="1730,270 1730,324 1684,351 1637,324 1637,270 1684,243" fill="#9b697a" stroke-width="1" stroke="#9b697a"></polygon><polygon points="1824,270 1824,324 1777,351 1730,324 1730,270 1777,243" fill="#d27080" stroke-width="1" stroke="#d27080"></polygon><polygon points="1917,270 1917,324 1871,351 1824,324 1824,270 1871,243" fill="#9b697a" stroke-width="1" stroke="#9b697a"></polygon><polygon points="2011,270 2011,324 1964,351 1917,324 1917,270 1964,243" fill="#9b697a" stroke-width="1" stroke="#9b697a"></polygon><polygon points="2104,270 2104,324 2058,351 2011,324 2011,270 2058,243" fill="#9b697a" stroke-width="1" stroke="#9b697a"></polygon><polygon points="2198,270 2198,324 2151,351 2104,324 2104,270 2151,243" fill="#ec838c" stroke-width="1" stroke="#ec838c"></polygon><polygon points="2292,270 2292,324 2245,351 2198,324 2198,270 2245,243" fill="#ea7585" stroke-width="1" stroke="#ea7585"></polygon><polygon points="94,351 94,405 47,432 0,405 0,351 47,324" fill="#add4a1" stroke-width="1" stroke="#add4a1"></polygon><polygon points="187,351 187,405 140,432 94,405 94,351 140,324" fill="#f47b89" stroke-width="1" stroke="#f47b89"></polygon><polygon points="281,351 281,405 234,432 187,405 187,351 234,324" fill="#f17484" stroke-width="1" stroke="#f17484"></polygon><polygon points="374,351 374,405 327,432 281,405 281,351 327,324" fill="#f07585" stroke-width="1" stroke="#f07585"></polygon><polygon points="468,351 468,405 421,432 374,405 374,351 421,324" fill="#a3d1a6" stroke-width="1" stroke="#a3d1a6"></polygon><polygon points="561,351 561,405 514,432 468,405 468,351 514,324" fill="#df9093" stroke-width="1" stroke="#df9093"></polygon><polygon points="655,351 655,405 608,432 561,405 561,351 608,324" fill="#a0cfa9" stroke-width="1" stroke="#a0cfa9"></polygon><polygon points="748,351 748,405 701,432 655,405 655,351 701,324" fill="#c56d7f" stroke-width="1" stroke="#c56d7f"></polygon><polygon points="842,351 842,405 795,432 748,405 748,351 795,324" fill="#98cdb2" stroke-width="1" stroke="#98cdb2"></polygon><polygon points="935,351 935,405 889,432 842,405 842,351 889,324" fill="#ec7484" stroke-width="1" stroke="#ec7484"></polygon><polygon points="1029,351 1029,405 982,432 935,405 935,351 982,324" fill="#a86b7b" stroke-width="1" stroke="#a86b7b"></polygon><polygon points="1122,351 1122,405 1076,432 1029,405 1029,351 1076,324" fill="#d89797" stroke-width="1" stroke="#d89797"></polygon><polygon points="1216,351 1216,405 1169,432 1122,405 1122,351 1169,324" fill="#da7183" stroke-width="1" stroke="#da7183"></polygon><polygon points="1309,351 1309,405 1263,432 1216,405 1216,351 1263,324" fill="#da7183" stroke-width="1" stroke="#da7183"></polygon><polygon points="1403,351 1403,405 1356,432 1309,405 1309,351 1356,324" fill="#9b697a" stroke-width="1" stroke="#9b697a"></polygon><polygon points="1496,351 1496,405 1450,432 1403,405 1403,351 1450,324" fill="#de7383" stroke-width="1" stroke="#de7383"></polygon><polygon points="1590,351 1590,405 1543,432 1496,405 1496,351 1543,324" fill="#bf6e7f" stroke-width="1" stroke="#bf6e7f"></polygon><polygon points="1684,351 1684,405 1637,432 1590,405 1590,351 1637,324" fill="#9b697a" stroke-width="1" stroke="#9b697a"></polygon><polygon points="1777,351 1777,405 1730,432 1684,405 1684,351 1730,324" fill="#cc7181" stroke-width="1" stroke="#cc7181"></polygon><polygon points="1871,351 1871,405 1824,432 1777,405 1777,351 1824,324" fill="#9b697a" stroke-width="1" stroke="#9b697a"></polygon><polygon points="1964,351 1964,405 1917,432 1871,405 1871,351 1917,324" fill="#9b697a" stroke-width="1" stroke="#9b697a"></polygon><polygon points="2058,351 2058,405 2011,432 1964,405 1964,351 2011,324" fill="#9b697a" stroke-width="1" stroke="#9b697a"></polygon><polygon points="2151,351 2151,405 2104,432 2058,405 2058,351 2104,324" fill="#f57586" stroke-width="1" stroke="#f57586"></polygon><polygon points="2245,351 2245,405 2198,432 2151,405 2151,351 2198,324" fill="#ab6d7e" stroke-width="1" stroke="#ab6d7e"></polygon><polygon points="2338,351 2338,405 2292,432 2245,405 2245,351 2292,324" fill="#b9b2a6" stroke-width="1" stroke="#b9b2a6"></polygon><polygon points="47,432 47,486 0,513 -47,486 -47,432 0,405" fill="#d99696" stroke-width="1" stroke="#d99696"></polygon><polygon points="140,432 140,486 94,513 47,486 47,432 94,405" fill="#98cdb1" stroke-width="1" stroke="#98cdb1"></polygon><polygon points="234,432 234,486 187,513 140,486 140,432 187,405" fill="#a5c0ad" stroke-width="1" stroke="#a5c0ad"></polygon><polygon points="327,432 327,486 281,513 234,486 234,432 281,405" fill="#91cab3" stroke-width="1" stroke="#91cab3"></polygon><polygon points="421,432 421,486 374,513 327,486 327,432 374,405" fill="#c1aea4" stroke-width="1" stroke="#c1aea4"></polygon><polygon points="514,432 514,486 468,513 421,486 421,432 468,405" fill="#a9bcaa" stroke-width="1" stroke="#a9bcaa"></polygon><polygon points="608,432 608,486 561,513 514,486 514,432 561,405" fill="#9bc5b1" stroke-width="1" stroke="#9bc5b1"></polygon><polygon points="701,432 701,486 655,513 608,486 608,432 655,405" fill="#a8d3a7" stroke-width="1" stroke="#a8d3a7"></polygon><polygon points="795,432 795,486 748,513 701,486 701,432 748,405" fill="#df7282" stroke-width="1" stroke="#df7282"></polygon><polygon points="889,432 889,486 842,513 795,486 795,432 842,405" fill="#a3c2af" stroke-width="1" stroke="#a3c2af"></polygon><polygon points="982,432 982,486 935,513 889,486 889,432 935,405" fill="#b06d7e" stroke-width="1" stroke="#b06d7e"></polygon><polygon points="1076,432 1076,486 1029,513 982,486 982,432 1029,405" fill="#9b697a" stroke-width="1" stroke="#9b697a"></polygon><polygon points="1169,432 1169,486 1122,513 1076,486 1076,432 1122,405" fill="#9b697a" stroke-width="1" stroke="#9b697a"></polygon><polygon points="1263,432 1263,486 1216,513 1169,486 1169,432 1216,405" fill="#dd7383" stroke-width="1" stroke="#dd7383"></polygon><polygon points="1356,432 1356,486 1309,513 1263,486 1263,432 1309,405" fill="#9b697a" stroke-width="1" stroke="#9b697a"></polygon><polygon points="1450,432 1450,486 1403,513 1356,486 1356,432 1403,405" fill="#9b697a" stroke-width="1" stroke="#9b697a"></polygon><polygon points="1543,432 1543,486 1496,513 1450,486 1450,432 1496,405" fill="#9b697a" stroke-width="1" stroke="#9b697a"></polygon><polygon points="1637,432 1637,486 1590,513 1543,486 1543,432 1590,405" fill="#9b697a" stroke-width="1" stroke="#9b697a"></polygon><polygon points="1730,432 1730,486 1684,513 1637,486 1637,432 1684,405" fill="#9b697a" stroke-width="1" stroke="#9b697a"></polygon><polygon points="1824,432 1824,486 1777,513 1730,486 1730,432 1777,405" fill="#ba6d7e" stroke-width="1" stroke="#ba6d7e"></polygon><polygon points="1917,432 1917,486 1871,513 1824,486 1824,432 1871,405" fill="#9b697a" stroke-width="1" stroke="#9b697a"></polygon><polygon points="2011,432 2011,486 1964,513 1917,486 1917,432 1964,405" fill="#dc7484" stroke-width="1" stroke="#dc7484"></polygon><polygon points="2104,432 2104,486 2058,513 2011,486 2011,432 2058,405" fill="#9b697a" stroke-width="1" stroke="#9b697a"></polygon><polygon points="2198,432 2198,486 2151,513 2104,486 2104,432 2151,405" fill="#df7282" stroke-width="1" stroke="#df7282"></polygon><polygon points="2292,432 2292,486 2245,513 2198,486 2198,432 2245,405" fill="#9b697a" stroke-width="1" stroke="#9b697a"></polygon><polygon points="94,513 94,567 47,594 0,567 0,513 47,486" fill="#9ac6b1" stroke-width="1" stroke="#9ac6b1"></polygon><polygon points="187,513 187,567 140,594 94,567 94,513 140,486" fill="#b5d699" stroke-width="1" stroke="#b5d699"></polygon><polygon points="281,513 281,567 234,594 187,567 187,513 234,486" fill="#adbaab" stroke-width="1" stroke="#adbaab"></polygon><polygon points="374,513 374,567 327,594 281,567 281,513 327,486" fill="#97c8b3" stroke-width="1" stroke="#97c8b3"></polygon><polygon points="468,513 468,567 421,594 374,567 374,513 421,486" fill="#a7d3a8" stroke-width="1" stroke="#a7d3a8"></polygon><polygon points="561,513 561,567 514,594 468,567 468,513 514,486" fill="#e6898f" stroke-width="1" stroke="#e6898f"></polygon><polygon points="655,513 655,567 608,594 561,567 561,513 608,486" fill="#e07181" stroke-width="1" stroke="#e07181"></polygon><polygon points="748,513 748,567 701,594 655,567 655,513 701,486" fill="#a0cfad" stroke-width="1" stroke="#a0cfad"></polygon><polygon points="842,513 842,567 795,594 748,567 748,513 795,486" fill="#b76c7d" stroke-width="1" stroke="#b76c7d"></polygon><polygon points="935,513 935,567 889,594 842,567 842,513 889,486" fill="#b96e7f" stroke-width="1" stroke="#b96e7f"></polygon><polygon points="1029,513 1029,567 982,594 935,567 935,513 982,486" fill="#caa7a0" stroke-width="1" stroke="#caa7a0"></polygon><polygon points="1122,513 1122,567 1076,594 1029,567 1029,513 1076,486" fill="#ed828d" stroke-width="1" stroke="#ed828d"></polygon><polygon points="1216,513 1216,567 1169,594 1122,567 1122,513 1169,486" fill="#dd7383" stroke-width="1" stroke="#dd7383"></polygon><polygon points="1309,513 1309,567 1263,594 1216,567 1216,513 1263,486" fill="#d36f7f" stroke-width="1" stroke="#d36f7f"></polygon><polygon points="1403,513 1403,567 1356,594 1309,567 1309,513 1356,486" fill="#b76c7d" stroke-width="1" stroke="#b76c7d"></polygon><polygon points="1496,513 1496,567 1450,594 1403,567 1403,513 1450,486" fill="#9b697a" stroke-width="1" stroke="#9b697a"></polygon><polygon points="1590,513 1590,567 1543,594 1496,567 1496,513 1543,486" fill="#9b697a" stroke-width="1" stroke="#9b697a"></polygon><polygon points="1684,513 1684,567 1637,594 1590,567 1590,513 1637,486" fill="#b46e7f" stroke-width="1" stroke="#b46e7f"></polygon><polygon points="1777,513 1777,567 1730,594 1684,567 1684,513 1730,486" fill="#ae6b7d" stroke-width="1" stroke="#ae6b7d"></polygon><polygon points="1871,513 1871,567 1824,594 1777,567 1777,513 1824,486" fill="#9b697a" stroke-width="1" stroke="#9b697a"></polygon><polygon points="1964,513 1964,567 1917,594 1871,567 1871,513 1917,486" fill="#9b697a" stroke-width="1" stroke="#9b697a"></polygon><polygon points="2058,513 2058,567 2011,594 1964,567 1964,513 2011,486" fill="#cd7081" stroke-width="1" stroke="#cd7081"></polygon><polygon points="2151,513 2151,567 2104,594 2058,567 2058,513 2104,486" fill="#e67584" stroke-width="1" stroke="#e67584"></polygon><polygon points="2245,513 2245,567 2198,594 2151,567 2151,513 2198,486" fill="#9b697a" stroke-width="1" stroke="#9b697a"></polygon><polygon points="2338,513 2338,567 2292,594 2245,567 2245,513 2292,486" fill="#f67988" stroke-width="1" stroke="#f67988"></polygon><polygon points="47,594 47,648 0,675 -47,648 -47,594 0,567" fill="#abd3a1" stroke-width="1" stroke="#abd3a1"></polygon><polygon points="140,594 140,648 94,675 47,648 47,594 94,567" fill="#9cceac" stroke-width="1" stroke="#9cceac"></polygon><polygon points="234,594 234,648 187,675 140,648 140,594 187,567" fill="#a8d3a7" stroke-width="1" stroke="#a8d3a7"></polygon><polygon points="327,594 327,648 281,675 234,648 234,594 281,567" fill="#bed699" stroke-width="1" stroke="#bed699"></polygon><polygon points="421,594 421,648 374,675 327,648 327,594 374,567" fill="#a0cfad" stroke-width="1" stroke="#a0cfad"></polygon><polygon points="514,594 514,648 468,675 421,648 421,594 468,567" fill="#b2d699" stroke-width="1" stroke="#b2d699"></polygon><polygon points="608,594 608,648 561,675 514,648 514,594 561,567" fill="#a9d2a2" stroke-width="1" stroke="#a9d2a2"></polygon><polygon points="701,594 701,648 655,675 608,648 608,594 655,567" fill="#a3d1a5" stroke-width="1" stroke="#a3d1a5"></polygon><polygon points="795,594 795,648 748,675 701,648 701,594 748,567" fill="#98cdad" stroke-width="1" stroke="#98cdad"></polygon><polygon points="889,594 889,648 842,675 795,648 795,594 842,567" fill="#b9b2a6" stroke-width="1" stroke="#b9b2a6"></polygon><polygon points="982,594 982,648 935,675 889,648 889,594 935,567" fill="#c27081" stroke-width="1" stroke="#c27081"></polygon><polygon points="1076,594 1076,648 1029,675 982,648 982,594 1029,567" fill="#9b697a" stroke-width="1" stroke="#9b697a"></polygon><polygon points="1169,594 1169,648 1122,675 1076,648 1076,594 1122,567" fill="#db9494" stroke-width="1" stroke="#db9494"></polygon><polygon points="1263,594 1263,648 1216,675 1169,648 1169,594 1216,567" fill="#9b697a" stroke-width="1" stroke="#9b697a"></polygon><polygon points="1356,594 1356,648 1309,675 1263,648 1263,594 1309,567" fill="#9b697a" stroke-width="1" stroke="#9b697a"></polygon><polygon points="1450,594 1450,648 1403,675 1356,648 1356,594 1403,567" fill="#9b697a" stroke-width="1" stroke="#9b697a"></polygon><polygon points="1543,594 1543,648 1496,675 1450,648 1450,594 1496,567" fill="#9b697a" stroke-width="1" stroke="#9b697a"></polygon><polygon points="1637,594 1637,648 1590,675 1543,648 1543,594 1590,567" fill="#9b697a" stroke-width="1" stroke="#9b697a"></polygon><polygon points="1730,594 1730,648 1684,675 1637,648 1637,594 1684,567" fill="#9b697a" stroke-width="1" stroke="#9b697a"></polygon><polygon points="1824,594 1824,648 1777,675 1730,648 1730,594 1777,567" fill="#9b697a" stroke-width="1" stroke="#9b697a"></polygon><polygon points="1917,594 1917,648 1871,675 1824,648 1824,594 1871,567" fill="#9b697a" stroke-width="1" stroke="#9b697a"></polygon><polygon points="2011,594 2011,648 1964,675 1917,648 1917,594 1964,567" fill="#9b697a" stroke-width="1" stroke="#9b697a"></polygon><polygon points="2104,594 2104,648 2058,675 2011,648 2011,594 2058,567" fill="#9b697a" stroke-width="1" stroke="#9b697a"></polygon><polygon points="2198,594 2198,648 2151,675 2104,648 2104,594 2151,567" fill="#9b697a" stroke-width="1" stroke="#9b697a"></polygon><polygon points="2292,594 2292,648 2245,675 2198,648 2198,594 2245,567" fill="#a06a7b" stroke-width="1" stroke="#a06a7b"></polygon><polygon points="94,675 94,729 47,756 0,729 0,675 47,648" fill="#a4d0a7" stroke-width="1" stroke="#a4d0a7"></polygon><polygon points="187,675 187,729 140,756 94,729 94,675 140,648" fill="#b3b7a9" stroke-width="1" stroke="#b3b7a9"></polygon><polygon points="281,675 281,729 234,756 187,729 187,675 234,648" fill="#91cab3" stroke-width="1" stroke="#91cab3"></polygon><polygon points="374,675 374,729 327,756 281,729 281,675 327,648" fill="#c4d69a" stroke-width="1" stroke="#c4d69a"></polygon><polygon points="468,675 468,729 421,756 374,729 374,675 421,648" fill="#b1b7a9" stroke-width="1" stroke="#b1b7a9"></polygon><polygon points="561,675 561,729 514,756 468,729 468,675 514,648" fill="#c5d69a" stroke-width="1" stroke="#c5d69a"></polygon><polygon points="655,675 655,729 608,756 561,729 561,675 608,648" fill="#b6d699" stroke-width="1" stroke="#b6d699"></polygon><polygon points="748,675 748,729 701,756 655,729 655,675 701,648" fill="#eb7584" stroke-width="1" stroke="#eb7584"></polygon><polygon points="842,675 842,729 795,756 748,729 748,675 795,648" fill="#d36f7f" stroke-width="1" stroke="#d36f7f"></polygon><polygon points="935,675 935,729 889,756 842,729 842,675 889,648" fill="#b2b9ac" stroke-width="1" stroke="#b2b9ac"></polygon><polygon points="1029,675 1029,729 982,756 935,729 935,675 982,648" fill="#ce6f80" stroke-width="1" stroke="#ce6f80"></polygon><polygon points="1122,675 1122,729 1076,756 1029,729 1029,675 1076,648" fill="#9b697a" stroke-width="1" stroke="#9b697a"></polygon><polygon points="1216,675 1216,729 1169,756 1122,729 1122,675 1169,648" fill="#bc6c7d" stroke-width="1" stroke="#bc6c7d"></polygon><polygon points="1309,675 1309,729 1263,756 1216,729 1216,675 1263,648" fill="#c77080" stroke-width="1" stroke="#c77080"></polygon><polygon points="1403,675 1403,729 1356,756 1309,729 1309,675 1356,648" fill="#c36f80" stroke-width="1" stroke="#c36f80"></polygon><polygon points="1496,675 1496,729 1450,756 1403,729 1403,675 1450,648" fill="#9b697a" stroke-width="1" stroke="#9b697a"></polygon><polygon points="1590,675 1590,729 1543,756 1496,729 1496,675 1543,648" fill="#9b697a" stroke-width="1" stroke="#9b697a"></polygon><polygon points="1684,675 1684,729 1637,756 1590,729 1590,675 1637,648" fill="#9b697a" stroke-width="1" stroke="#9b697a"></polygon><polygon points="1777,675 1777,729 1730,756 1684,729 1684,675 1730,648" fill="#9b697a" stroke-width="1" stroke="#9b697a"></polygon><polygon points="1871,675 1871,729 1824,756 1777,729 1777,675 1824,648" fill="#9b697a" stroke-width="1" stroke="#9b697a"></polygon><polygon points="1964,675 1964,729 1917,756 1871,729 1871,675 1917,648" fill="#a86b7c" stroke-width="1" stroke="#a86b7c"></polygon><polygon points="2058,675 2058,729 2011,756 1964,729 1964,675 2011,648" fill="#9b697a" stroke-width="1" stroke="#9b697a"></polygon><polygon points="2151,675 2151,729 2104,756 2058,729 2058,675 2104,648" fill="#a5697b" stroke-width="1" stroke="#a5697b"></polygon><polygon points="2245,675 2245,729 2198,756 2151,729 2151,675 2198,648" fill="#d17181" stroke-width="1" stroke="#d17181"></polygon><polygon points="2338,675 2338,729 2292,756 2245,729 2245,675 2292,648" fill="#c96e7f" stroke-width="1" stroke="#c96e7f"></polygon><polygon points="47,756 47,810 0,837 -47,810 -47,756 0,729" fill="#b5d89d" stroke-width="1" stroke="#b5d89d"></polygon><polygon points="140,756 140,810 94,837 47,810 47,756 94,729" fill="#add4a1" stroke-width="1" stroke="#add4a1"></polygon><polygon points="234,756 234,810 187,837 140,810 140,756 187,729" fill="#b2d69a" stroke-width="1" stroke="#b2d69a"></polygon><polygon points="327,756 327,810 281,837 234,810 234,756 281,729" fill="#bad699" stroke-width="1" stroke="#bad699"></polygon><polygon points="421,756 421,810 374,837 327,810 327,756 374,729" fill="#b7d699" stroke-width="1" stroke="#b7d699"></polygon><polygon points="514,756 514,810 468,837 421,810 421,756 468,729" fill="#a4d0a7" stroke-width="1" stroke="#a4d0a7"></polygon><polygon points="608,756 608,810 561,837 514,810 514,756 561,729" fill="#d2d699" stroke-width="1" stroke="#d2d699"></polygon><polygon points="701,756 701,810 655,837 608,810 608,756 655,729" fill="#9cceaf" stroke-width="1" stroke="#9cceaf"></polygon><polygon points="795,756 795,810 748,837 701,810 701,756 748,729" fill="#97c9b3" stroke-width="1" stroke="#97c9b3"></polygon><polygon points="889,756 889,810 842,837 795,810 795,756 842,729" fill="#e7888f" stroke-width="1" stroke="#e7888f"></polygon><polygon points="982,756 982,810 935,837 889,810 889,756 935,729" fill="#ec7484" stroke-width="1" stroke="#ec7484"></polygon><polygon points="1076,756 1076,810 1029,837 982,810 982,756 1029,729" fill="#b66d7f" stroke-width="1" stroke="#b66d7f"></polygon><polygon points="1169,756 1169,810 1122,837 1076,810 1076,756 1122,729" fill="#9b697a" stroke-width="1" stroke="#9b697a"></polygon><polygon points="1263,756 1263,810 1216,837 1169,810 1169,756 1216,729" fill="#c27081" stroke-width="1" stroke="#c27081"></polygon><polygon points="1356,756 1356,810 1309,837 1263,810 1263,756 1309,729" fill="#9b697a" stroke-width="1" stroke="#9b697a"></polygon><polygon points="1450,756 1450,810 1403,837 1356,810 1356,756 1403,729" fill="#9b697a" stroke-width="1" stroke="#9b697a"></polygon><polygon points="1543,756 1543,810 1496,837 1450,810 1450,756 1496,729" fill="#9b697a" stroke-width="1" stroke="#9b697a"></polygon><polygon points="1637,756 1637,810 1590,837 1543,810 1543,756 1590,729" fill="#9b697a" stroke-width="1" stroke="#9b697a"></polygon><polygon points="1730,756 1730,810 1684,837 1637,810 1637,756 1684,729" fill="#9b697a" stroke-width="1" stroke="#9b697a"></polygon><polygon points="1824,756 1824,810 1777,837 1730,810 1730,756 1777,729" fill="#9b697a" stroke-width="1" stroke="#9b697a"></polygon><polygon points="1917,756 1917,810 1871,837 1824,810 1824,756 1871,729" fill="#9b697a" stroke-width="1" stroke="#9b697a"></polygon><polygon points="2011,756 2011,810 1964,837 1917,810 1917,756 1964,729" fill="#9b697a" stroke-width="1" stroke="#9b697a"></polygon><polygon points="2104,756 2104,810 2058,837 2011,810 2011,756 2058,729" fill="#ac6c7d" stroke-width="1" stroke="#ac6c7d"></polygon><polygon points="2198,756 2198,810 2151,837 2104,810 2104,756 2151,729" fill="#9b697a" stroke-width="1" stroke="#9b697a"></polygon><polygon points="2292,756 2292,810 2245,837 2198,810 2198,756 2245,729" fill="#dc7484" stroke-width="1" stroke="#dc7484"></polygon><polygon points="94,837 94,891 47,918 0,891 0,837 47,810" fill="#bbd699" stroke-width="1" stroke="#bbd699"></polygon><polygon points="187,837 187,891 140,918 94,891 94,837 140,810" fill="#b6d699" stroke-width="1" stroke="#b6d699"></polygon><polygon points="281,837 281,891 234,918 187,891 187,837 234,810" fill="#98cdaf" stroke-width="1" stroke="#98cdaf"></polygon><polygon points="374,837 374,891 327,918 281,891 281,837 327,810" fill="#98cdb3" stroke-width="1" stroke="#98cdb3"></polygon><polygon points="468,837 468,891 421,918 374,891 374,837 421,810" fill="#c5d69a" stroke-width="1" stroke="#c5d69a"></polygon><polygon points="561,837 561,891 514,918 468,891 468,837 514,810" fill="#94ccb5" stroke-width="1" stroke="#94ccb5"></polygon><polygon points="655,837 655,891 608,918 561,891 561,837 608,810" fill="#a7d3a8" stroke-width="1" stroke="#a7d3a8"></polygon><polygon points="748,837 748,891 701,918 655,891 655,837 701,810" fill="#90cbb4" stroke-width="1" stroke="#90cbb4"></polygon><polygon points="842,837 842,891 795,918 748,891 748,837 795,810" fill="#91cab3" stroke-width="1" stroke="#91cab3"></polygon><polygon points="935,837 935,891 889,918 842,891 842,837 889,810" fill="#9cceae" stroke-width="1" stroke="#9cceae"></polygon><polygon points="1029,837 1029,891 982,918 935,891 935,837 982,810" fill="#98cdb3" stroke-width="1" stroke="#98cdb3"></polygon><polygon points="1122,837 1122,891 1076,918 1029,891 1029,837 1076,810" fill="#d77081" stroke-width="1" stroke="#d77081"></polygon><polygon points="1216,837 1216,891 1169,918 1122,891 1122,837 1169,810" fill="#9b697a" stroke-width="1" stroke="#9b697a"></polygon><polygon points="1309,837 1309,891 1263,918 1216,891 1216,837 1263,810" fill="#e48b90" stroke-width="1" stroke="#e48b90"></polygon><polygon points="1403,837 1403,891 1356,918 1309,891 1309,837 1356,810" fill="#d57282" stroke-width="1" stroke="#d57282"></polygon><polygon points="1496,837 1496,891 1450,918 1403,891 1403,837 1450,810" fill="#9b697a" stroke-width="1" stroke="#9b697a"></polygon><polygon points="1590,837 1590,891 1543,918 1496,891 1496,837 1543,810" fill="#9b697a" stroke-width="1" stroke="#9b697a"></polygon><polygon points="1684,837 1684,891 1637,918 1590,891 1590,837 1637,810" fill="#9b697a" stroke-width="1" stroke="#9b697a"></polygon><polygon points="1777,837 1777,891 1730,918 1684,891 1684,837 1730,810" fill="#c56d7f" stroke-width="1" stroke="#c56d7f"></polygon><polygon points="1871,837 1871,891 1824,918 1777,891 1777,837 1824,810" fill="#9b697a" stroke-width="1" stroke="#9b697a"></polygon><polygon points="1964,837 1964,891 1917,918 1871,891 1871,837 1917,810" fill="#ae6b7d" stroke-width="1" stroke="#ae6b7d"></polygon><polygon points="2058,837 2058,891 2011,918 1964,891 1964,837 2011,810" fill="#9b697a" stroke-width="1" stroke="#9b697a"></polygon><polygon points="2151,837 2151,891 2104,918 2058,891 2058,837 2104,810" fill="#9b697a" stroke-width="1" stroke="#9b697a"></polygon><polygon points="2245,837 2245,891 2198,918 2151,891 2151,837 2198,810" fill="#9b697a" stroke-width="1" stroke="#9b697a"></polygon><polygon points="2338,837 2338,891 2292,918 2245,891 2245,837 2292,810" fill="#b26c7c" stroke-width="1" stroke="#b26c7c"></polygon><polygon points="47,918 47,972 0,999 -47,972 -47,918 0,891" fill="#a7d3a8" stroke-width="1" stroke="#a7d3a8"></polygon><polygon points="140,918 140,972 94,999 47,972 47,918 94,891" fill="#b2d69e" stroke-width="1" stroke="#b2d69e"></polygon><polygon points="234,918 234,972 187,999 140,972 140,918 187,891" fill="#f3d496" stroke-width="1" stroke="#f3d496"></polygon><polygon points="327,918 327,972 281,999 234,972 234,918 281,891" fill="#9fd0aa" stroke-width="1" stroke="#9fd0aa"></polygon><polygon points="421,918 421,972 374,999 327,972 327,918 374,891" fill="#a0cfa9" stroke-width="1" stroke="#a0cfa9"></polygon><polygon points="514,918 514,972 468,999 421,972 421,918 468,891" fill="#cdd699" stroke-width="1" stroke="#cdd699"></polygon><polygon points="608,918 608,972 561,999 514,972 514,918 561,891" fill="#acd4a1" stroke-width="1" stroke="#acd4a1"></polygon><polygon points="701,918 701,972 655,999 608,972 608,918 655,891" fill="#a7d3a8" stroke-width="1" stroke="#a7d3a8"></polygon><polygon points="795,918 795,972 748,999 701,972 701,918 748,891" fill="#cfd699" stroke-width="1" stroke="#cfd699"></polygon><polygon points="889,918 889,972 842,999 795,972 795,918 842,891" fill="#abd2a2" stroke-width="1" stroke="#abd2a2"></polygon><polygon points="982,918 982,972 935,999 889,972 889,918 935,891" fill="#9cceae" stroke-width="1" stroke="#9cceae"></polygon><polygon points="1076,918 1076,972 1029,999 982,972 982,918 1029,891" fill="#ee818c" stroke-width="1" stroke="#ee818c"></polygon><polygon points="1169,918 1169,972 1122,999 1076,972 1076,918 1122,891" fill="#b7b5a9" stroke-width="1" stroke="#b7b5a9"></polygon><polygon points="1263,918 1263,972 1216,999 1169,972 1169,918 1216,891" fill="#ce6f80" stroke-width="1" stroke="#ce6f80"></polygon><polygon points="1356,918 1356,972 1309,999 1263,972 1263,918 1309,891" fill="#be6f80" stroke-width="1" stroke="#be6f80"></polygon><polygon points="1450,918 1450,972 1403,999 1356,972 1356,918 1403,891" fill="#9e6b7c" stroke-width="1" stroke="#9e6b7c"></polygon><polygon points="1543,918 1543,972 1496,999 1450,972 1450,918 1496,891" fill="#cc7181" stroke-width="1" stroke="#cc7181"></polygon><polygon points="1637,918 1637,972 1590,999 1543,972 1543,918 1590,891" fill="#9b697a" stroke-width="1" stroke="#9b697a"></polygon><polygon points="1730,918 1730,972 1684,999 1637,972 1637,918 1684,891" fill="#ba6d7e" stroke-width="1" stroke="#ba6d7e"></polygon><polygon points="1824,918 1824,972 1777,999 1730,972 1730,918 1777,891" fill="#9b697a" stroke-width="1" stroke="#9b697a"></polygon><polygon points="1917,918 1917,972 1871,999 1824,972 1824,918 1871,891" fill="#9b697a" stroke-width="1" stroke="#9b697a"></polygon><polygon points="2011,918 2011,972 1964,999 1917,972 1917,918 1964,891" fill="#9b697a" stroke-width="1" stroke="#9b697a"></polygon><polygon points="2104,918 2104,972 2058,999 2011,972 2011,918 2058,891" fill="#9b697a" stroke-width="1" stroke="#9b697a"></polygon><polygon points="2198,918 2198,972 2151,999 2104,972 2104,918 2151,891" fill="#9b697a" stroke-width="1" stroke="#9b697a"></polygon><polygon points="2292,918 2292,972 2245,999 2198,972 2198,918 2245,891" fill="#9b697a" stroke-width="1" stroke="#9b697a"></polygon><polygon points="94,999 94,1053 47,1080 0,1053 0,999 47,972" fill="#b1d59f" stroke-width="1" stroke="#b1d59f"></polygon><polygon points="187,999 187,1053 140,1080 94,1053 94,999 140,972" fill="#e9d495" stroke-width="1" stroke="#e9d495"></polygon><polygon points="281,999 281,1053 234,1080 187,1053 187,999 234,972" fill="#f3d496" stroke-width="1" stroke="#f3d496"></polygon><polygon points="374,999 374,1053 327,1080 281,1053 281,999 327,972" fill="#f3d496" stroke-width="1" stroke="#f3d496"></polygon><polygon points="468,999 468,1053 421,1080 374,1053 374,999 421,972" fill="#f3d496" stroke-width="1" stroke="#f3d496"></polygon><polygon points="561,999 561,1053 514,1080 468,1053 468,999 514,972" fill="#e1d599" stroke-width="1" stroke="#e1d599"></polygon><polygon points="655,999 655,1053 608,1080 561,1053 561,999 608,972" fill="#f3d496" stroke-width="1" stroke="#f3d496"></polygon><polygon points="748,999 748,1053 701,1080 655,1053 655,999 701,972" fill="#f3d496" stroke-width="1" stroke="#f3d496"></polygon><polygon points="842,999 842,1053 795,1080 748,1053 748,999 795,972" fill="#e7d698" stroke-width="1" stroke="#e7d698"></polygon><polygon points="935,999 935,1053 889,1080 842,1053 842,999 889,972" fill="#bfb1a6" stroke-width="1" stroke="#bfb1a6"></polygon><polygon points="1029,999 1029,1053 982,1080 935,1053 935,999 982,972" fill="#a3d1a8" stroke-width="1" stroke="#a3d1a8"></polygon><polygon points="1122,999 1122,1053 1076,1080 1029,1053 1029,999 1076,972" fill="#e77385" stroke-width="1" stroke="#e77385"></polygon><polygon points="1216,999 1216,1053 1169,1080 1122,1053 1122,999 1169,972" fill="#c8aaa2" stroke-width="1" stroke="#c8aaa2"></polygon><polygon points="1309,999 1309,1053 1263,1080 1216,1053 1216,999 1263,972" fill="#e7888f" stroke-width="1" stroke="#e7888f"></polygon><polygon points="1403,999 1403,1053 1356,1080 1309,1053 1309,999 1356,972" fill="#e47283" stroke-width="1" stroke="#e47283"></polygon><polygon points="1496,999 1496,1053 1450,1080 1403,1053 1403,999 1450,972" fill="#e48b90" stroke-width="1" stroke="#e48b90"></polygon><polygon points="1590,999 1590,1053 1543,1080 1496,1053 1496,999 1543,972" fill="#f67485" stroke-width="1" stroke="#f67485"></polygon><polygon points="1684,999 1684,1053 1637,1080 1590,1053 1590,999 1637,972" fill="#9b697a" stroke-width="1" stroke="#9b697a"></polygon><polygon points="1777,999 1777,1053 1730,1080 1684,1053 1684,999 1730,972" fill="#9b697a" stroke-width="1" stroke="#9b697a"></polygon><polygon points="1871,999 1871,1053 1824,1080 1777,1053 1777,999 1824,972" fill="#b06d7e" stroke-width="1" stroke="#b06d7e"></polygon><polygon points="1964,999 1964,1053 1917,1080 1871,1053 1871,999 1917,972" fill="#e67586" stroke-width="1" stroke="#e67586"></polygon><polygon points="2058,999 2058,1053 2011,1080 1964,1053 1964,999 2011,972" fill="#ed7383" stroke-width="1" stroke="#ed7383"></polygon><polygon points="2151,999 2151,1053 2104,1080 2058,1053 2058,999 2104,972" fill="#bc6c7d" stroke-width="1" stroke="#bc6c7d"></polygon><polygon points="2245,999 2245,1053 2198,1080 2151,1053 2151,999 2198,972" fill="#ba6d7e" stroke-width="1" stroke="#ba6d7e"></polygon><polygon points="2338,999 2338,1053 2292,1080 2245,1053 2245,999 2292,972" fill="#df9696" stroke-width="1" stroke="#df9696"></polygon><polygon points="47,1080 47,1134 0,1161 -47,1134 -47,1080 0,1053" fill="#f3d496" stroke-width="1" stroke="#f3d496"></polygon><polygon points="140,1080 140,1134 94,1161 47,1134 47,1080 94,1053" fill="#e2d597" stroke-width="1" stroke="#e2d597"></polygon><polygon points="234,1080 234,1134 187,1161 140,1134 140,1080 187,1053" fill="#c5d69a" stroke-width="1" stroke="#c5d69a"></polygon><polygon points="327,1080 327,1134 281,1161 234,1134 234,1080 281,1053" fill="#f3d496" stroke-width="1" stroke="#f3d496"></polygon><polygon points="421,1080 421,1134 374,1161 327,1134 327,1080 374,1053" fill="#c5d69a" stroke-width="1" stroke="#c5d69a"></polygon><polygon points="514,1080 514,1134 468,1161 421,1134 421,1080 468,1053" fill="#f3d496" stroke-width="1" stroke="#f3d496"></polygon><polygon points="608,1080 608,1134 561,1161 514,1134 514,1080 561,1053" fill="#f3d496" stroke-width="1" stroke="#f3d496"></polygon><polygon points="701,1080 701,1134 655,1161 608,1134 608,1080 655,1053" fill="#f3d496" stroke-width="1" stroke="#f3d496"></polygon><polygon points="795,1080 795,1134 748,1161 701,1134 701,1080 748,1053" fill="#afd59f" stroke-width="1" stroke="#afd59f"></polygon><polygon points="889,1080 889,1134 842,1161 795,1134 795,1080 842,1053" fill="#f3d496" stroke-width="1" stroke="#f3d496"></polygon><polygon points="982,1080 982,1134 935,1161 889,1134 889,1080 935,1053" fill="#e1d598" stroke-width="1" stroke="#e1d598"></polygon><polygon points="1076,1080 1076,1134 1029,1161 982,1134 982,1080 1029,1053" fill="#ccd699" stroke-width="1" stroke="#ccd699"></polygon><polygon points="1169,1080 1169,1134 1122,1161 1076,1134 1076,1080 1122,1053" fill="#b4b6aa" stroke-width="1" stroke="#b4b6aa"></polygon><polygon points="1263,1080 1263,1134 1216,1161 1169,1134 1169,1080 1216,1053" fill="#cda39d" stroke-width="1" stroke="#cda39d"></polygon><polygon points="1356,1080 1356,1134 1309,1161 1263,1134 1263,1080 1309,1053" fill="#98cdb3" stroke-width="1" stroke="#98cdb3"></polygon><polygon points="1450,1080 1450,1134 1403,1161 1356,1134 1356,1080 1403,1053" fill="#90cbb4" stroke-width="1" stroke="#90cbb4"></polygon><polygon points="1543,1080 1543,1134 1496,1161 1450,1134 1450,1080 1496,1053" fill="#b46e7f" stroke-width="1" stroke="#b46e7f"></polygon><polygon points="1637,1080 1637,1134 1590,1161 1543,1134 1543,1080 1590,1053" fill="#9b697a" stroke-width="1" stroke="#9b697a"></polygon><polygon points="1730,1080 1730,1134 1684,1161 1637,1134 1637,1080 1684,1053" fill="#9b697a" stroke-width="1" stroke="#9b697a"></polygon><polygon points="1824,1080 1824,1134 1777,1161 1730,1134 1730,1080 1777,1053" fill="#ba6d7e" stroke-width="1" stroke="#ba6d7e"></polygon><polygon points="1917,1080 1917,1134 1871,1161 1824,1134 1824,1080 1871,1053" fill="#ea7585" stroke-width="1" stroke="#ea7585"></polygon><polygon points="2011,1080 2011,1134 1964,1161 1917,1134 1917,1080 1964,1053" fill="#9b697a" stroke-width="1" stroke="#9b697a"></polygon><polygon points="2104,1080 2104,1134 2058,1161 2011,1134 2011,1080 2058,1053" fill="#9b697a" stroke-width="1" stroke="#9b697a"></polygon><polygon points="2198,1080 2198,1134 2151,1161 2104,1134 2104,1080 2151,1053" fill="#9b697a" stroke-width="1" stroke="#9b697a"></polygon><polygon points="2292,1080 2292,1134 2245,1161 2198,1134 2198,1080 2245,1053" fill="#9b697a" stroke-width="1" stroke="#9b697a"></polygon><polygon points="94,1161 94,1215 47,1242 0,1215 0,1161 47,1134" fill="#f3d496" stroke-width="1" stroke="#f3d496"></polygon><polygon points="187,1161 187,1215 140,1242 94,1215 94,1161 140,1134" fill="#b4d69e" stroke-width="1" stroke="#b4d69e"></polygon><polygon points="281,1161 281,1215 234,1242 187,1215 187,1161 234,1134" fill="#f3d496" stroke-width="1" stroke="#f3d496"></polygon><polygon points="374,1161 374,1215 327,1242 281,1215 281,1161 327,1134" fill="#f0d393" stroke-width="1" stroke="#f0d393"></polygon><polygon points="468,1161 468,1215 421,1242 374,1215 374,1161 421,1134" fill="#ddd598" stroke-width="1" stroke="#ddd598"></polygon><polygon points="561,1161 561,1215 514,1242 468,1215 468,1161 514,1134" fill="#f3d496" stroke-width="1" stroke="#f3d496"></polygon><polygon points="655,1161 655,1215 608,1242 561,1215 561,1161 608,1134" fill="#e1d598" stroke-width="1" stroke="#e1d598"></polygon><polygon points="748,1161 748,1215 701,1242 655,1215 655,1161 701,1134" fill="#f3d496" stroke-width="1" stroke="#f3d496"></polygon><polygon points="842,1161 842,1215 795,1242 748,1215 748,1161 795,1134" fill="#f3d496" stroke-width="1" stroke="#f3d496"></polygon><polygon points="935,1161 935,1215 889,1242 842,1215 842,1161 889,1134" fill="#f3d496" stroke-width="1" stroke="#f3d496"></polygon><polygon points="1029,1161 1029,1215 982,1242 935,1215 935,1161 982,1134" fill="#c2d69a" stroke-width="1" stroke="#c2d69a"></polygon><polygon points="1122,1161 1122,1215 1076,1242 1029,1215 1029,1161 1076,1134" fill="#92c9b4" stroke-width="1" stroke="#92c9b4"></polygon><polygon points="1216,1161 1216,1215 1169,1242 1122,1215 1122,1161 1169,1134" fill="#c6a79f" stroke-width="1" stroke="#c6a79f"></polygon><polygon points="1309,1161 1309,1215 1263,1242 1216,1215 1216,1161 1263,1134" fill="#f67485" stroke-width="1" stroke="#f67485"></polygon><polygon points="1403,1161 1403,1215 1356,1242 1309,1215 1309,1161 1356,1134" fill="#e77385" stroke-width="1" stroke="#e77385"></polygon><polygon points="1496,1161 1496,1215 1450,1242 1403,1215 1403,1161 1450,1134" fill="#ef808b" stroke-width="1" stroke="#ef808b"></polygon><polygon points="1590,1161 1590,1215 1543,1242 1496,1215 1496,1161 1543,1134" fill="#9b697a" stroke-width="1" stroke="#9b697a"></polygon><polygon points="1684,1161 1684,1215 1637,1242 1590,1215 1590,1161 1637,1134" fill="#c46e7f" stroke-width="1" stroke="#c46e7f"></polygon><polygon points="1777,1161 1777,1215 1730,1242 1684,1215 1684,1161 1730,1134" fill="#da7181" stroke-width="1" stroke="#da7181"></polygon><polygon points="1871,1161 1871,1215 1824,1242 1777,1215 1777,1161 1824,1134" fill="#f27384" stroke-width="1" stroke="#f27384"></polygon><polygon points="1964,1161 1964,1215 1917,1242 1871,1215 1871,1161 1917,1134" fill="#f47c8a" stroke-width="1" stroke="#f47c8a"></polygon><polygon points="2058,1161 2058,1215 2011,1242 1964,1215 1964,1161 2011,1134" fill="#9b697a" stroke-width="1" stroke="#9b697a"></polygon><polygon points="2151,1161 2151,1215 2104,1242 2058,1215 2058,1161 2104,1134" fill="#9b697a" stroke-width="1" stroke="#9b697a"></polygon><polygon points="2245,1161 2245,1215 2198,1242 2151,1215 2151,1161 2198,1134" fill="#9b697a" stroke-width="1" stroke="#9b697a"></polygon><polygon points="2338,1161 2338,1215 2292,1242 2245,1215 2245,1161 2292,1134" fill="#b26c7c" stroke-width="1" stroke="#b26c7c"></polygon><polygon points="47,1242 47,1296 0,1323 -47,1296 -47,1242 0,1215" fill="#f3d496" stroke-width="1" stroke="#f3d496"></polygon><polygon points="140,1242 140,1296 94,1323 47,1296 47,1242 94,1215" fill="#abd2a2" stroke-width="1" stroke="#abd2a2"></polygon><polygon points="234,1242 234,1296 187,1323 140,1296 140,1242 187,1215" fill="#f3d496" stroke-width="1" stroke="#f3d496"></polygon><polygon points="327,1242 327,1296 281,1323 234,1296 234,1242 281,1215" fill="#f3d496" stroke-width="1" stroke="#f3d496"></polygon><polygon points="421,1242 421,1296 374,1323 327,1296 327,1242 374,1215" fill="#c8d69a" stroke-width="1" stroke="#c8d69a"></polygon><polygon points="514,1242 514,1296 468,1323 421,1296 421,1242 468,1215" fill="#d7d598" stroke-width="1" stroke="#d7d598"></polygon><polygon points="608,1242 608,1296 561,1323 514,1296 514,1242 561,1215" fill="#f3d496" stroke-width="1" stroke="#f3d496"></polygon><polygon points="701,1242 701,1296 655,1323 608,1296 608,1242 655,1215" fill="#f3d496" stroke-width="1" stroke="#f3d496"></polygon><polygon points="795,1242 795,1296 748,1323 701,1296 701,1242 748,1215" fill="#f3d496" stroke-width="1" stroke="#f3d496"></polygon><polygon points="889,1242 889,1296 842,1323 795,1296 795,1242 842,1215" fill="#f3d496" stroke-width="1" stroke="#f3d496"></polygon><polygon points="982,1242 982,1296 935,1323 889,1296 889,1242 935,1215" fill="#f3d496" stroke-width="1" stroke="#f3d496"></polygon><polygon points="1076,1242 1076,1296 1029,1323 982,1296 982,1242 1029,1215" fill="#f3d496" stroke-width="1" stroke="#f3d496"></polygon><polygon points="1169,1242 1169,1296 1122,1323 1076,1296 1076,1242 1122,1215" fill="#c5d69a" stroke-width="1" stroke="#c5d69a"></polygon><polygon points="1263,1242 1263,1296 1216,1323 1169,1296 1169,1242 1216,1215" fill="#94ccb2" stroke-width="1" stroke="#94ccb2"></polygon><polygon points="1356,1242 1356,1296 1309,1323 1263,1296 1263,1242 1309,1215" fill="#afd59f" stroke-width="1" stroke="#afd59f"></polygon><polygon points="1450,1242 1450,1296 1403,1323 1356,1296 1356,1242 1403,1215" fill="#a7beac" stroke-width="1" stroke="#a7beac"></polygon><polygon points="1543,1242 1543,1296 1496,1323 1450,1296 1450,1242 1496,1215" fill="#a0cfad" stroke-width="1" stroke="#a0cfad"></polygon><polygon points="1637,1242 1637,1296 1590,1323 1543,1296 1543,1242 1590,1215" fill="#a4c1af" stroke-width="1" stroke="#a4c1af"></polygon><polygon points="1730,1242 1730,1296 1684,1323 1637,1296 1637,1242 1684,1215" fill="#bd7081" stroke-width="1" stroke="#bd7081"></polygon><polygon points="1824,1242 1824,1296 1777,1323 1730,1296 1730,1242 1777,1215" fill="#dc7484" stroke-width="1" stroke="#dc7484"></polygon><polygon points="1917,1242 1917,1296 1871,1323 1824,1296 1824,1242 1871,1215" fill="#b96e7f" stroke-width="1" stroke="#b96e7f"></polygon><polygon points="2011,1242 2011,1296 1964,1323 1917,1296 1917,1242 1964,1215" fill="#9b697a" stroke-width="1" stroke="#9b697a"></polygon><polygon points="2104,1242 2104,1296 2058,1323 2011,1296 2011,1242 2058,1215" fill="#ed828d" stroke-width="1" stroke="#ed828d"></polygon><polygon points="2198,1242 2198,1296 2151,1323 2104,1296 2104,1242 2151,1215" fill="#f17484" stroke-width="1" stroke="#f17484"></polygon><polygon points="2292,1242 2292,1296 2245,1323 2198,1296 2198,1242 2245,1215" fill="#9b697a" stroke-width="1" stroke="#9b697a"></polygon><polygon points="94,1323 94,1377 47,1404 0,1377 0,1323 47,1296" fill="#abd3a1" stroke-width="1" stroke="#abd3a1"></polygon><polygon points="187,1323 187,1377 140,1404 94,1377 94,1323 140,1296" fill="#b0d59f" stroke-width="1" stroke="#b0d59f"></polygon><polygon points="281,1323 281,1377 234,1404 187,1377 187,1323 234,1296" fill="#e9d495" stroke-width="1" stroke="#e9d495"></polygon><polygon points="374,1323 374,1377 327,1404 281,1377 281,1323 327,1296" fill="#f3d496" stroke-width="1" stroke="#f3d496"></polygon><polygon points="468,1323 468,1377 421,1404 374,1377 374,1323 421,1296" fill="#e4d395" stroke-width="1" stroke="#e4d395"></polygon><polygon points="561,1323 561,1377 514,1404 468,1377 468,1323 514,1296" fill="#f3d496" stroke-width="1" stroke="#f3d496"></polygon><polygon points="655,1323 655,1377 608,1404 561,1377 561,1323 608,1296" fill="#d7d598" stroke-width="1" stroke="#d7d598"></polygon><polygon points="748,1323 748,1377 701,1404 655,1377 655,1323 701,1296" fill="#f3d496" stroke-width="1" stroke="#f3d496"></polygon><polygon points="842,1323 842,1377 795,1404 748,1377 748,1323 795,1296" fill="#f3d496" stroke-width="1" stroke="#f3d496"></polygon><polygon points="935,1323 935,1377 889,1404 842,1377 842,1323 889,1296" fill="#dbd599" stroke-width="1" stroke="#dbd599"></polygon><polygon points="1029,1323 1029,1377 982,1404 935,1377 935,1323 982,1296" fill="#dbd599" stroke-width="1" stroke="#dbd599"></polygon><polygon points="1122,1323 1122,1377 1076,1404 1029,1377 1029,1323 1076,1296" fill="#e4d395" stroke-width="1" stroke="#e4d395"></polygon><polygon points="1216,1323 1216,1377 1169,1404 1122,1377 1122,1323 1169,1296" fill="#f3d496" stroke-width="1" stroke="#f3d496"></polygon><polygon points="1309,1323 1309,1377 1263,1404 1216,1377 1216,1323 1263,1296" fill="#a0cfa8" stroke-width="1" stroke="#a0cfa8"></polygon><polygon points="1403,1323 1403,1377 1356,1404 1309,1377 1309,1323 1356,1296" fill="#a2c3b0" stroke-width="1" stroke="#a2c3b0"></polygon><polygon points="1496,1323 1496,1377 1450,1404 1403,1377 1403,1323 1450,1296" fill="#91cab2" stroke-width="1" stroke="#91cab2"></polygon><polygon points="1590,1323 1590,1377 1543,1404 1496,1377 1496,1323 1543,1296" fill="#9cceab" stroke-width="1" stroke="#9cceab"></polygon><polygon points="1684,1323 1684,1377 1637,1404 1590,1377 1590,1323 1637,1296" fill="#c1aea4" stroke-width="1" stroke="#c1aea4"></polygon><polygon points="1777,1323 1777,1377 1730,1404 1684,1377 1684,1323 1730,1296" fill="#ed828d" stroke-width="1" stroke="#ed828d"></polygon><polygon points="1871,1323 1871,1377 1824,1404 1777,1377 1777,1323 1824,1296" fill="#9b697a" stroke-width="1" stroke="#9b697a"></polygon><polygon points="1964,1323 1964,1377 1917,1404 1871,1377 1871,1323 1917,1296" fill="#c4a9a1" stroke-width="1" stroke="#c4a9a1"></polygon><polygon points="2058,1323 2058,1377 2011,1404 1964,1377 1964,1323 2011,1296" fill="#d97384" stroke-width="1" stroke="#d97384"></polygon><polygon points="2151,1323 2151,1377 2104,1404 2058,1377 2058,1323 2104,1296" fill="#ac6c7d" stroke-width="1" stroke="#ac6c7d"></polygon><polygon points="2245,1323 2245,1377 2198,1404 2151,1377 2151,1323 2198,1296" fill="#b66d7f" stroke-width="1" stroke="#b66d7f"></polygon><polygon points="2338,1323 2338,1377 2292,1404 2245,1377 2245,1323 2292,1296" fill="#ed7383" stroke-width="1" stroke="#ed7383"></polygon><polygon points="47,1404 47,1458 0,1485 -47,1458 -47,1404 0,1377" fill="#ced699" stroke-width="1" stroke="#ced699"></polygon><polygon points="140,1404 140,1458 94,1485 47,1458 47,1404 94,1377" fill="#ddd598" stroke-width="1" stroke="#ddd598"></polygon><polygon points="234,1404 234,1458 187,1485 140,1458 140,1404 187,1377" fill="#ddd597" stroke-width="1" stroke="#ddd597"></polygon><polygon points="327,1404 327,1458 281,1485 234,1458 234,1404 281,1377" fill="#eed495" stroke-width="1" stroke="#eed495"></polygon><polygon points="421,1404 421,1458 374,1485 327,1458 327,1404 374,1377" fill="#f3d496" stroke-width="1" stroke="#f3d496"></polygon><polygon points="514,1404 514,1458 468,1485 421,1458 421,1404 468,1377" fill="#e9d395" stroke-width="1" stroke="#e9d395"></polygon><polygon points="608,1404 608,1458 561,1485 514,1458 514,1404 561,1377" fill="#f3d496" stroke-width="1" stroke="#f3d496"></polygon><polygon points="701,1404 701,1458 655,1485 608,1458 608,1404 655,1377" fill="#f3d496" stroke-width="1" stroke="#f3d496"></polygon><polygon points="795,1404 795,1458 748,1485 701,1458 701,1404 748,1377" fill="#f3d496" stroke-width="1" stroke="#f3d496"></polygon><polygon points="889,1404 889,1458 842,1485 795,1458 795,1404 842,1377" fill="#f3d496" stroke-width="1" stroke="#f3d496"></polygon><polygon points="982,1404 982,1458 935,1485 889,1458 889,1404 935,1377" fill="#d0d699" stroke-width="1" stroke="#d0d699"></polygon><polygon points="1076,1404 1076,1458 1029,1485 982,1458 982,1404 1029,1377" fill="#edd497" stroke-width="1" stroke="#edd497"></polygon><polygon points="1169,1404 1169,1458 1122,1485 1076,1458 1076,1404 1122,1377" fill="#d6d599" stroke-width="1" stroke="#d6d599"></polygon><polygon points="1263,1404 1263,1458 1216,1485 1169,1458 1169,1404 1216,1377" fill="#f3d496" stroke-width="1" stroke="#f3d496"></polygon><polygon points="1356,1404 1356,1458 1309,1485 1263,1458 1263,1404 1309,1377" fill="#add4a0" stroke-width="1" stroke="#add4a0"></polygon><polygon points="1450,1404 1450,1458 1403,1485 1356,1458 1356,1404 1403,1377" fill="#bdd699" stroke-width="1" stroke="#bdd699"></polygon><polygon points="1543,1404 1543,1458 1496,1485 1450,1458 1450,1404 1496,1377" fill="#c3aba2" stroke-width="1" stroke="#c3aba2"></polygon><polygon points="1637,1404 1637,1458 1590,1485 1543,1458 1543,1404 1590,1377" fill="#95cbb4" stroke-width="1" stroke="#95cbb4"></polygon><polygon points="1730,1404 1730,1458 1684,1485 1637,1458 1637,1404 1684,1377" fill="#f17e8a" stroke-width="1" stroke="#f17e8a"></polygon><polygon points="1824,1404 1824,1458 1777,1485 1730,1458 1730,1404 1777,1377" fill="#e08f92" stroke-width="1" stroke="#e08f92"></polygon><polygon points="1917,1404 1917,1458 1871,1485 1824,1458 1824,1404 1871,1377" fill="#d77081" stroke-width="1" stroke="#d77081"></polygon><polygon points="2011,1404 2011,1458 1964,1485 1917,1458 1917,1404 1964,1377" fill="#d09e9a" stroke-width="1" stroke="#d09e9a"></polygon><polygon points="2104,1404 2104,1458 2058,1485 2011,1458 2011,1404 2058,1377" fill="#9b697a" stroke-width="1" stroke="#9b697a"></polygon><polygon points="2198,1404 2198,1458 2151,1485 2104,1458 2104,1404 2151,1377" fill="#d57282" stroke-width="1" stroke="#d57282"></polygon><polygon points="2292,1404 2292,1458 2245,1485 2198,1458 2198,1404 2245,1377" fill="#9b697a" stroke-width="1" stroke="#9b697a"></polygon><polygon points="94,1485 94,1539 47,1566 0,1539 0,1485 47,1458" fill="#abd3a1" stroke-width="1" stroke="#abd3a1"></polygon><polygon points="187,1485 187,1539 140,1566 94,1539 94,1485 140,1458" fill="#b0d59f" stroke-width="1" stroke="#b0d59f"></polygon><polygon points="281,1485 281,1539 234,1566 187,1539 187,1485 234,1458" fill="#add4a1" stroke-width="1" stroke="#add4a1"></polygon><polygon points="374,1485 374,1539 327,1566 281,1539 281,1485 327,1458" fill="#f3d496" stroke-width="1" stroke="#f3d496"></polygon><polygon points="468,1485 468,1539 421,1566 374,1539 374,1485 421,1458" fill="#f3d496" stroke-width="1" stroke="#f3d496"></polygon><polygon points="561,1485 561,1539 514,1566 468,1539 468,1485 514,1458" fill="#f3d496" stroke-width="1" stroke="#f3d496"></polygon><polygon points="655,1485 655,1539 608,1566 561,1539 561,1485 608,1458" fill="#f3d496" stroke-width="1" stroke="#f3d496"></polygon><polygon points="748,1485 748,1539 701,1566 655,1539 655,1485 701,1458" fill="#f3d496" stroke-width="1" stroke="#f3d496"></polygon><polygon points="842,1485 842,1539 795,1566 748,1539 748,1485 795,1458" fill="#f3d496" stroke-width="1" stroke="#f3d496"></polygon><polygon points="935,1485 935,1539 889,1566 842,1539 842,1485 889,1458" fill="#f3d496" stroke-width="1" stroke="#f3d496"></polygon><polygon points="1029,1485 1029,1539 982,1566 935,1539 935,1485 982,1458" fill="#e7d698" stroke-width="1" stroke="#e7d698"></polygon><polygon points="1122,1485 1122,1539 1076,1566 1029,1539 1029,1485 1076,1458" fill="#f3d496" stroke-width="1" stroke="#f3d496"></polygon><polygon points="1216,1485 1216,1539 1169,1566 1122,1539 1122,1485 1169,1458" fill="#c4d69a" stroke-width="1" stroke="#c4d69a"></polygon><polygon points="1309,1485 1309,1539 1263,1566 1216,1539 1216,1485 1263,1458" fill="#ded496" stroke-width="1" stroke="#ded496"></polygon><polygon points="1403,1485 1403,1539 1356,1566 1309,1539 1309,1485 1356,1458" fill="#bed699" stroke-width="1" stroke="#bed699"></polygon><polygon points="1496,1485 1496,1539 1450,1566 1403,1539 1403,1485 1450,1458" fill="#c0afa5" stroke-width="1" stroke="#c0afa5"></polygon><polygon points="1590,1485 1590,1539 1543,1566 1496,1539 1496,1485 1543,1458" fill="#bbd699" stroke-width="1" stroke="#bbd699"></polygon><polygon points="1684,1485 1684,1539 1637,1566 1590,1539 1590,1485 1637,1458" fill="#a0cfa8" stroke-width="1" stroke="#a0cfa8"></polygon><polygon points="1777,1485 1777,1539 1730,1566 1684,1539 1684,1485 1730,1458" fill="#e37283" stroke-width="1" stroke="#e37283"></polygon><polygon points="1871,1485 1871,1539 1824,1566 1777,1539 1777,1485 1824,1458" fill="#afb9ac" stroke-width="1" stroke="#afb9ac"></polygon><polygon points="1964,1485 1964,1539 1917,1566 1871,1539 1871,1485 1917,1458" fill="#eb848d" stroke-width="1" stroke="#eb848d"></polygon><polygon points="2058,1485 2058,1539 2011,1566 1964,1539 1964,1485 2011,1458" fill="#c3aba2" stroke-width="1" stroke="#c3aba2"></polygon><polygon points="2151,1485 2151,1539 2104,1566 2058,1539 2058,1485 2104,1458" fill="#9b697a" stroke-width="1" stroke="#9b697a"></polygon><polygon points="2245,1485 2245,1539 2198,1566 2151,1539 2151,1485 2198,1458" fill="#c46e7f" stroke-width="1" stroke="#c46e7f"></polygon><polygon points="2338,1485 2338,1539 2292,1566 2245,1539 2245,1485 2292,1458" fill="#c46e7f" stroke-width="1" stroke="#c46e7f"></polygon><polygon points="47,1566 47,1620 0,1647 -47,1620 -47,1566 0,1539" fill="#cdd699" stroke-width="1" stroke="#cdd699"></polygon><polygon points="140,1566 140,1620 94,1647 47,1620 47,1566 94,1539" fill="#a0cfa9" stroke-width="1" stroke="#a0cfa9"></polygon><polygon points="234,1566 234,1620 187,1647 140,1620 140,1566 187,1539" fill="#9cceaa" stroke-width="1" stroke="#9cceaa"></polygon><polygon points="327,1566 327,1620 281,1647 234,1620 234,1566 281,1539" fill="#d8d497" stroke-width="1" stroke="#d8d497"></polygon><polygon points="421,1566 421,1620 374,1647 327,1620 327,1566 374,1539" fill="#f3d496" stroke-width="1" stroke="#f3d496"></polygon><polygon points="514,1566 514,1620 468,1647 421,1620 421,1566 468,1539" fill="#ded496" stroke-width="1" stroke="#ded496"></polygon><polygon points="608,1566 608,1620 561,1647 514,1620 514,1566 561,1539" fill="#f3d496" stroke-width="1" stroke="#f3d496"></polygon><polygon points="701,1566 701,1620 655,1647 608,1620 608,1566 655,1539" fill="#f3d496" stroke-width="1" stroke="#f3d496"></polygon><polygon points="795,1566 795,1620 748,1647 701,1620 701,1566 748,1539" fill="#f3d496" stroke-width="1" stroke="#f3d496"></polygon><polygon points="889,1566 889,1620 842,1647 795,1620 795,1566 842,1539" fill="#ebd498" stroke-width="1" stroke="#ebd498"></polygon><polygon points="982,1566 982,1620 935,1647 889,1620 889,1566 935,1539" fill="#f3d496" stroke-width="1" stroke="#f3d496"></polygon><polygon points="1076,1566 1076,1620 1029,1647 982,1620 982,1566 1029,1539" fill="#f3d496" stroke-width="1" stroke="#f3d496"></polygon><polygon points="1169,1566 1169,1620 1122,1647 1076,1620 1076,1566 1122,1539" fill="#f3d496" stroke-width="1" stroke="#f3d496"></polygon><polygon points="1263,1566 1263,1620 1216,1647 1169,1620 1169,1566 1216,1539" fill="#f3d496" stroke-width="1" stroke="#f3d496"></polygon><polygon points="1356,1566 1356,1620 1309,1647 1263,1620 1263,1566 1309,1539" fill="#a0cfad" stroke-width="1" stroke="#a0cfad"></polygon><polygon points="1450,1566 1450,1620 1403,1647 1356,1620 1356,1566 1403,1539" fill="#abd2a2" stroke-width="1" stroke="#abd2a2"></polygon><polygon points="1543,1566 1543,1620 1496,1647 1450,1620 1450,1566 1496,1539" fill="#c5d69a" stroke-width="1" stroke="#c5d69a"></polygon><polygon points="1637,1566 1637,1620 1590,1647 1543,1620 1543,1566 1590,1539" fill="#a9d3a6" stroke-width="1" stroke="#a9d3a6"></polygon><polygon points="1730,1566 1730,1620 1684,1647 1637,1620 1637,1566 1684,1539" fill="#92c9b3" stroke-width="1" stroke="#92c9b3"></polygon><polygon points="1824,1566 1824,1620 1777,1647 1730,1620 1730,1566 1777,1539" fill="#b3b7a9" stroke-width="1" stroke="#b3b7a9"></polygon><polygon points="1917,1566 1917,1620 1871,1647 1824,1620 1824,1566 1871,1539" fill="#d79998" stroke-width="1" stroke="#d79998"></polygon><polygon points="2011,1566 2011,1620 1964,1647 1917,1620 1917,1566 1964,1539" fill="#ef808b" stroke-width="1" stroke="#ef808b"></polygon><polygon points="2104,1566 2104,1620 2058,1647 2011,1620 2011,1566 2058,1539" fill="#ee7787" stroke-width="1" stroke="#ee7787"></polygon><polygon points="2198,1566 2198,1620 2151,1647 2104,1620 2104,1566 2151,1539" fill="#bfb1a6" stroke-width="1" stroke="#bfb1a6"></polygon><polygon points="2292,1566 2292,1620 2245,1647 2198,1620 2198,1566 2245,1539" fill="#da7283" stroke-width="1" stroke="#da7283"></polygon><polygon points="94,1647 94,1701 47,1728 0,1701 0,1647 47,1620" fill="#a3d1a5" stroke-width="1" stroke="#a3d1a5"></polygon><polygon points="187,1647 187,1701 140,1728 94,1701 94,1647 140,1620" fill="#98cdb1" stroke-width="1" stroke="#98cdb1"></polygon><polygon points="281,1647 281,1701 234,1728 187,1701 187,1647 234,1620" fill="#9cceac" stroke-width="1" stroke="#9cceac"></polygon><polygon points="374,1647 374,1701 327,1728 281,1701 281,1647 327,1620" fill="#bdd699" stroke-width="1" stroke="#bdd699"></polygon><polygon points="468,1647 468,1701 421,1728 374,1701 374,1647 421,1620" fill="#f3d496" stroke-width="1" stroke="#f3d496"></polygon><polygon points="561,1647 561,1701 514,1728 468,1701 468,1647 514,1620" fill="#bdd699" stroke-width="1" stroke="#bdd699"></polygon><polygon points="655,1647 655,1701 608,1728 561,1701 561,1647 608,1620" fill="#e4d395" stroke-width="1" stroke="#e4d395"></polygon><polygon points="748,1647 748,1701 701,1728 655,1701 655,1647 701,1620" fill="#f3d496" stroke-width="1" stroke="#f3d496"></polygon><polygon points="842,1647 842,1701 795,1728 748,1701 748,1647 795,1620" fill="#f3d496" stroke-width="1" stroke="#f3d496"></polygon><polygon points="935,1647 935,1701 889,1728 842,1701 842,1647 889,1620" fill="#f3d496" stroke-width="1" stroke="#f3d496"></polygon><polygon points="1029,1647 1029,1701 982,1728 935,1701 935,1647 982,1620" fill="#f3d496" stroke-width="1" stroke="#f3d496"></polygon><polygon points="1122,1647 1122,1701 1076,1728 1029,1701 1029,1647 1076,1620" fill="#f3d496" stroke-width="1" stroke="#f3d496"></polygon><polygon points="1216,1647 1216,1701 1169,1728 1122,1701 1122,1647 1169,1620" fill="#f3d496" stroke-width="1" stroke="#f3d496"></polygon><polygon points="1309,1647 1309,1701 1263,1728 1216,1701 1216,1647 1263,1620" fill="#bed699" stroke-width="1" stroke="#bed699"></polygon><polygon points="1403,1647 1403,1701 1356,1728 1309,1701 1309,1647 1356,1620" fill="#dfd496" stroke-width="1" stroke="#dfd496"></polygon><polygon points="1496,1647 1496,1701 1450,1728 1403,1701 1403,1647 1450,1620" fill="#cbd699" stroke-width="1" stroke="#cbd699"></polygon><polygon points="1590,1647 1590,1701 1543,1728 1496,1701 1496,1647 1543,1620" fill="#b4d69e" stroke-width="1" stroke="#b4d69e"></polygon><polygon points="1684,1647 1684,1701 1637,1728 1590,1701 1590,1647 1637,1620" fill="#e08f93" stroke-width="1" stroke="#e08f93"></polygon><polygon points="1777,1647 1777,1701 1730,1728 1684,1701 1684,1647 1730,1620" fill="#94ccb2" stroke-width="1" stroke="#94ccb2"></polygon><polygon points="1871,1647 1871,1701 1824,1728 1777,1701 1777,1647 1824,1620" fill="#a0cfa9" stroke-width="1" stroke="#a0cfa9"></polygon><polygon points="1964,1647 1964,1701 1917,1728 1871,1701 1871,1647 1917,1620" fill="#90cbb4" stroke-width="1" stroke="#90cbb4"></polygon><polygon points="2058,1647 2058,1701 2011,1728 1964,1701 1964,1647 2011,1620" fill="#eb848d" stroke-width="1" stroke="#eb848d"></polygon><polygon points="2151,1647 2151,1701 2104,1728 2058,1701 2058,1647 2104,1620" fill="#f87788" stroke-width="1" stroke="#f87788"></polygon><polygon points="2245,1647 2245,1701 2198,1728 2151,1701 2151,1647 2198,1620" fill="#b9b4a7" stroke-width="1" stroke="#b9b4a7"></polygon><polygon points="2338,1647 2338,1701 2292,1728 2245,1701 2245,1647 2292,1620" fill="#9b697a" stroke-width="1" stroke="#9b697a"></polygon><polygon points="47,1728 47,1782 0,1809 -47,1782 -47,1728 0,1701" fill="#eb848d" stroke-width="1" stroke="#eb848d"></polygon><polygon points="140,1728 140,1782 94,1809 47,1782 47,1728 94,1701" fill="#9cceae" stroke-width="1" stroke="#9cceae"></polygon><polygon points="234,1728 234,1782 187,1809 140,1782 140,1728 187,1701" fill="#a5c0ad" stroke-width="1" stroke="#a5c0ad"></polygon><polygon points="327,1728 327,1782 281,1809 234,1782 234,1728 281,1701" fill="#b2d69e" stroke-width="1" stroke="#b2d69e"></polygon><polygon points="421,1728 421,1782 374,1809 327,1782 327,1728 374,1701" fill="#b7d699" stroke-width="1" stroke="#b7d699"></polygon><polygon points="514,1728 514,1782 468,1809 421,1782 421,1728 468,1701" fill="#ced699" stroke-width="1" stroke="#ced699"></polygon><polygon points="608,1728 608,1782 561,1809 514,1782 514,1728 561,1701" fill="#edd396" stroke-width="1" stroke="#edd396"></polygon><polygon points="701,1728 701,1782 655,1809 608,1782 608,1728 655,1701" fill="#c1d69a" stroke-width="1" stroke="#c1d69a"></polygon><polygon points="795,1728 795,1782 748,1809 701,1782 701,1728 748,1701" fill="#f3d496" stroke-width="1" stroke="#f3d496"></polygon><polygon points="889,1728 889,1782 842,1809 795,1782 795,1728 842,1701" fill="#f3d496" stroke-width="1" stroke="#f3d496"></polygon><polygon points="982,1728 982,1782 935,1809 889,1782 889,1728 935,1701" fill="#e4d395" stroke-width="1" stroke="#e4d395"></polygon><polygon points="1076,1728 1076,1782 1029,1809 982,1782 982,1728 1029,1701" fill="#f3d496" stroke-width="1" stroke="#f3d496"></polygon><polygon points="1169,1728 1169,1782 1122,1809 1076,1782 1076,1728 1122,1701" fill="#f3d496" stroke-width="1" stroke="#f3d496"></polygon><polygon points="1263,1728 1263,1782 1216,1809 1169,1782 1169,1728 1216,1701" fill="#f3d496" stroke-width="1" stroke="#f3d496"></polygon><polygon points="1356,1728 1356,1782 1309,1809 1263,1782 1263,1728 1309,1701" fill="#d2d699" stroke-width="1" stroke="#d2d699"></polygon><polygon points="1450,1728 1450,1782 1403,1809 1356,1782 1356,1728 1403,1701" fill="#f3d496" stroke-width="1" stroke="#f3d496"></polygon><polygon points="1543,1728 1543,1782 1496,1809 1450,1782 1450,1728 1496,1701" fill="#a7d2a7" stroke-width="1" stroke="#a7d2a7"></polygon><polygon points="1637,1728 1637,1782 1590,1809 1543,1782 1543,1728 1590,1701" fill="#9cceae" stroke-width="1" stroke="#9cceae"></polygon><polygon points="1730,1728 1730,1782 1684,1809 1637,1782 1637,1728 1684,1701" fill="#b3d69e" stroke-width="1" stroke="#b3d69e"></polygon><polygon points="1824,1728 1824,1782 1777,1809 1730,1782 1730,1728 1777,1701" fill="#9dc3af" stroke-width="1" stroke="#9dc3af"></polygon><polygon points="1917,1728 1917,1782 1871,1809 1824,1782 1824,1728 1871,1701" fill="#98cdb3" stroke-width="1" stroke="#98cdb3"></polygon><polygon points="2011,1728 2011,1782 1964,1809 1917,1782 1917,1728 1964,1701" fill="#e68e92" stroke-width="1" stroke="#e68e92"></polygon><polygon points="2104,1728 2104,1782 2058,1809 2011,1782 2011,1728 2058,1701" fill="#90cbb4" stroke-width="1" stroke="#90cbb4"></polygon><polygon points="2198,1728 2198,1782 2151,1809 2104,1782 2104,1728 2151,1701" fill="#9cc4af" stroke-width="1" stroke="#9cc4af"></polygon><polygon points="2292,1728 2292,1782 2245,1809 2198,1782 2198,1728 2245,1701" fill="#be6f80" stroke-width="1" stroke="#be6f80"></polygon><polygon points="94,1809 94,1863 47,1890 0,1863 0,1809 47,1782" fill="#a0c5b2" stroke-width="1" stroke="#a0c5b2"></polygon><polygon points="187,1809 187,1863 140,1890 94,1863 94,1809 140,1782" fill="#ea858d" stroke-width="1" stroke="#ea858d"></polygon><polygon points="281,1809 281,1863 234,1890 187,1863 187,1809 234,1782" fill="#9dc3af" stroke-width="1" stroke="#9dc3af"></polygon><polygon points="374,1809 374,1863 327,1890 281,1863 281,1809 327,1782" fill="#cdd699" stroke-width="1" stroke="#cdd699"></polygon><polygon points="468,1809 468,1863 421,1890 374,1863 374,1809 421,1782" fill="#b1d59f" stroke-width="1" stroke="#b1d59f"></polygon><polygon points="561,1809 561,1863 514,1890 468,1863 468,1809 514,1782" fill="#a3d1a8" stroke-width="1" stroke="#a3d1a8"></polygon><polygon points="655,1809 655,1863 608,1890 561,1863 561,1809 608,1782" fill="#e4d496" stroke-width="1" stroke="#e4d496"></polygon><polygon points="748,1809 748,1863 701,1890 655,1863 655,1809 701,1782" fill="#b8d699" stroke-width="1" stroke="#b8d699"></polygon><polygon points="842,1809 842,1863 795,1890 748,1863 748,1809 795,1782" fill="#f3d496" stroke-width="1" stroke="#f3d496"></polygon><polygon points="935,1809 935,1863 889,1890 842,1863 842,1809 889,1782" fill="#f3d496" stroke-width="1" stroke="#f3d496"></polygon><polygon points="1029,1809 1029,1863 982,1890 935,1863 935,1809 982,1782" fill="#b2d69e" stroke-width="1" stroke="#b2d69e"></polygon><polygon points="1122,1809 1122,1863 1076,1890 1029,1863 1029,1809 1076,1782" fill="#f3d496" stroke-width="1" stroke="#f3d496"></polygon><polygon points="1216,1809 1216,1863 1169,1890 1122,1863 1122,1809 1169,1782" fill="#f3d496" stroke-width="1" stroke="#f3d496"></polygon><polygon points="1309,1809 1309,1863 1263,1890 1216,1863 1216,1809 1263,1782" fill="#f3d496" stroke-width="1" stroke="#f3d496"></polygon><polygon points="1403,1809 1403,1863 1356,1890 1309,1863 1309,1809 1356,1782" fill="#a0cfad" stroke-width="1" stroke="#a0cfad"></polygon><polygon points="1496,1809 1496,1863 1450,1890 1403,1863 1403,1809 1450,1782" fill="#9bcfad" stroke-width="1" stroke="#9bcfad"></polygon><polygon points="1590,1809 1590,1863 1543,1890 1496,1863 1496,1809 1543,1782" fill="#e1d599" stroke-width="1" stroke="#e1d599"></polygon><polygon points="1684,1809 1684,1863 1637,1890 1590,1863 1590,1809 1637,1782" fill="#a3d1a8" stroke-width="1" stroke="#a3d1a8"></polygon><polygon points="1777,1809 1777,1863 1730,1890 1684,1863 1684,1809 1730,1782" fill="#e58b8f" stroke-width="1" stroke="#e58b8f"></polygon><polygon points="1871,1809 1871,1863 1824,1890 1777,1863 1777,1809 1824,1782" fill="#bab1a6" stroke-width="1" stroke="#bab1a6"></polygon><polygon points="1964,1809 1964,1863 1917,1890 1871,1863 1871,1809 1917,1782" fill="#98cdb3" stroke-width="1" stroke="#98cdb3"></polygon><polygon points="2058,1809 2058,1863 2011,1890 1964,1863 1964,1809 2011,1782" fill="#f27384" stroke-width="1" stroke="#f27384"></polygon><polygon points="2151,1809 2151,1863 2104,1890 2058,1863 2058,1809 2104,1782" fill="#90cbb4" stroke-width="1" stroke="#90cbb4"></polygon><polygon points="2245,1809 2245,1863 2198,1890 2151,1863 2151,1809 2198,1782" fill="#c0b0a5" stroke-width="1" stroke="#c0b0a5"></polygon><polygon points="2338,1809 2338,1863 2292,1890 2245,1863 2245,1809 2292,1782" fill="#e58b8f" stroke-width="1" stroke="#e58b8f"></polygon><polygon points="47,1890 47,1944 0,1971 -47,1944 -47,1890 0,1863" fill="#f27384" stroke-width="1" stroke="#f27384"></polygon><polygon points="140,1890 140,1944 94,1971 47,1944 47,1890 94,1863" fill="#98cdb1" stroke-width="1" stroke="#98cdb1"></polygon><polygon points="234,1890 234,1944 187,1971 140,1944 140,1890 187,1863" fill="#98cdaf" stroke-width="1" stroke="#98cdaf"></polygon><polygon points="327,1890 327,1944 281,1971 234,1944 234,1890 281,1863" fill="#a4c1af" stroke-width="1" stroke="#a4c1af"></polygon><polygon points="421,1890 421,1944 374,1971 327,1944 327,1890 374,1863" fill="#c4aaa1" stroke-width="1" stroke="#c4aaa1"></polygon><polygon points="514,1890 514,1944 468,1971 421,1944 421,1890 468,1863" fill="#cfd699" stroke-width="1" stroke="#cfd699"></polygon><polygon points="608,1890 608,1944 561,1971 514,1944 514,1890 561,1863" fill="#aad3a1" stroke-width="1" stroke="#aad3a1"></polygon><polygon points="701,1890 701,1944 655,1971 608,1944 608,1890 655,1863" fill="#d6d599" stroke-width="1" stroke="#d6d599"></polygon><polygon points="795,1890 795,1944 748,1971 701,1944 701,1890 748,1863" fill="#a0cfa9" stroke-width="1" stroke="#a0cfa9"></polygon><polygon points="889,1890 889,1944 842,1971 795,1944 795,1890 842,1863" fill="#f3d496" stroke-width="1" stroke="#f3d496"></polygon><polygon points="982,1890 982,1944 935,1971 889,1944 889,1890 935,1863" fill="#a9d3a7" stroke-width="1" stroke="#a9d3a7"></polygon><polygon points="1076,1890 1076,1944 1029,1971 982,1944 982,1890 1029,1863" fill="#e7d698" stroke-width="1" stroke="#e7d698"></polygon><polygon points="1169,1890 1169,1944 1122,1971 1076,1944 1076,1890 1122,1863" fill="#b4d69e" stroke-width="1" stroke="#b4d69e"></polygon><polygon points="1263,1890 1263,1944 1216,1971 1169,1944 1169,1890 1216,1863" fill="#e4d395" stroke-width="1" stroke="#e4d395"></polygon><polygon points="1356,1890 1356,1944 1309,1971 1263,1944 1263,1890 1309,1863" fill="#f3d496" stroke-width="1" stroke="#f3d496"></polygon><polygon points="1450,1890 1450,1944 1403,1971 1356,1944 1356,1890 1403,1863" fill="#a7d2a7" stroke-width="1" stroke="#a7d2a7"></polygon><polygon points="1543,1890 1543,1944 1496,1971 1450,1944 1450,1890 1496,1863" fill="#98cdb1" stroke-width="1" stroke="#98cdb1"></polygon><polygon points="1637,1890 1637,1944 1590,1971 1543,1944 1543,1890 1590,1863" fill="#d5d699" stroke-width="1" stroke="#d5d699"></polygon><polygon points="1730,1890 1730,1944 1684,1971 1637,1944 1637,1890 1684,1863" fill="#98cdaf" stroke-width="1" stroke="#98cdaf"></polygon><polygon points="1824,1890 1824,1944 1777,1971 1730,1944 1730,1890 1777,1863" fill="#afd59f" stroke-width="1" stroke="#afd59f"></polygon><polygon points="1917,1890 1917,1944 1871,1971 1824,1944 1824,1890 1871,1863" fill="#cda39d" stroke-width="1" stroke="#cda39d"></polygon><polygon points="2011,1890 2011,1944 1964,1971 1917,1944 1917,1890 1964,1863" fill="#a8d2a2" stroke-width="1" stroke="#a8d2a2"></polygon><polygon points="2104,1890 2104,1944 2058,1971 2011,1944 2011,1890 2058,1863" fill="#abd3a6" stroke-width="1" stroke="#abd3a6"></polygon><polygon points="2198,1890 2198,1944 2151,1971 2104,1944 2104,1890 2151,1863" fill="#e87384" stroke-width="1" stroke="#e87384"></polygon><polygon points="2292,1890 2292,1944 2245,1971 2198,1944 2198,1890 2245,1863" fill="#caa7a0" stroke-width="1" stroke="#caa7a0"></polygon><polygon points="94,1971 94,2025 47,2052 0,2025 0,1971 47,1944" fill="#b96e7f" stroke-width="1" stroke="#b96e7f"></polygon><polygon points="187,1971 187,2025 140,2052 94,2025 94,1971 140,1944" fill="#e77485" stroke-width="1" stroke="#e77485"></polygon><polygon points="281,1971 281,2025 234,2052 187,2025 187,1971 234,1944" fill="#c0b0a5" stroke-width="1" stroke="#c0b0a5"></polygon><polygon points="374,1971 374,2025 327,2052 281,2025 281,1971 327,1944" fill="#94ccb2" stroke-width="1" stroke="#94ccb2"></polygon><polygon points="468,1971 468,2025 421,2052 374,2025 374,1971 421,1944" fill="#98cdb3" stroke-width="1" stroke="#98cdb3"></polygon><polygon points="561,1971 561,2025 514,2052 468,2025 468,1971 514,1944" fill="#a9d3a7" stroke-width="1" stroke="#a9d3a7"></polygon><polygon points="655,1971 655,2025 608,2052 561,2025 561,1971 608,1944" fill="#a9bcac" stroke-width="1" stroke="#a9bcac"></polygon><polygon points="748,1971 748,2025 701,2052 655,2025 655,1971 701,1944" fill="#e7d698" stroke-width="1" stroke="#e7d698"></polygon><polygon points="842,1971 842,2025 795,2052 748,2025 748,1971 795,1944" fill="#d5d699" stroke-width="1" stroke="#d5d699"></polygon><polygon points="935,1971 935,2025 889,2052 842,2025 842,1971 889,1944" fill="#d1d699" stroke-width="1" stroke="#d1d699"></polygon><polygon points="1029,1971 1029,2025 982,2052 935,2025 935,1971 982,1944" fill="#a3d1a7" stroke-width="1" stroke="#a3d1a7"></polygon><polygon points="1122,1971 1122,2025 1076,2052 1029,2025 1029,1971 1076,1944" fill="#e1d598" stroke-width="1" stroke="#e1d598"></polygon><polygon points="1216,1971 1216,2025 1169,2052 1122,2025 1122,1971 1169,1944" fill="#b1d59f" stroke-width="1" stroke="#b1d59f"></polygon><polygon points="1309,1971 1309,2025 1263,2052 1216,2025 1216,1971 1263,1944" fill="#98cdaf" stroke-width="1" stroke="#98cdaf"></polygon><polygon points="1403,1971 1403,2025 1356,2052 1309,2025 1309,1971 1356,1944" fill="#9cceae" stroke-width="1" stroke="#9cceae"></polygon><polygon points="1496,1971 1496,2025 1450,2052 1403,2025 1403,1971 1450,1944" fill="#a7d3a8" stroke-width="1" stroke="#a7d3a8"></polygon><polygon points="1590,1971 1590,2025 1543,2052 1496,2025 1496,1971 1543,1944" fill="#abd3a6" stroke-width="1" stroke="#abd3a6"></polygon><polygon points="1684,1971 1684,2025 1637,2052 1590,2025 1590,1971 1637,1944" fill="#c6a79f" stroke-width="1" stroke="#c6a79f"></polygon><polygon points="1777,1971 1777,2025 1730,2052 1684,2025 1684,1971 1730,1944" fill="#bbb1a5" stroke-width="1" stroke="#bbb1a5"></polygon><polygon points="1871,1971 1871,2025 1824,2052 1777,2025 1777,1971 1824,1944" fill="#9cceae" stroke-width="1" stroke="#9cceae"></polygon><polygon points="1964,1971 1964,2025 1917,2052 1871,2025 1871,1971 1917,1944" fill="#9cceab" stroke-width="1" stroke="#9cceab"></polygon><polygon points="2058,1971 2058,2025 2011,2052 1964,2025 1964,1971 2011,1944" fill="#9bcfad" stroke-width="1" stroke="#9bcfad"></polygon><polygon points="2151,1971 2151,2025 2104,2052 2058,2025 2058,1971 2104,1944" fill="#a2c3b0" stroke-width="1" stroke="#a2c3b0"></polygon><polygon points="2245,1971 2245,2025 2198,2052 2151,2025 2151,1971 2198,1944" fill="#a0cfa8" stroke-width="1" stroke="#a0cfa8"></polygon><polygon points="2338,1971 2338,2025 2292,2052 2245,2025 2245,1971 2292,1944" fill="#99c7b3" stroke-width="1" stroke="#99c7b3"></polygon><polygon points="47,2052 47,2106 0,2133 -47,2106 -47,2052 0,2025" fill="#b66d7f" stroke-width="1" stroke="#b66d7f"></polygon><polygon points="140,2052 140,2106 94,2133 47,2106 47,2052 94,2025" fill="#e58b8f" stroke-width="1" stroke="#e58b8f"></polygon><polygon points="234,2052 234,2106 187,2133 140,2106 140,2052 187,2025" fill="#d59d9a" stroke-width="1" stroke="#d59d9a"></polygon><polygon points="327,2052 327,2106 281,2133 234,2106 234,2052 281,2025" fill="#c27081" stroke-width="1" stroke="#c27081"></polygon><polygon points="421,2052 421,2106 374,2133 327,2106 327,2052 374,2025" fill="#e08f92" stroke-width="1" stroke="#e08f92"></polygon><polygon points="514,2052 514,2106 468,2133 421,2106 421,2052 468,2025" fill="#d3a09c" stroke-width="1" stroke="#d3a09c"></polygon><polygon points="608,2052 608,2106 561,2133 514,2106 514,2052 561,2025" fill="#ec838c" stroke-width="1" stroke="#ec838c"></polygon><polygon points="701,2052 701,2106 655,2133 608,2106 608,2052 655,2025" fill="#a7d3a8" stroke-width="1" stroke="#a7d3a8"></polygon><polygon points="795,2052 795,2106 748,2133 701,2106 701,2052 748,2025" fill="#b9b2a6" stroke-width="1" stroke="#b9b2a6"></polygon><polygon points="889,2052 889,2106 842,2133 795,2106 795,2052 842,2025" fill="#b8d699" stroke-width="1" stroke="#b8d699"></polygon><polygon points="982,2052 982,2106 935,2133 889,2106 889,2052 935,2025" fill="#a3d1a9" stroke-width="1" stroke="#a3d1a9"></polygon><polygon points="1076,2052 1076,2106 1029,2133 982,2106 982,2052 1029,2025" fill="#d2d699" stroke-width="1" stroke="#d2d699"></polygon><polygon points="1169,2052 1169,2106 1122,2133 1076,2106 1076,2052 1122,2025" fill="#a2c3b1" stroke-width="1" stroke="#a2c3b1"></polygon><polygon points="1263,2052 1263,2106 1216,2133 1169,2106 1169,2052 1216,2025" fill="#a6bfad" stroke-width="1" stroke="#a6bfad"></polygon><polygon points="1356,2052 1356,2106 1309,2133 1263,2106 1263,2052 1309,2025" fill="#d6d599" stroke-width="1" stroke="#d6d599"></polygon><polygon points="1450,2052 1450,2106 1403,2133 1356,2106 1356,2052 1403,2025" fill="#b6b6aa" stroke-width="1" stroke="#b6b6aa"></polygon><polygon points="1543,2052 1543,2106 1496,2133 1450,2106 1450,2052 1496,2025" fill="#98cdb1" stroke-width="1" stroke="#98cdb1"></polygon><polygon points="1637,2052 1637,2106 1590,2133 1543,2106 1543,2052 1590,2025" fill="#bdd699" stroke-width="1" stroke="#bdd699"></polygon><polygon points="1730,2052 1730,2106 1684,2133 1637,2106 1637,2052 1684,2025" fill="#b3d69a" stroke-width="1" stroke="#b3d69a"></polygon><polygon points="1824,2052 1824,2106 1777,2133 1730,2106 1730,2052 1777,2025" fill="#cad699" stroke-width="1" stroke="#cad699"></polygon><polygon points="1917,2052 1917,2106 1871,2133 1824,2106 1824,2052 1871,2025" fill="#bdd699" stroke-width="1" stroke="#bdd699"></polygon><polygon points="2011,2052 2011,2106 1964,2133 1917,2106 1917,2052 1964,2025" fill="#e28d92" stroke-width="1" stroke="#e28d92"></polygon><polygon points="2104,2052 2104,2106 2058,2133 2011,2106 2011,2052 2058,2025" fill="#9cceac" stroke-width="1" stroke="#9cceac"></polygon><polygon points="2198,2052 2198,2106 2151,2133 2104,2106 2104,2052 2151,2025" fill="#cda39d" stroke-width="1" stroke="#cda39d"></polygon><polygon points="2292,2052 2292,2106 2245,2133 2198,2106 2198,2052 2245,2025" fill="#a8d2a2" stroke-width="1" stroke="#a8d2a2"></polygon><polygon points="94,2133 94,2187 47,2214 0,2187 0,2133 47,2106" fill="#f57586" stroke-width="1" stroke="#f57586"></polygon><polygon points="187,2133 187,2187 140,2214 94,2187 94,2133 140,2106" fill="#9b697a" stroke-width="1" stroke="#9b697a"></polygon><polygon points="281,2133 281,2187 234,2214 187,2187 187,2133 234,2106" fill="#9b697a" stroke-width="1" stroke="#9b697a"></polygon><polygon points="374,2133 374,2187 327,2214 281,2187 281,2133 327,2106" fill="#cda29d" stroke-width="1" stroke="#cda29d"></polygon><polygon points="468,2133 468,2187 421,2214 374,2187 374,2133 421,2106" fill="#d39f9c" stroke-width="1" stroke="#d39f9c"></polygon><polygon points="561,2133 561,2187 514,2214 468,2187 468,2133 514,2106" fill="#dd7383" stroke-width="1" stroke="#dd7383"></polygon><polygon points="655,2133 655,2187 608,2214 561,2187 561,2133 608,2106" fill="#94ccb3" stroke-width="1" stroke="#94ccb3"></polygon><polygon points="748,2133 748,2187 701,2214 655,2187 655,2133 701,2106" fill="#df9696" stroke-width="1" stroke="#df9696"></polygon><polygon points="842,2133 842,2187 795,2214 748,2187 748,2133 795,2106" fill="#c3aca2" stroke-width="1" stroke="#c3aca2"></polygon><polygon points="935,2133 935,2187 889,2214 842,2187 842,2133 889,2106" fill="#d09e9a" stroke-width="1" stroke="#d09e9a"></polygon><polygon points="1029,2133 1029,2187 982,2214 935,2187 935,2133 982,2106" fill="#add4a0" stroke-width="1" stroke="#add4a0"></polygon><polygon points="1122,2133 1122,2187 1076,2214 1029,2187 1029,2133 1076,2106" fill="#b4d69e" stroke-width="1" stroke="#b4d69e"></polygon><polygon points="1216,2133 1216,2187 1169,2214 1122,2187 1122,2133 1169,2106" fill="#b3d69e" stroke-width="1" stroke="#b3d69e"></polygon><polygon points="1309,2133 1309,2187 1263,2214 1216,2187 1216,2133 1263,2106" fill="#b5d89d" stroke-width="1" stroke="#b5d89d"></polygon><polygon points="1403,2133 1403,2187 1356,2214 1309,2187 1309,2133 1356,2106" fill="#a8d2a2" stroke-width="1" stroke="#a8d2a2"></polygon><polygon points="1496,2133 1496,2187 1450,2214 1403,2187 1403,2133 1450,2106" fill="#9ccead" stroke-width="1" stroke="#9ccead"></polygon><polygon points="1590,2133 1590,2187 1543,2214 1496,2187 1496,2133 1543,2106" fill="#b3d69a" stroke-width="1" stroke="#b3d69a"></polygon><polygon points="1684,2133 1684,2187 1637,2214 1590,2187 1590,2133 1637,2106" fill="#b3b9ac" stroke-width="1" stroke="#b3b9ac"></polygon><polygon points="1777,2133 1777,2187 1730,2214 1684,2187 1684,2133 1730,2106" fill="#b7d699" stroke-width="1" stroke="#b7d699"></polygon><polygon points="1871,2133 1871,2187 1824,2214 1777,2187 1777,2133 1824,2106" fill="#b0d59f" stroke-width="1" stroke="#b0d59f"></polygon><polygon points="1964,2133 1964,2187 1917,2214 1871,2187 1871,2133 1917,2106" fill="#b4d699" stroke-width="1" stroke="#b4d699"></polygon><polygon points="2058,2133 2058,2187 2011,2214 1964,2187 1964,2133 2011,2106" fill="#97c8b3" stroke-width="1" stroke="#97c8b3"></polygon><polygon points="2151,2133 2151,2187 2104,2214 2058,2187 2058,2133 2104,2106" fill="#c8aaa2" stroke-width="1" stroke="#c8aaa2"></polygon><polygon points="2245,2133 2245,2187 2198,2214 2151,2187 2151,2133 2198,2106" fill="#bbb1a5" stroke-width="1" stroke="#bbb1a5"></polygon><polygon points="2338,2133 2338,2187 2292,2214 2245,2187 2245,2133 2292,2106" fill="#a8d2a2" stroke-width="1" stroke="#a8d2a2"></polygon></svg>